<svg width="161" height="33" viewBox="0 0 161 33" fill="none" xmlns="http://www.w3.org/2000/svg">
<g clip-path="url(#clip0_946_284)">
<path d="M154.531 6.35156L149.071 12.4704V6.35156H145.12V21.7979H149.071V15.2948L154.915 21.7979H160.02L152.831 13.7047L159.499 6.35156H154.531Z" fill="white"/>
<path d="M138.153 12.1124H132.694V6.35156H128.74V21.7979H132.694V15.7077H138.153V21.7979H142.105V6.35156H138.153V12.1124Z" fill="white"/>
<path d="M23.4605 14.7149C23.366 17.5964 22.9949 18.1719 21.374 18.1719V21.7979H21.978C26.0169 21.7979 26.9877 19.7136 27.137 15.0773L27.3017 9.94465H31.0881V21.8045H35.0414V6.35156H23.735L23.4605 14.7149Z" fill="white"/>
<path d="M44.8602 11.0428H42.005V6.35156H38.0518V21.7979H44.9129C49.2198 21.7979 50.7572 18.9999 50.7572 16.3665C50.7572 12.9645 48.6158 11.0428 44.858 11.0428M44.5549 18.3959H42.005V14.4734H44.5571C45.9298 14.4734 46.7534 15.0773 46.7534 16.3665C46.7534 17.7656 45.9583 18.3959 44.5571 18.3959" fill="white"/>
<path d="M63.6273 5.99348V0.259033H59.674V5.99348C55.1497 6.36905 52.1035 9.58877 52.1035 14.056C52.1035 18.5232 55.1497 21.7671 59.6762 22.1514V27.9693H63.6295V22.1558C68.156 21.7978 71.2023 18.5605 71.2023 14.056C71.2023 9.55144 68.156 6.34708 63.6273 5.98909M59.674 18.42C57.4778 18.1169 56.1073 16.4719 56.1073 14.056C56.1073 11.6401 57.48 9.99508 59.674 9.69419V18.42ZM63.6273 18.42V9.69859C65.8236 9.99948 67.205 11.6401 67.205 14.056C67.205 16.4719 65.8346 18.1169 63.6383 18.42" fill="white"/>
<path d="M86.0188 17.0517V11.8597C86.0188 8.07338 83.6029 5.68604 79.5442 5.68604C75.3449 5.68604 73.1223 8.20955 72.9312 10.8451H76.9372C77.0734 10.2674 77.6774 9.27913 79.5442 9.27913C81.0816 9.27913 82.0677 9.99291 82.0677 11.8597H78.143C74.6289 11.8597 72.5469 13.698 72.5469 16.7706C72.5469 19.9859 74.8266 22.1822 78.1166 22.1822C80.5325 22.1822 81.8678 21.0423 82.452 20.1792C82.9726 21.2224 84.1256 21.7978 85.6344 21.7978H87.0071V18.2289C86.2933 18.2289 86.0188 17.8995 86.0188 17.0495M82.0655 16.0348C82.0655 17.8182 80.8026 18.8329 79.1576 18.8329C77.7301 18.8329 76.6056 18.3124 76.6056 16.775C76.6056 15.2376 77.8399 15.018 78.9095 15.018H82.0655V16.0348Z" fill="white"/>
<path d="M102.95 8.54555H98.5308V4.18376H108.765V0.259033H94.3887V21.7978H102.954C107.7 21.7978 110.421 19.439 110.421 15.1036C110.421 11.0163 107.705 8.54555 102.954 8.54555M102.761 17.9016H98.5308V12.299H102.756C104.953 12.299 106.187 13.3136 106.187 15.097C106.187 16.9353 104.953 17.8951 102.756 17.8951" fill="white"/>
<path d="M125.532 17.0517V11.8597C125.532 8.07338 123.116 5.68604 119.055 5.68604C114.864 5.69262 112.635 8.21613 112.449 10.8517H116.455C116.593 10.274 117.197 9.28572 119.062 9.28572C120.599 9.28572 121.587 9.9995 121.587 11.8663H117.656C114.142 11.8663 112.058 13.7046 112.058 16.7772C112.058 19.9859 114.34 22.1822 117.63 22.1822C120.045 22.1822 121.379 21.0423 121.963 20.1792C122.485 21.2224 123.639 21.7978 125.147 21.7978H126.518V18.2289C125.806 18.2289 125.532 17.8995 125.532 17.0495M121.578 16.0348C121.578 17.8182 120.316 18.8329 118.668 18.8329C117.243 18.8329 116.116 18.3124 116.116 16.775C116.116 15.2376 117.353 15.018 118.422 15.018H121.578V16.0348Z" fill="white"/>
<path d="M21.1281 28.3845H0V32.7749H21.1281V28.3845Z" fill="white"/>
<path d="M14.4055 3.21521C13.8015 1.41867 13.1075 -0.00012207 10.729 -0.00012207C8.3504 -0.00012207 7.61026 1.41427 6.97774 3.21521L0.439453 21.7978H4.77488L6.28372 17.3811H14.6295L16.0329 21.7978H20.6451L14.4055 3.21521ZM7.54657 13.6497L10.5093 4.83166H10.6191L13.4172 13.6497H7.54657Z" fill="white"/>
</g>
<defs>
<clipPath id="clip0_946_284">
<rect width="160.02" height="32.7749" fill="white"/>
</clipPath>
</defs>
</svg>
