<svg width="140" height="41" viewBox="0 0 140 41" fill="none" xmlns="http://www.w3.org/2000/svg">
<g clip-path="url(#clip0_946_295)">
<path d="M27.685 2.02863V2.07526H27.6384C26.5385 2.13113 25.4702 2.46184 24.5312 3.03715C23.2783 3.74789 22.0955 4.5755 20.9984 5.50891C20.2212 6.1696 19.4439 6.88471 18.6666 7.65422C17.8893 8.42373 17.1587 9.18352 16.4746 9.9336C15.9733 10.5166 15.5011 11.0412 15.0639 11.5601C14.6267 12.0789 14.2186 12.5861 13.8397 13.0933C13.2567 13.8103 12.7379 14.5448 12.2365 15.2794C11.7352 16.0139 11.2513 16.7484 10.7791 17.4713C9.7046 19.2699 8.77476 21.151 7.99837 23.0969C7.3258 24.7409 6.9128 26.4794 6.77414 28.2503C6.74542 28.4531 6.72984 28.6576 6.72751 28.8624V29.4454C6.72751 31.7383 7.26966 33.5125 8.35398 34.7678C9.43829 36.0231 11.1094 36.8859 13.3675 37.3562C13.88 37.4761 14.4 37.5618 14.924 37.6127C15.4253 37.6593 15.9092 37.6826 16.3814 37.6826C16.9663 37.684 17.5507 37.6451 18.1303 37.566C18.7132 37.4902 19.267 37.4028 19.8034 37.3095C20.4271 37.1813 21.0509 37.0239 21.663 36.8373C22.2751 36.6508 22.9106 36.4584 23.5693 36.2544L24.6944 35.9745C25.0733 35.8754 25.4639 35.7822 25.8603 35.6889L28.6877 35.0068C29.533 34.8028 30.3666 34.6046 31.1828 34.4239L33.6779 33.8409C34.5232 33.6544 35.4676 33.4795 36.5052 33.3221L36.855 33.2521L37.2106 33.1822L39.1402 32.8265C39.7232 32.7216 40.3062 32.6167 40.9299 32.5234C41.5537 32.4301 42.0026 32.3602 42.5506 32.3135C43.0985 32.2669 43.7165 32.2436 44.2995 32.2436H44.8824C44.9825 32.2746 45.0866 32.2904 45.1914 32.2902H45.4945C48.204 32.3841 50.8851 32.8751 53.452 33.7476C55.8324 34.6313 58.0578 35.8866 60.0453 37.4669C60.4825 37.8109 60.9314 38.1898 61.3861 38.5979C61.8408 39.006 62.2897 39.4315 62.7269 39.8687C61.9242 39.2442 61.0268 38.7522 60.0686 38.4113C59.0532 38.0328 58.0054 37.7479 56.9381 37.5602C56.3688 37.4654 55.7947 37.4032 55.2183 37.3736C54.6354 37.3387 54.0524 37.327 53.5452 37.327C53.1372 37.327 52.7524 37.327 52.3793 37.327C52.0062 37.327 51.6681 37.3678 51.3242 37.397C50.722 37.4847 50.134 37.6513 49.5753 37.8925C49.0597 38.1106 48.5626 38.3699 48.0887 38.6678C47.7137 38.9039 47.3535 39.1629 47.0102 39.4432C46.7246 39.6822 46.5205 39.8454 46.4273 39.9387C46.1766 39.7172 45.8443 39.4315 45.5062 39.0701C45.0929 38.662 44.6442 38.2913 44.1654 37.9624C43.3217 37.4424 42.4318 37.0013 41.5071 36.6449C40.1835 36.1493 38.7953 35.8469 37.3855 35.7472C37.1927 35.7163 36.9978 35.7007 36.8026 35.7006H36.2196C34.6035 35.7145 32.9942 35.9101 31.4218 36.2835C29.7545 36.6624 27.9648 37.0822 26.0527 37.5544L25.015 37.84C24.6711 37.9333 24.3272 38.0441 23.9832 38.1665C22.1935 38.7028 20.4505 39.1867 18.7365 39.6297C17.1077 40.0592 15.4309 40.2805 13.7464 40.2885H13.4199C13.2533 40.2892 13.0871 40.2716 12.9244 40.236C12.7379 40.236 12.5571 40.236 12.3822 40.236C12.2175 40.225 12.0538 40.2016 11.8926 40.166C11.2338 40.0728 10.4701 39.9562 9.60734 39.8163C8.71348 39.6663 7.83803 39.4221 6.99567 39.0876C5.17315 38.3674 3.55559 37.2103 2.28533 35.718C0.839586 34.1013 0.0856202 31.5751 0.0234375 28.1395C0.0280619 25.1363 0.867712 22.1935 2.44856 19.6399C4.2111 16.7087 6.23649 13.9438 8.49972 11.3793C10.0122 9.65063 11.6572 8.0426 13.4199 6.56991C15.0631 5.17526 16.8179 3.91767 18.6666 2.8098C20.0502 2.0043 21.5086 1.33466 23.0213 0.810235C24.3473 0.341677 25.733 0.0629837 27.137 -0.0175706H27.2303C28.1242 -0.0249719 28.9918 0.284872 29.6787 0.856873C30.0292 1.12564 30.3196 1.46462 30.5314 1.85211C30.7432 2.2396 30.8717 2.66706 30.9088 3.10711V3.86496C30.9106 3.99088 30.8949 4.11644 30.8622 4.23805C30.7031 5.24869 30.2809 6.19968 29.6379 6.99547C29.3857 7.36538 29.0501 7.67094 28.6583 7.88761C28.2665 8.10428 27.8293 8.22601 27.3819 8.24301H27.1662C27.0937 8.24282 27.0221 8.22691 26.9563 8.19637C26.5903 8.13517 26.2522 7.96206 25.9886 7.70085C25.7843 7.47979 25.6681 7.19149 25.6621 6.89054C25.663 6.63117 25.7186 6.3749 25.8254 6.13851C25.946 5.87196 26.0863 5.61474 26.2451 5.369C26.4035 5.11325 26.6001 4.88324 26.8281 4.68694C27.0496 4.49238 27.2944 4.32595 27.5568 4.19142C27.8199 4.01522 28.1038 3.87228 28.4021 3.76586C28.6137 3.68759 28.8356 3.64046 29.0608 3.62595H29.1599V3.04298C29.1602 3.02143 29.1563 3.00003 29.1483 2.98002C29.1403 2.96001 29.1284 2.94178 29.1133 2.92639C29.0809 2.69681 28.962 2.48829 28.781 2.34343C28.455 2.14534 28.0778 2.04799 27.6967 2.06361L27.685 2.02863ZM104.898 0.0465556C105.719 0.0641679 106.538 0.144067 107.347 0.285568C108.003 0.40765 108.648 0.58113 109.276 0.804404C109.655 0.961804 110.028 1.13087 110.407 1.31741L111.678 1.98199L112.553 2.44836C112.85 2.60576 113.136 2.78065 113.468 2.9672C113.557 3.02803 113.651 3.08257 113.748 3.13043C113.847 3.17893 113.943 3.23547 114.033 3.29948C114.914 3.80083 115.718 4.27887 116.459 4.73358L117.846 5.60219L114.412 9.22239C114.004 9.00669 113.608 8.78517 113.246 8.56364L112.116 7.90489L111.69 7.69502C111.54 7.62062 111.398 7.53281 111.264 7.43269C110.985 7.27529 110.681 7.12372 110.372 6.96632C110.063 6.80892 109.731 6.65152 109.381 6.49412C108.723 6.15017 108.128 5.82372 107.592 5.52641C107.055 5.22909 106.525 4.94344 105.994 4.65779C105.338 4.3119 104.656 3.9971 103.948 3.71339C103.14 3.40873 102.301 3.18989 101.447 3.06047C101.319 3.02938 101.185 3.00606 101.045 2.99051C100.905 2.99051 100.789 2.99051 100.689 2.99051C100.494 2.99024 100.299 3.00583 100.106 3.03715C99.94 3.07141 99.7763 3.11818 99.6168 3.17706C99.584 3.17173 99.5505 3.17173 99.5177 3.17706L99.471 3.20621C99.3906 3.20187 99.3104 3.21791 99.2379 3.25285C99.1796 3.28135 99.1161 3.29724 99.0513 3.29948C99.0895 3.39023 99.1207 3.48378 99.1446 3.57931C99.1737 3.70756 99.2087 3.82998 99.2379 3.95823C99.267 4.17393 99.3078 4.43626 99.3544 4.73358C99.4016 5.03833 99.425 5.34628 99.4244 5.65465C99.4277 6.08784 99.3965 6.5206 99.3311 6.94883C99.2684 7.34418 99.1749 7.73401 99.0513 8.11476C98.958 8.42956 98.8531 8.74436 98.7423 9.05916C98.6316 9.37396 98.4975 9.70042 98.3459 10.0502C97.7808 11.3741 96.992 12.5908 96.0141 13.6471C95.1591 14.591 94.1474 15.3799 93.0235 15.9789C92.5131 16.2528 91.9759 16.4736 91.4203 16.6377C90.9331 16.7893 90.4265 16.8698 89.9163 16.8767C89.5749 16.9081 89.2307 16.8745 88.9019 16.7776C88.5963 16.6947 88.3038 16.5691 88.0333 16.4045C87.726 16.1918 87.4822 15.8996 87.3279 15.5592C87.1679 15.2038 87.0863 14.818 87.0889 14.4282C87.0918 13.9651 87.1565 13.5043 87.2813 13.0583C87.4037 12.5919 87.5611 12.1022 87.7477 11.6009C87.9391 11.0943 88.161 10.5999 88.4122 10.1202C88.6629 9.63046 88.9136 9.18741 89.1643 8.77933C89.5865 8.0959 90.0746 7.45547 90.6217 6.86722C91.2046 6.25511 91.7526 5.70129 92.3181 5.19994C93.0272 4.56369 93.7812 3.97922 94.5742 3.45106C95.089 3.09132 95.6423 2.7902 96.2239 2.55329C96.1663 2.52828 96.1115 2.497 96.0607 2.46002L95.8975 2.36674C95.7934 2.29969 95.6819 2.24491 95.5652 2.20352C95.3976 2.1504 95.222 2.12672 95.0464 2.13356H94.8132C94.716 2.13245 94.6193 2.14823 94.5275 2.1802C93.7937 2.33664 93.077 2.5651 92.388 2.86226C91.5168 3.22878 90.6749 3.66144 89.8696 4.15644C89.4907 4.40711 89.1001 4.67528 88.7037 4.9551C88.3073 5.23492 87.9051 5.53806 87.5378 5.85286C86.6595 6.60294 85.8433 7.33165 85.0894 8.03897C84.3373 8.74436 83.6436 9.44391 83.0198 10.1376C82.2678 10.9538 81.5566 11.7816 80.8979 12.6327C80.2391 13.4838 79.5978 14.3816 78.9682 15.2677C78.4902 15.9012 78.0161 16.6066 77.5458 17.3839C77.0561 18.1417 76.5664 18.9229 76.0651 19.7157C75.5637 20.5085 75.0566 21.3713 74.6485 22.1408C74.2549 22.8792 73.9102 23.6426 73.6166 24.4261C73.2114 25.5119 72.8956 26.6291 72.6722 27.7664C72.4434 28.9771 72.3321 30.207 72.34 31.4391C72.2974 32.6763 72.5324 33.9073 73.0279 35.0418C73.2494 35.5122 73.5884 35.9175 74.0121 36.2187C74.4359 36.52 74.9301 36.7069 75.4471 36.7615C75.6045 36.7907 75.7736 36.814 75.9427 36.8315C76.1077 36.8398 76.2731 36.8398 76.4382 36.8315C77.9602 36.8171 79.4405 36.3325 80.6763 35.444C82.0499 34.4922 83.2589 33.3225 84.2557 31.9812C84.2882 31.9153 84.3273 31.8528 84.3723 31.7947C84.4161 31.7357 84.4551 31.6733 84.4889 31.6082C84.8851 31.0704 85.2397 30.5033 85.5499 29.9117C85.8764 29.2821 86.1853 28.6409 86.4651 27.9821C86.7417 27.3131 86.9773 26.6278 87.1705 25.9301C87.3492 25.3419 87.4454 24.7317 87.4562 24.1171C87.4715 23.6861 87.3814 23.2579 87.1938 22.8695C87.1 22.7055 86.9676 22.5667 86.8082 22.4651C86.6487 22.3635 86.467 22.3023 86.2786 22.2866H86.1853C86.1503 22.2866 86.1387 22.2866 86.1387 22.2399H85.9521C85.6744 22.2323 85.3979 22.2799 85.1387 22.38C84.8796 22.4801 84.6428 22.6306 84.4423 22.8229C84.0287 23.2312 83.6394 23.6633 83.2763 24.1171C83.2472 24.1171 83.2297 24.1171 83.2297 24.1171C83.2297 24.1171 83.2297 24.1171 83.1831 24.1171C83.1364 24.1171 83.1189 24.2337 83.0898 24.2803C83.0612 24.3211 83.0301 24.3601 82.9965 24.3969C82.7924 24.6369 82.6254 24.9061 82.501 25.1956C82.3573 25.5163 82.2385 25.8477 82.1454 26.1866C81.9721 26.7275 81.8319 27.2784 81.7257 27.8364C81.6265 28.3377 81.5508 28.6001 81.4866 28.635C81.2379 28.7283 81.0106 28.8216 80.8046 28.9149L80.2624 29.1539C80.1818 29.1773 80.1037 29.2085 80.0292 29.2472C79.9775 29.2698 79.9302 29.3014 79.8893 29.3404C79.742 29.3987 79.5997 29.4689 79.4638 29.5503L79.0382 29.8126C78.9449 29.8709 78.8458 29.9467 78.7351 30.0225L78.3794 30.279C78.2792 30.3501 78.1855 30.4301 78.0996 30.518C78.0117 30.6043 77.9161 30.6824 77.814 30.7512L76.8055 31.6723C76.5081 31.9404 76.3099 32.0395 76.2225 31.9754C76.1727 31.8994 76.1483 31.8096 76.1525 31.7189C76.1419 31.5384 76.1419 31.3573 76.1525 31.1768C76.1649 30.4997 76.2194 29.8241 76.3158 29.1539C76.4376 28.2544 76.6505 27.3696 76.9512 26.5131C77.1433 25.9137 77.3791 25.3291 77.6566 24.7642C77.9307 24.1938 78.2797 23.6625 78.6943 23.1843C79.4954 22.1844 80.4859 21.3524 81.6091 20.7359C82.6469 20.1579 83.8139 19.8511 85.0019 19.844C85.2526 19.844 85.4799 19.844 85.684 19.844C85.8995 19.8589 86.1126 19.898 86.3194 19.9606C86.7463 20.0251 87.1557 20.1751 87.5233 20.4014C87.8909 20.6278 88.2091 20.9259 88.4589 21.2781C88.894 21.9768 89.1167 22.7869 89.1001 23.6099C89.0912 24.355 88.9953 25.0965 88.8145 25.8193C88.619 26.6191 88.3517 27.3995 88.0158 28.1512C87.7025 28.931 87.3483 29.6938 86.9548 30.4364C86.5642 31.1709 86.162 31.8705 85.7539 32.5292C84.41 34.6481 82.6773 36.4936 80.6472 37.9683C78.8288 39.3175 76.6271 40.0508 74.3628 40.0611H73.8673C73.6855 40.0625 73.504 40.0469 73.3252 40.0145C71.3836 39.8759 69.503 39.2764 67.8395 38.2656C66.3471 37.3095 65.6029 35.4674 65.6067 32.7391C65.607 32.1801 65.6381 31.6216 65.7 31.066C65.7583 30.483 65.8574 29.8476 65.9798 29.1597C66.4598 26.7105 67.2595 24.3351 68.3583 22.0942C69.3466 20.0878 70.4684 18.1499 71.7162 16.2937C72.3458 15.3493 72.9754 14.4865 73.605 13.7054C74.2288 12.9184 74.8117 12.213 75.3539 11.5834C75.7328 11.1462 76.135 10.7031 76.5548 10.2659C76.9745 9.82867 77.4117 9.38562 77.849 8.94839C80.1574 6.7375 82.6984 4.78291 85.4275 3.11877C88.1741 1.37473 91.3113 0.341029 94.5567 0.110682H94.7957C95.1619 0.105146 95.5271 0.152264 95.88 0.250592C96.2029 0.348033 96.5169 0.472851 96.8186 0.623688C97.0051 0.722791 97.2033 0.827724 97.4015 0.955976C97.6053 1.07975 97.8177 1.18884 98.0369 1.28243C98.1262 1.31499 98.212 1.35598 98.2935 1.40486L98.5092 1.52145C98.9814 1.29992 99.4244 1.11338 99.85 0.938488C100.276 0.763599 100.689 0.641175 101.098 0.512923C101.67 0.353237 102.255 0.244002 102.846 0.186465C103.526 0.120128 104.209 0.0889931 104.893 0.0931893L104.898 0.0465556ZM97.3199 3.81832C96.8504 4.01481 96.3947 4.24268 95.9558 4.50039C95.3788 4.82543 94.8273 5.19375 94.306 5.60219C93.7822 5.99559 93.2873 6.42615 92.8253 6.89054C92.3403 7.36872 91.9065 7.89624 91.5311 8.46453C91.4336 8.59182 91.3459 8.72628 91.2688 8.86678C91.1935 9.00529 91.1078 9.13782 91.0123 9.26319C90.8549 9.51387 90.7033 9.77037 90.5634 10.021L90.1145 10.8197C89.8404 11.3374 89.5971 11.8707 89.3858 12.417C89.2011 12.8674 89.0984 13.3471 89.0826 13.8336C89.0798 14.011 89.1115 14.1872 89.1759 14.3525C89.2399 14.5098 89.3351 14.6526 89.4557 14.7722C89.5885 14.8857 89.7405 14.9746 89.9046 15.0345C90.065 15.0843 90.2323 15.1079 90.4001 15.1045C90.7545 15.0975 91.1045 15.0243 91.432 14.8888C91.8308 14.7401 92.2105 14.5444 92.5629 14.3058C93.0998 13.9302 93.6048 13.511 94.0728 13.0525C94.5498 12.5939 94.9903 12.0988 95.3903 11.5717L95.5768 11.2919L95.7634 11.0063C96.3801 10.051 96.8571 9.01257 97.18 7.92238C97.3776 7.19384 97.4872 6.44425 97.5065 5.68963C97.5092 5.35868 97.4936 5.02783 97.4598 4.6986C97.4355 4.41359 97.3887 4.13094 97.3199 3.8533V3.81832ZM115.258 15.8682C114.756 16.6843 114.302 17.4305 113.894 18.1067C113.485 18.7771 113.107 19.4476 112.763 20.1063C112.51 20.5804 112.259 21.0585 112.011 21.5404C111.76 22.0301 111.521 22.5373 111.305 23.0736C111.148 23.4467 110.979 23.8256 110.81 24.2045C110.641 24.5835 110.472 24.9857 110.314 25.4229C111.159 24.84 112.15 24.1462 113.281 23.2834C114.508 22.3426 115.676 21.3283 116.779 20.2462C116.972 20.0597 117.152 19.8731 117.321 19.6632L117.864 19.0803C118.446 18.4973 118.93 17.9144 119.373 17.4596C119.816 17.0049 120.219 16.5094 120.598 16.0664L121.041 15.53C121.181 15.3552 121.332 15.1744 121.49 14.9879C121.804 14.609 122.125 14.1951 122.457 13.7403C122.79 13.2856 123.139 12.7726 123.512 12.2072L125.302 11.8807C124.929 12.5045 124.568 13.0466 124.218 13.5713C123.868 14.096 123.53 14.5623 123.186 15.0345L122.527 15.8798C122.309 16.1607 122.074 16.4274 121.822 16.6785C121.414 17.1857 120.971 17.687 120.498 18.1884L118.936 19.8731C118.353 20.4969 117.77 21.0798 117.187 21.622C116.604 22.1642 116.115 22.6422 115.613 23.0852L114.313 24.187C113.888 24.5523 113.44 24.891 112.972 25.2014C112.471 25.5803 111.952 25.9476 111.422 26.309C110.891 26.6705 110.308 27.0552 109.673 27.4749C109.501 27.7075 109.358 27.9601 109.247 28.227C108.997 28.7283 108.728 29.3404 108.449 30.0633C108.355 30.3431 108.25 30.6463 108.14 30.9086C108.029 31.1709 107.93 31.4916 107.837 31.7597C107.658 32.2915 107.508 32.8325 107.388 33.3804C107.285 33.8379 107.23 34.3048 107.224 34.7736C107.189 35.0435 107.221 35.3178 107.318 35.5723C107.357 35.6755 107.421 35.7678 107.503 35.8418C107.585 35.9158 107.683 35.9693 107.79 35.9979C107.841 36.0245 107.896 36.0404 107.953 36.0445H108.07C108.389 36.0332 108.7 35.9344 108.967 35.7589C109.302 35.5541 109.616 35.3179 109.906 35.0535C110.157 34.8319 110.402 34.5988 110.635 34.3481C110.868 34.0974 111.101 33.8292 111.323 33.5494C111.445 33.392 111.573 33.2405 111.696 33.1005C111.818 32.9606 111.946 32.8091 112.075 32.6517C113.707 30.6735 115.127 28.8527 116.336 27.1893C117.388 25.7139 118.543 24.3152 119.793 23.0036C120.079 22.7471 120.347 22.5081 120.598 22.2691C120.847 22.0366 121.114 21.8241 121.396 21.6337C121.647 21.4471 121.88 21.2839 122.102 21.144C122.31 21.0055 122.53 20.8865 122.76 20.7884C123.206 20.5484 123.68 20.3662 124.171 20.2462C124.698 20.1308 125.235 20.0761 125.774 20.083C126.307 20.0637 126.84 20.1266 127.354 20.2695C127.65 20.3637 127.928 20.5077 128.176 20.6951C128.288 20.7764 128.389 20.8703 128.479 20.9749C128.561 21.0682 128.631 21.1498 128.695 21.2139C128.701 21.1301 128.725 21.0486 128.765 20.9749C128.813 20.878 128.867 20.7845 128.928 20.6951C128.962 20.6638 128.987 20.6233 128.998 20.5785C129.014 20.534 129.038 20.4926 129.068 20.4561C129.103 20.3978 129.144 20.3337 129.19 20.2695C129.224 20.2187 129.263 20.1717 129.307 20.1296C129.504 20.0334 129.724 19.9931 129.943 20.013C130.304 20.013 130.7 20.013 131.143 20.013H131.423C131.96 20.013 132.461 20.013 132.933 20.0597C133.405 20.1063 133.656 20.1354 133.685 20.1996C133.714 20.2637 133.347 21.0099 132.484 22.4382C131.621 23.8664 130.689 25.4579 129.68 27.2126C129.596 27.327 129.518 27.4457 129.447 27.5682C129.383 27.679 129.319 27.7956 129.26 27.9238C128.316 29.5561 127.477 31.0854 126.742 32.5117C126.008 33.9381 125.638 34.8883 125.634 35.3624C125.628 35.401 125.628 35.4405 125.634 35.479C125.649 35.5224 125.673 35.5621 125.704 35.5956C125.772 35.6259 125.842 35.6493 125.914 35.6656C125.986 35.6733 126.058 35.6733 126.13 35.6656C126.523 35.6698 126.905 35.5357 127.208 35.2867C127.664 34.9666 128.089 34.6056 128.479 34.2082C128.637 34.0508 128.794 33.8759 128.951 33.6893L129.424 33.1064C129.552 32.9198 129.68 32.7158 129.826 32.5234C129.972 32.331 130.1 32.0862 130.222 31.8647C130.256 31.7992 130.295 31.7367 130.339 31.6781C130.392 31.6056 130.434 31.5249 130.461 31.4391C130.682 31.0446 130.941 30.6735 131.237 30.3315C131.325 30.2014 131.452 30.1022 131.599 30.0478C131.746 29.9935 131.907 29.9866 132.059 30.0283C132.373 30.1507 132.274 30.7279 131.756 31.7481C131.122 32.9406 130.373 34.0674 129.517 35.1118C128.98 35.8174 128.396 36.4854 127.768 37.1113C127.158 37.7293 126.505 38.304 125.815 38.8311C125.317 39.1887 124.791 39.5045 124.241 39.7755C123.78 40.011 123.272 40.1386 122.755 40.1486C122.175 40.2206 121.588 40.0983 121.086 39.8007C120.584 39.5032 120.195 39.0473 119.98 38.5046C119.89 38.2414 119.818 37.9727 119.764 37.7001C119.717 37.4494 119.682 37.2629 119.647 37.1172C119.656 37.0947 119.656 37.0696 119.647 37.0472C119.647 37.0472 119.647 37.0122 119.647 36.9772C119.587 37.1952 119.475 37.3952 119.321 37.5602C119.048 37.8988 118.747 38.2146 118.423 38.5046C117.931 38.9491 117.385 39.3291 116.797 39.6355C116.168 39.9753 115.465 40.1517 114.75 40.1486C113.62 40.1486 112.827 39.8746 112.372 39.3266C111.934 38.8156 111.664 38.1829 111.597 37.5136C111.566 37.4478 111.55 37.3762 111.55 37.3037V37.0414C111.549 36.7349 111.573 36.4289 111.62 36.1261C111.667 35.8288 111.707 35.5432 111.737 35.3508C111.766 35.1584 111.801 35.0593 111.83 34.9485C111.846 34.8717 111.88 34.7998 111.929 34.7387C111.771 35.1113 111.536 35.4468 111.241 35.7239C110.723 36.3255 110.166 36.8922 109.574 37.4203L108.868 38.0324C108.618 38.2539 108.361 38.458 108.111 38.6445C107.626 39.0495 107.107 39.4123 106.56 39.7288C106.163 39.9763 105.71 40.1206 105.242 40.1486C104.83 40.159 104.42 40.0758 104.045 39.9051C103.669 39.7345 103.337 39.4809 103.074 39.1633C102.523 38.5394 102.222 37.7339 102.228 36.9015C102.24 36.3559 102.295 35.8121 102.392 35.275C102.502 34.6046 102.637 33.905 102.794 33.1822C102.858 32.8382 102.916 32.5059 102.98 32.1911C103.041 31.889 103.121 31.591 103.219 31.2992C103.371 30.6404 103.528 30.0691 103.686 29.5794C103.751 29.281 103.88 29.0004 104.065 28.7575L102.228 29.0373C102.011 29.5265 101.76 29.9999 101.476 30.4539C101.068 31.1418 100.596 31.8822 100.06 32.6633C99.9083 32.914 99.7392 33.1588 99.5701 33.392C99.4011 33.6252 99.2145 33.8584 99.028 34.0741C98.9934 34.1407 98.9545 34.205 98.9114 34.2665C98.8583 34.3315 98.8018 34.3938 98.7423 34.453C97.6335 35.8734 96.392 37.1852 95.0347 38.3705C93.8615 39.4271 92.3709 40.0647 90.7966 40.1835H90.5634C90.368 40.1865 90.1728 40.1709 89.9804 40.1369L89.3974 40.0436C88.7443 39.8444 88.1458 39.4973 87.6486 39.0293C87.0841 38.4742 86.7491 37.7271 86.71 36.9364V36.61C86.6806 36.5584 86.6645 36.5003 86.6634 36.4409V36.2777C86.6781 35.0342 86.9252 33.8043 87.3921 32.6517C88.0455 31.0823 88.8581 29.584 89.8172 28.1803C90.3218 27.4033 90.8707 26.6558 91.4611 25.9418C92.0441 25.2713 92.5921 24.6476 93.1576 24.0821C94.3934 22.8435 95.8131 21.8033 97.3665 20.9982C98.3748 20.4294 99.5036 20.1077 100.66 20.0597C101.504 20.0664 102.322 20.3466 102.992 20.8583C103.34 21.1722 103.614 21.558 103.798 21.9889C103.981 22.4198 104.068 22.8854 104.053 23.3534V23.5399C104.051 23.7448 104.036 23.9493 104.006 24.1521C103.972 24.3736 103.942 24.5951 103.913 24.8166C103.884 25.0382 103.779 25.3996 103.698 25.6619C103.629 25.9181 103.543 26.1693 103.441 26.414C103.313 26.7288 103.202 26.9969 103.109 27.2126C103.055 27.3662 102.976 27.51 102.876 27.6382L104.473 27.2593C104.788 26.4431 105.056 25.7144 105.324 25.0731C105.592 24.4319 105.825 23.8431 106.076 23.3243C106.193 23.027 106.327 22.7369 106.478 22.4556C106.618 22.1875 106.752 21.9135 106.875 21.6278C107.189 21.0449 107.528 20.4619 107.889 19.8381C108.25 19.2144 108.664 18.509 109.137 17.722C109.609 16.935 110.203 16.0489 110.833 15.1569C111.463 14.265 112.133 13.3614 112.856 12.4462L114.605 10.3533C115.18 9.64989 115.784 8.96783 116.418 8.30714C117.584 7.01685 118.736 5.83926 119.875 4.77438C120.807 3.88278 121.807 3.06422 122.865 2.32594C123.818 1.67306 124.836 1.1202 125.903 0.676152C126.555 0.419479 127.248 0.277485 127.949 0.256423C128.199 0.256423 128.438 0.256423 128.66 0.256423C128.883 0.270231 129.104 0.309344 129.319 0.373013C129.518 0.395611 129.71 0.459046 129.884 0.559352C130.057 0.659658 130.208 0.794678 130.327 0.955976C130.57 1.28527 130.709 1.67862 130.73 2.08693V2.36674C130.729 2.56199 130.714 2.75692 130.683 2.94971C130.648 3.13626 130.619 3.34029 130.59 3.53267C130.56 3.72505 130.444 4.04568 130.351 4.30801C130.257 4.57034 130.164 4.82102 130.071 5.04255C129.977 5.26407 129.832 5.49726 129.738 5.62551C129.685 5.73635 129.605 5.8324 129.505 5.90533L127.809 6.33089C127.905 6.22708 127.992 6.11598 128.071 5.9986C128.191 5.8146 128.292 5.61936 128.374 5.41564L128.66 4.83268C128.748 4.64266 128.826 4.44806 128.893 4.24972C128.985 4.0377 129.055 3.81701 129.103 3.59097C129.148 3.38997 129.171 3.18479 129.173 2.97886C129.181 2.76108 129.141 2.54418 129.056 2.34343C129.014 2.25451 128.951 2.17669 128.873 2.11602C128.795 2.05535 128.704 2.01347 128.608 1.99365C128.577 1.99837 128.545 1.99837 128.514 1.99365H128.468H128.264C127.385 1.95867 126.161 2.6796 124.591 4.15644C122.809 5.86761 121.156 7.70903 119.647 9.66544C118.893 10.6409 118.147 11.6533 117.409 12.7027C116.674 13.752 115.957 14.8305 115.269 15.9265L115.258 15.8682ZM93.688 30.6521C93.6567 30.7483 93.6177 30.8419 93.5715 30.9319L93.4549 31.1709C93.3616 31.4216 93.2567 31.6723 93.1459 31.923C93.0351 32.1736 92.936 32.4243 92.8428 32.675C92.6605 33.0944 92.5105 33.527 92.3939 33.9692C92.2932 34.33 92.2383 34.7022 92.2306 35.0768C92.2203 35.2778 92.2604 35.4782 92.3472 35.6597C92.4097 35.8004 92.516 35.917 92.6504 35.992L92.936 36.0853C93.0419 36.1171 93.1519 36.1329 93.2625 36.1319C93.686 36.1228 94.1029 36.0255 94.4867 35.8463C94.9661 35.6394 95.4248 35.3876 95.8567 35.0943C96.2022 34.8415 96.5313 34.5669 96.8419 34.2723C97.169 33.9599 97.4694 33.6206 97.7396 33.2579C97.8621 33.1005 98.0428 32.8557 98.276 32.5292C98.5091 32.2028 98.7598 31.8472 99.0105 31.4682C99.043 31.4023 99.082 31.3398 99.1271 31.2817C99.1709 31.2227 99.2099 31.1603 99.2437 31.0951C99.4944 30.6871 99.7275 30.2848 99.9491 29.8942C100.115 29.6151 100.257 29.3226 100.375 29.0198C100.06 28.9907 99.7917 28.9498 99.5235 28.9032C99.2761 28.8564 99.0379 28.7697 98.8181 28.6467C98.6923 28.612 98.5737 28.5547 98.4683 28.4776C98.3548 28.3996 98.2359 28.3295 98.1127 28.2678C97.7185 28.0223 97.3613 27.722 97.0518 27.3758C96.7617 27.0187 96.517 26.6271 96.323 26.2099C96.0855 26.4773 95.8655 26.7596 95.6643 27.0552C95.4777 27.3409 95.3029 27.6032 95.1455 27.8539C94.9881 28.1046 94.9123 28.2794 94.819 28.466C94.7257 28.6525 94.6324 28.8449 94.5333 29.0489C94.3759 29.3346 94.236 29.6319 94.1136 29.8768C93.9912 30.1216 93.8455 30.4597 93.688 30.7454V30.6521ZM125.238 22.6305C125.157 22.7134 125.072 22.7913 124.981 22.8637L124.719 23.0561C124.139 23.5388 123.605 24.0735 123.122 24.6534C122.539 25.3471 121.647 26.4781 120.481 28.0462C120.23 28.4193 119.991 28.8041 119.752 29.2122L119.07 30.3781C118.653 31.2075 118.298 32.0668 118.009 32.949C117.777 33.6078 117.644 34.2973 117.613 34.9952C117.607 35.1919 117.631 35.3883 117.683 35.5781C117.713 35.7077 117.787 35.8229 117.893 35.9046C117.949 35.9337 118.004 35.9668 118.056 36.0037C118.107 36.0341 118.165 36.0502 118.225 36.0503C118.244 36.0669 118.266 36.0796 118.29 36.0876C118.314 36.0956 118.34 36.0988 118.365 36.097H118.505C118.73 36.1013 118.954 36.0572 119.161 35.9677C119.369 35.8782 119.554 35.7454 119.706 35.5781C120.095 35.2021 120.45 34.7924 120.767 34.3539C120.858 34.2615 120.936 34.1577 121 34.0449C121.064 33.94 121.128 33.8351 121.192 33.7418C122.381 31.8608 123.487 30.0633 124.509 28.3494C125.531 26.6355 126.528 24.9799 127.5 23.3826C127.58 23.2573 127.642 23.122 127.686 22.9803C127.711 22.8925 127.742 22.8067 127.78 22.7238C127.781 22.6681 127.772 22.6125 127.752 22.5605C127.732 22.5084 127.702 22.4609 127.663 22.4207C127.586 22.3395 127.5 22.2672 127.407 22.205C127.382 22.215 127.355 22.215 127.331 22.205C127.308 22.1965 127.283 22.1965 127.261 22.205C127.194 22.1738 127.123 22.1504 127.051 22.135C126.981 22.1274 126.911 22.1274 126.841 22.135C126.6 22.1391 126.361 22.1865 126.136 22.2749C125.814 22.4065 125.512 22.581 125.238 22.7938V22.6305ZM100.946 27.714C101.01 27.714 101.068 27.6673 101.132 27.574L101.319 27.2942C101.498 26.9619 101.648 26.6147 101.768 26.2566C101.908 25.855 102.027 25.4464 102.124 25.0323C102.153 24.8458 102.176 24.6534 102.193 24.4494C102.211 24.2453 102.193 24.0704 102.193 23.8664V23.7965C102.191 23.4345 102.101 23.0785 101.931 22.7588C101.813 22.5607 101.644 22.3977 101.441 22.2866C101.379 22.2582 101.315 22.2348 101.249 22.2166C101.187 22.2106 101.125 22.2106 101.063 22.2166H100.876C100.708 22.2178 100.542 22.2413 100.38 22.2866C100.206 22.3332 100.025 22.3915 99.8383 22.4556C99.4708 22.6263 99.1293 22.8481 98.824 23.1144C98.5236 23.3692 98.2483 23.6523 98.002 23.9597C97.8548 24.1396 97.7278 24.3351 97.623 24.5426C97.5398 24.7073 97.4772 24.8815 97.4365 25.0615V25.1081C97.4473 25.3121 97.5031 25.5111 97.5997 25.6911C97.7243 25.9267 97.8749 26.1477 98.0486 26.3498C98.3547 26.7165 98.7143 27.0349 99.1154 27.2942C99.4962 27.5776 99.9405 27.7637 100.41 27.8364H100.643C100.661 27.8369 100.679 27.8329 100.695 27.8247C100.712 27.8166 100.726 27.8046 100.736 27.7898H100.928L100.946 27.714ZM53.6443 30.209C52.9787 30.2613 52.315 30.0866 51.7614 29.7135C51.3812 29.4219 51.0755 29.0443 50.8694 28.6117C50.7779 28.3413 50.7058 28.0646 50.6537 27.7839C50.6071 27.5216 50.5721 27.3059 50.5372 27.1485C50.5462 27.1261 50.5462 27.101 50.5372 27.0785C50.5281 27.0561 50.5281 27.031 50.5372 27.0086C50.4723 27.2245 50.3609 27.4235 50.2107 27.5915C49.9415 27.9407 49.641 28.2646 49.3129 28.5593C48.8233 29.0023 48.2786 29.3805 47.6923 29.6844C47.0631 30.0279 46.3571 30.2064 45.6403 30.2032C44.5093 30.2032 43.7165 29.9292 43.2618 29.3812C42.8243 28.8703 42.5537 28.2376 42.4864 27.5682C42.455 27.4945 42.4392 27.4151 42.4398 27.335V27.0494C42.4392 26.7429 42.4626 26.4369 42.5098 26.1341C42.5564 25.8368 42.5972 25.5512 42.6264 25.353C42.6555 25.1548 42.6905 25.0673 42.7196 24.9566C42.7375 24.8786 42.7713 24.8052 42.8187 24.7409C42.8187 24.8691 42.5797 25.1956 42.1075 25.7319C41.5434 26.3612 40.9314 26.9459 40.277 27.4808C39.5132 28.0736 38.7108 28.615 37.8752 29.1014C37.0484 29.5999 36.1377 29.9436 35.1877 30.1158C35.0012 30.1158 34.8263 30.1741 34.6689 30.1857C34.5136 30.1946 34.3579 30.1946 34.2025 30.1857H33.8236C32.1641 30.0925 31.0507 29.6844 30.4832 28.9615C29.8806 28.14 29.5357 27.1579 29.4922 26.14V25.9942C29.5095 25.4866 29.5818 24.9823 29.7079 24.4902C29.8478 23.8606 30.0285 23.2193 30.2442 22.5606C30.3083 22.3099 30.39 22.0476 30.4832 21.7852C30.5765 21.5229 30.6698 21.2547 30.7631 21.0041C30.9523 20.4292 31.1722 19.8648 31.4218 19.3135C31.5314 19.02 31.6912 18.7478 31.894 18.509L29.5622 18.9345C29.3496 19.4198 29.1062 19.8911 28.8335 20.3453C28.4429 21.039 27.9765 21.7736 27.446 22.5606C27.2886 22.8112 27.1137 23.0619 26.9272 23.3126L26.3442 24.0646C26.3118 24.1325 26.2728 24.1969 26.2276 24.257L26.0644 24.4435C24.9293 25.8563 23.6689 27.1636 22.2984 28.3494C21.1382 29.419 19.6558 30.0731 18.0836 30.209H17.8446C17.6493 30.2118 17.4541 30.1961 17.2616 30.1624L16.6787 30.0691C16.0249 29.8713 15.4261 29.524 14.9298 29.0548C14.3554 28.487 14.0179 27.7223 13.9854 26.9153V26.583C13.9581 26.5327 13.9421 26.477 13.9388 26.4198V26.2566C13.9706 25.0103 14.2335 23.7808 14.7141 22.6305C15.3699 21.0623 16.1824 19.5642 17.1392 18.1592C17.6458 17.382 18.1967 16.6346 18.789 15.9206C19.3564 15.2444 19.9219 14.6245 20.4854 14.061C21.7156 12.8324 23.1273 11.8002 24.6711 11.0004C25.69 10.4341 26.829 10.1184 27.994 10.0793C28.8371 10.0869 29.6551 10.3671 30.3258 10.878C30.6725 11.1922 30.9465 11.5782 31.1288 12.0091C31.311 12.44 31.3971 12.9055 31.381 13.3731V13.5596C31.3819 13.7956 31.3664 14.0313 31.3344 14.265C31.308 14.5056 31.2612 14.7436 31.1945 14.9762C31.1284 15.2561 31.0584 15.53 30.9846 15.7982C30.9098 16.0455 30.8223 16.2887 30.7223 16.5269C30.5998 16.8709 30.4774 17.1623 30.3725 17.3955C30.2675 17.6287 30.1743 17.7686 30.1101 17.7978C30.172 17.8067 30.2348 17.8067 30.2967 17.7978C30.3605 17.7892 30.4252 17.7892 30.4891 17.7978C30.8064 17.7884 31.1214 17.7415 31.4276 17.6579C31.9416 17.4952 32.4216 17.2404 32.8442 16.9058C33.4389 16.4628 33.9402 16.0547 34.3483 15.6816C34.7564 15.3027 35.1353 14.9238 35.4792 14.5507C35.5298 14.5259 35.5768 14.4945 35.6191 14.4574L35.759 14.3117L36.6568 13.513C36.9716 13.2332 37.333 12.93 37.7353 12.6211C38.4304 12.0863 39.1544 11.59 39.9039 11.1345C40.4962 10.7738 41.128 10.4824 41.7869 10.2659C42.0191 10.2058 42.2547 10.1591 42.4923 10.126C42.7103 10.0933 42.9305 10.0777 43.151 10.0793H43.4367C43.487 10.1067 43.5427 10.1226 43.5999 10.126H43.7165C44.5029 10.1742 45.2539 10.4701 45.8618 10.9713C46.1579 11.2065 46.3948 11.5077 46.5537 11.8509C46.7127 12.194 46.7891 12.5696 46.777 12.9475V13.0874C46.7625 13.8898 46.5264 14.6726 46.095 15.3493C45.7193 15.953 45.2511 16.494 44.7075 16.9525C44.4495 17.1525 44.1722 17.3263 43.8797 17.4713C43.6683 17.5814 43.4357 17.645 43.1977 17.6579H43.0577C42.8827 17.6421 42.7129 17.5898 42.5593 17.5045C42.4057 17.4191 42.2717 17.3026 42.1658 17.1623C41.9795 16.9111 41.8793 16.6065 41.8802 16.2937C41.8743 16.1986 41.8743 16.1032 41.8802 16.0081C41.894 15.9278 41.9175 15.8495 41.9501 15.7749C41.9836 15.5746 42.0403 15.379 42.1192 15.1919C42.1853 15.0247 42.2714 14.8662 42.3757 14.7197C42.5228 14.5039 42.6972 14.308 42.8945 14.1368C43.079 13.9837 43.2738 13.8435 43.4775 13.717C43.7791 13.5145 44.1119 13.3628 44.4627 13.2682C44.6943 13.2014 44.9331 13.1623 45.1739 13.1516H45.2672V13.1049C45.259 13.0724 45.259 13.0383 45.2672 13.0058V12.8892C45.2631 12.8322 45.2472 12.7766 45.2205 12.726C45.1241 12.6061 45.0028 12.5086 44.8649 12.4403C44.5721 12.326 44.2574 12.2783 43.9438 12.3004C43.4071 12.3678 42.9011 12.5884 42.4864 12.9359C41.8157 13.426 41.186 13.97 40.6035 14.5623C40.1954 14.9995 39.7873 15.4659 39.3792 15.9498C38.9707 16.4368 38.593 16.9489 38.2483 17.483C38.1528 17.6083 38.067 17.7409 37.9918 17.8794C37.9146 18.0199 37.8269 18.1543 37.7295 18.2816C37.4496 18.7538 37.1465 19.2668 36.8842 19.8323C36.6218 20.3978 36.3362 20.9633 36.0855 21.5287C35.7582 22.3291 35.4741 23.1464 35.2344 23.9772C35.0407 24.6191 34.931 25.2833 34.9079 25.9534C34.9028 26.1766 34.9343 26.3992 35.0012 26.6122C35.0488 26.7793 35.1465 26.9278 35.281 27.0377C35.3451 27.0669 35.4151 27.1019 35.4967 27.131C35.5935 27.1672 35.6967 27.1831 35.7999 27.1776C36.3889 27.1426 36.9653 26.9921 37.4963 26.7346C38.2397 26.4053 38.9485 26.003 39.6124 25.5337C40.245 25.1241 40.8506 24.6743 41.4254 24.187C41.9834 23.7272 42.4967 23.2158 42.9586 22.6597C44.5909 20.6815 46.0114 18.8607 47.2201 17.1973C48.2733 15.7213 49.4285 14.3207 50.6771 13.0058C50.9627 12.7551 51.2309 12.5161 51.4815 12.2771C51.7306 12.0446 51.9977 11.8322 52.2802 11.6417C52.5309 11.4551 52.7641 11.2919 52.9856 11.1462C53.1951 11.0116 53.4155 10.8946 53.6443 10.7964C54.0896 10.5564 54.5637 10.3742 55.0551 10.2542C55.5815 10.1389 56.1194 10.0841 56.6583 10.091C57.1914 10.0688 57.7247 10.1318 58.2381 10.2775C58.5352 10.3694 58.8135 10.5136 59.0601 10.7031C59.1716 10.7844 59.2733 10.8783 59.3632 10.9829C59.431 11.0643 59.503 11.1422 59.5789 11.2161C59.5847 11.1323 59.6086 11.0508 59.6489 10.9771C59.6967 10.8802 59.7513 10.7867 59.8121 10.6973C59.8462 10.666 59.8705 10.6255 59.882 10.5807C59.897 10.5356 59.9207 10.494 59.952 10.4583C59.987 10.4 60.0278 10.3358 60.0744 10.2717C60.1079 10.2209 60.147 10.1739 60.191 10.1318C60.3882 10.0356 60.608 9.99531 60.8264 10.0152C61.1879 10.0152 61.5843 10.0152 62.0274 10.0152H62.3072C62.8435 10.0152 63.3448 10.0152 63.817 10.0619C64.2892 10.1085 64.5399 10.1376 64.5691 10.2018C64.5982 10.2659 64.2309 11.0121 63.3682 12.4345C62.5054 13.8569 61.5726 15.4601 60.5641 17.2148C60.4803 17.3292 60.4024 17.4479 60.3309 17.5704C60.2668 17.6812 60.2085 17.7978 60.1444 17.9202C59.2 19.5525 58.3605 21.0837 57.626 22.5139C56.8914 23.9441 56.5222 24.8924 56.5183 25.3588C56.511 25.3993 56.511 25.4407 56.5183 25.4812C56.5347 25.5239 56.5583 25.5633 56.5883 25.5978C56.6558 25.6281 56.7261 25.6515 56.7982 25.6678C56.8699 25.6755 56.9422 25.6755 57.0139 25.6678C57.4069 25.673 57.789 25.5387 58.0924 25.2888C58.5487 24.9675 58.9759 24.6066 59.369 24.2104C59.5206 24.053 59.678 23.8781 59.8354 23.6915L60.3076 23.1086C60.4359 22.922 60.5641 22.718 60.7098 22.5256C60.8556 22.3332 60.9838 22.0825 61.1063 21.8668C61.1407 21.7989 61.1817 21.7344 61.2287 21.6745C61.2791 21.6031 61.3184 21.5244 61.3453 21.4413C61.564 21.0458 61.8239 20.6745 62.1206 20.3337C62.2088 20.2036 62.3355 20.1044 62.4829 20.05C62.6303 19.9957 62.7911 19.9888 62.9426 20.0305C63.2574 20.1529 63.1583 20.7359 62.6395 21.7794C62.0152 22.9699 61.2647 24.0898 60.4009 25.1198C59.868 25.8505 59.2836 26.5421 58.652 27.1893C58.0451 27.8197 57.3924 28.4043 56.6991 28.9382C56.2038 29.2929 55.6769 29.6013 55.1251 29.8593C54.6618 30.0793 54.1571 30.1985 53.6443 30.209ZM20.9984 20.6718C20.9671 20.768 20.9281 20.8616 20.8818 20.9516L20.7652 21.1906C20.672 21.4413 20.567 21.692 20.4621 21.9426C20.3572 22.1933 20.2464 22.444 20.1531 22.6947C19.9717 23.1143 19.8216 23.5469 19.7043 23.9888C19.6064 24.3503 19.5516 24.7221 19.541 25.0965C19.5339 25.2972 19.5738 25.4968 19.6576 25.6794C19.7204 25.8203 19.8294 25.9355 19.9666 26.0059L20.2464 26.105C20.3542 26.1372 20.4662 26.1529 20.5787 26.1516C21.0017 26.1384 21.4178 26.0413 21.8029 25.866C22.2798 25.6577 22.7364 25.406 23.1671 25.1139C23.5145 24.8612 23.8455 24.5867 24.1581 24.292C24.4928 23.9737 24.8008 23.6286 25.0792 23.2601C25.2016 23.1027 25.3881 22.8579 25.6213 22.5314C25.8545 22.205 26.0994 21.8494 26.35 21.4704C26.3825 21.4045 26.4216 21.342 26.4666 21.2839C26.5118 21.2238 26.5508 21.1593 26.5832 21.0915C26.8339 20.6834 27.0729 20.287 27.2944 19.9256C27.4581 19.6461 27.5985 19.3536 27.7142 19.0511C27.3994 19.0511 27.1312 18.9812 26.8689 18.9345C26.6201 18.8894 26.3813 18.8005 26.1635 18.6722C26.0348 18.6434 25.9136 18.5878 25.8079 18.509C25.6955 18.4323 25.5787 18.3622 25.4581 18.2991C25.051 18.0503 24.6835 17.7418 24.368 17.3839C24.0723 17.0308 23.8271 16.6384 23.6393 16.2179C23.3986 16.4826 23.1784 16.7652 22.9805 17.0632C22.7881 17.3431 22.6191 17.6112 22.4617 17.8619C22.3043 18.1126 22.2227 18.2875 22.1294 18.4449L21.8496 19.0278C21.6922 19.3135 21.5523 19.6108 21.424 19.8498C21.2957 20.0888 21.1558 20.4328 20.9984 20.7242V20.6718ZM56.0287 12.6677C55.9354 12.761 55.8479 12.8368 55.7722 12.9009L55.5098 13.0933C54.9313 13.5775 54.3968 14.112 53.9125 14.6906C53.3295 15.3843 52.4376 16.5094 51.2717 18.0834C51.021 18.4565 50.782 18.8413 50.543 19.2493L49.8609 20.4153C49.4448 21.2431 49.0901 22.1004 48.7999 22.9803C48.5682 23.6413 48.4346 24.3326 48.4035 25.0323C48.3984 25.229 48.4219 25.4254 48.4735 25.6153C48.5041 25.7449 48.5781 25.8601 48.6833 25.9418L48.8466 26.035C48.8966 26.0679 48.9558 26.0842 49.0156 26.0817C49.0336 26.1002 49.0555 26.1145 49.0797 26.1236C49.1039 26.1327 49.1298 26.1363 49.1555 26.1341H49.2954C49.521 26.1384 49.745 26.0944 49.9521 26.0049C50.1593 25.9154 50.3448 25.7825 50.4963 25.6153C50.8854 25.2393 51.2404 24.8296 51.5573 24.3911C51.6482 24.2987 51.7266 24.1948 51.7905 24.0821C51.8547 23.9713 51.9188 23.8722 51.9829 23.779C53.1721 21.8941 54.2778 20.0966 55.3 18.3866C56.3221 16.6765 57.319 15.0209 58.2906 13.4197C58.3702 13.2944 58.4329 13.1592 58.4771 13.0175C58.5015 12.9297 58.5326 12.8439 58.5704 12.761C58.5722 12.7043 58.5628 12.6479 58.5428 12.5949C58.5228 12.5419 58.4926 12.4933 58.4538 12.452C58.3748 12.3744 58.289 12.3042 58.1973 12.2421C58.1623 12.2421 58.139 12.2421 58.1273 12.2421C58.1031 12.2321 58.0758 12.2321 58.0515 12.2421C57.9848 12.2101 57.9143 12.1866 57.8417 12.1722C57.7719 12.1645 57.7016 12.1645 57.6318 12.1722C57.3902 12.1763 57.1513 12.2237 56.9264 12.3121C56.6051 12.4437 56.3031 12.6182 56.0287 12.8309V12.6677ZM28.2505 17.7511C28.3146 17.7511 28.3787 17.7045 28.437 17.6112L28.6294 17.3256C28.8076 16.9955 28.9559 16.6502 29.0725 16.2937C29.2151 15.893 29.3338 15.4842 29.4281 15.0695C29.4572 14.8771 29.4864 14.6906 29.498 14.4865C29.5097 14.2825 29.498 14.1076 29.498 13.9036V13.7637C29.4971 13.4022 29.4091 13.0463 29.2415 12.726C29.1226 12.5262 28.9513 12.3629 28.746 12.2538L28.5595 12.1838C28.4956 12.1753 28.4309 12.1753 28.3671 12.1838H28.1805C28.013 12.1853 27.8464 12.2089 27.685 12.2538L27.1429 12.417C26.7763 12.5886 26.4366 12.8125 26.1343 13.0816C25.8294 13.3334 25.5519 13.6167 25.3065 13.9269C25.159 14.1054 25.0338 14.3012 24.9334 14.5099C24.8477 14.6734 24.7849 14.848 24.7469 15.0287V15.052C24.7547 15.2565 24.8106 15.4562 24.9101 15.635C25.0326 15.8719 25.1833 16.0931 25.359 16.2937C25.6562 16.6826 26.0122 17.0229 26.4142 17.3023C26.7958 17.5842 27.2397 17.7702 27.7083 17.8444H27.994C28.0119 17.8436 28.0295 17.839 28.0456 17.831C28.0616 17.823 28.0758 17.8116 28.0873 17.7978H28.2738L28.2505 17.7511ZM72.2234 10.0327C72.2855 10.091 72.2156 10.3417 72.0135 10.7847C71.8095 11.2219 71.5646 11.6941 71.2848 12.1955L71.1915 12.3587C71.1546 12.4116 71.1233 12.4683 71.0983 12.5278C70.8417 12.965 70.6086 13.3673 70.387 13.7287C70.2763 13.9425 70.1349 14.1389 69.9673 14.3117C69.7537 14.3788 69.5322 14.418 69.3085 14.4282C68.8691 14.4765 68.4273 14.4999 67.9852 14.4982H67.5189C67.1399 14.4982 66.8018 14.4982 66.5045 14.4516C66.3153 14.4483 66.1295 14.4004 65.9623 14.3117C65.8982 14.2126 65.9623 13.9619 66.1547 13.5538C66.3471 13.1457 66.5745 12.691 66.8601 12.1897C66.8885 12.0998 66.9276 12.0136 66.9767 11.9332C67.0233 11.8516 67.0758 11.7641 67.1399 11.6708C67.3925 11.2822 67.6199 10.9208 67.822 10.5865C68.026 10.2775 68.1776 10.1027 68.2709 10.0735C68.4778 10.0151 68.6914 9.98376 68.9063 9.98024C69.2677 9.94526 69.67 9.92777 70.1072 9.92777H70.2471C70.7193 9.92777 71.1565 9.92777 71.5646 9.92777C71.9727 9.92777 72.1942 9.98607 72.2234 10.0502V10.0327ZM130.52 5.95197C131.143 5.73044 131.726 5.49726 132.269 5.24658C132.811 4.99591 133.306 4.74523 133.778 4.49456C135.663 3.39082 136.934 2.38618 137.591 1.48064C138.25 0.571222 138.757 0.145659 139.194 0.209784C139.194 0.209784 139.247 0.256423 139.264 0.256423C139.653 0.411879 139.495 1.02399 138.792 2.09275C137.927 3.37182 136.915 4.54566 135.778 5.59053C134.891 6.42075 133.956 7.19932 132.98 7.92238C131.975 8.6658 130.892 9.29721 129.75 9.80535C129.033 10.1493 128.345 10.4524 127.704 10.7031C127.081 10.9377 126.445 11.1324 125.798 11.2861C125.261 11.4085 124.713 11.5134 124.148 11.5892C123.555 11.6708 122.957 11.7097 122.358 11.7058C121.921 11.7058 121.443 11.7058 120.924 11.6592C120.379 11.6261 119.836 11.5638 119.298 11.4726L122.317 7.4735C123.126 7.50898 123.936 7.4934 124.742 7.42686C125.465 7.37008 126.182 7.26098 126.888 7.1004C127.469 7.00133 128.042 6.85908 128.602 6.67484C129.185 6.48829 129.82 6.26677 130.514 6.01609L130.52 5.95197Z" fill="white"/>
</g>
<defs>
<clipPath id="clip0_946_295">
<rect width="139.468" height="40.3002" fill="white"/>
</clipPath>
</defs>
</svg>
