<svg width="164" height="47" viewBox="0 0 164 47" fill="none" xmlns="http://www.w3.org/2000/svg">
<g clip-path="url(#clip0_946_307)">
<path d="M21.4459 10.5798V21.1597H10.7287C10.7287 18.3537 11.8578 15.6627 13.8677 13.6786C15.8776 11.6945 18.6036 10.5798 21.4459 10.5798V8.46146e-08C15.76 -0.000501419 10.3066 2.22829 6.28487 6.19628C2.26319 10.1643 0.00253722 15.5466 0 21.1597H10.7172C10.7172 23.9656 9.5881 26.6566 7.57822 28.6407C5.56835 30.6248 2.84239 31.7395 0 31.7395V42.3193C8.94505 42.3193 19.2125 35.739 21.3752 23.8367C21.377 23.8288 21.3815 23.8218 21.388 23.8167C21.3943 23.8118 21.4023 23.809 21.4105 23.809C21.4188 23.809 21.4267 23.8118 21.4331 23.8167C21.4395 23.8218 21.444 23.8288 21.4459 23.8367V42.3155H32.1631V10.5798H21.4459Z" fill="white"/>
<path d="M40.2617 14.0623H42.5927V18.5548H47.5457V14.0623H49.8766V25.3335H47.5457V20.7445H42.5927V25.3335H40.2617V14.0623Z" fill="white"/>
<path d="M51.8887 17.3899H54.0915V22.0714L57.6932 17.3899H59.6549V25.3247H57.4673V20.6432L53.8656 25.3267H51.8887V17.3899Z" fill="white"/>
<path d="M60.6201 25.3267L64.3501 21.295L61.1503 17.3899H63.707L66.329 20.6281V17.3899H68.5317V20.5846L71.1192 17.3955H73.6741L70.4742 21.3006L74.2214 25.3323H71.4886L68.5317 22.1565V25.3267H66.329V22.115L63.353 25.3267H60.6201Z" fill="white"/>
<path d="M78.4828 25.5011C76.0235 25.5011 74.2725 23.7554 74.2725 21.3447C74.2725 18.9794 76.058 17.2167 78.5019 17.2167C80.8655 17.2167 82.8098 18.8849 82.6988 21.868H76.4254C76.5211 22.8127 77.2292 23.6137 78.5957 23.6137C79.3612 23.6137 80.0425 23.2812 80.3009 22.7409H82.5974C82.1171 24.3467 80.5248 25.5011 78.4828 25.5011ZM76.5059 20.4378H80.2836C80.1994 20.0183 79.9676 19.6417 79.6294 19.3745C79.2911 19.1073 78.868 18.9666 78.4349 18.9775C77.4226 18.9812 76.7144 19.5688 76.5059 20.4416V20.4378Z" fill="white"/>
<path d="M84.21 17.3899H89.7599V19.2943H86.4126V25.3267H84.21V17.3899Z" fill="white"/>
<path d="M94.5606 25.5028C93.7323 25.4964 92.924 25.2482 92.2381 24.789C91.5522 24.3299 91.0194 23.6807 90.7067 22.9231C90.394 22.1655 90.3155 21.3335 90.4812 20.5319C90.6468 19.7303 91.049 18.9951 91.6372 18.4189C92.2254 17.8427 92.9733 17.4513 93.7866 17.294C94.6 17.1366 95.4424 17.2206 96.2071 17.5351C96.9718 17.8496 97.6251 18.3806 98.0856 19.0612C98.5452 19.7419 98.7904 20.5416 98.7904 21.3597C98.7904 21.9065 98.6809 22.4481 98.4684 22.9529C98.255 23.4578 97.9433 23.9161 97.5502 24.3013C97.1571 24.6865 96.69 24.991 96.1771 25.1973C95.6642 25.4035 95.1148 25.5073 94.5606 25.5028ZM94.5606 23.4719C95.7185 23.4719 96.5553 22.5821 96.5553 21.3597C96.5553 20.1373 95.7185 19.2494 94.5606 19.2494C93.4031 19.2494 92.5514 20.1373 92.5514 21.3597C92.5514 22.5821 93.405 23.4757 94.5606 23.4757V23.4719Z" fill="white"/>
<path d="M100.225 17.3924H102.428V18.2804C102.797 17.7721 103.65 17.2167 104.759 17.2167C106.898 17.2167 108.538 19.106 108.538 21.3598C108.538 23.6137 106.898 25.4992 104.759 25.4992C103.65 25.4992 102.797 24.9437 102.428 24.4355V28.6429H100.225V17.3924ZM104.277 19.2023C103.071 19.2023 102.251 20.1224 102.251 21.3598C102.251 22.5973 103.071 23.5193 104.277 23.5193C105.482 23.5193 106.303 22.5992 106.303 21.3598C106.303 20.1204 105.482 19.2023 104.277 19.2023Z" fill="white"/>
<path d="M113.835 25.5028C113.007 25.4961 112.198 25.2474 111.513 24.7879C110.827 24.3284 110.295 23.6788 109.982 22.9209C109.67 22.1631 109.592 21.3309 109.758 20.5294C109.924 19.7279 110.327 18.9928 110.916 18.4169C111.505 17.841 112.253 17.4501 113.066 17.2934C113.879 17.1367 114.722 17.2212 115.487 17.5364C116.251 17.8516 116.905 18.3832 117.363 19.0642C117.823 19.7453 118.067 20.5453 118.067 21.3635C118.066 21.9102 117.957 22.4514 117.743 22.956C117.53 23.4606 117.218 23.9185 116.825 24.3033C116.431 24.6882 115.965 24.9922 115.452 25.1981C114.938 25.404 114.39 25.5076 113.835 25.5028ZM113.835 23.4719C114.993 23.4719 115.83 22.5821 115.83 21.3597C115.83 20.1374 114.993 19.2494 113.835 19.2494C112.678 19.2494 111.826 20.1374 111.826 21.3597C111.826 22.5821 112.678 23.4757 113.835 23.4757V23.4719Z" fill="white"/>
<path d="M119.065 23.4185C119.726 23.4185 120.191 22.9122 120.191 21.3724V17.3899H127.105V23.4185H128.405V27.2763H126.43V25.3267H120.833V27.2783H118.856V23.4185H119.065ZM122.394 21.499C122.394 22.4984 122.25 22.9746 121.992 23.4185H124.902V19.2943H122.394V21.499Z" fill="white"/>
<path d="M133.349 25.5029C132.236 25.5029 131.169 25.0664 130.382 24.2894C129.595 23.5124 129.152 22.4586 129.152 21.3598C129.152 20.261 129.595 19.2072 130.382 18.4302C131.169 17.6532 132.236 17.2167 133.349 17.2167C135.57 17.2167 137.032 18.5977 137.466 20.4284H135.183C134.877 19.7142 134.282 19.191 133.349 19.191C132.201 19.191 131.34 20.0486 131.34 21.3655C131.34 22.6823 132.192 23.54 133.349 23.54C134.282 23.54 134.881 23.0167 135.183 22.3026H137.466C137.032 24.1257 135.57 25.5029 133.349 25.5029Z" fill="white"/>
<path d="M138.894 17.3899H141.096V20.6016L143.813 17.3899H146.434L143.106 21.295L146.981 25.3267H144.15L141.088 22.115V25.3267H138.894V17.3899Z" fill="white"/>
<path d="M150.568 17.2167C151.678 17.2167 152.53 17.7721 152.883 18.2804V17.3924H155.087V25.3273H152.883V24.4375C152.53 24.9457 151.678 25.5011 150.568 25.5011C148.43 25.5011 146.79 23.6119 146.79 21.358C146.79 19.104 148.43 17.2167 150.568 17.2167ZM151.035 19.2023C149.829 19.2023 149.01 20.1224 149.01 21.3598C149.01 22.5973 149.829 23.5193 151.035 23.5193C152.24 23.5193 153.061 22.5992 153.061 21.3598C153.061 20.1204 152.24 19.2023 151.035 19.2023Z" fill="white"/>
<path d="M158.751 22.3095C158.312 22.1137 157.941 21.7965 157.682 21.3965C157.422 20.9965 157.286 20.5307 157.289 20.0556C157.289 18.5329 158.349 17.3899 160.248 17.3899H163.799V25.3247H161.597V22.8177H160.841L158.477 25.3267H155.989L158.751 22.3095ZM161.597 21.072V19.1507H160.366C159.708 19.1507 159.369 19.5286 159.369 20.152C159.369 20.7376 159.821 21.072 160.384 21.072H161.597Z" fill="white"/>
<path d="M43.7993 37.9753C43.1493 37.7126 42.5938 37.2638 42.2043 36.6866C41.8148 36.1096 41.6092 35.4307 41.6138 34.7372C41.6138 32.6099 43.1085 31.0551 45.5045 31.0551H49.4125V42.3206H47.072V38.4231H46.2509L42.7391 42.3206H39.9258L43.7993 37.9753ZM43.8797 34.7372C43.8797 35.6818 44.54 36.3242 45.5199 36.3242H47.072V33.1502H45.5275C44.54 33.154 43.8797 33.7888 43.8797 34.741V34.7372Z" fill="white"/>
<path d="M51.4209 34.3762H53.6237V35.2661C53.993 34.7579 54.8466 34.2024 55.9547 34.2024C58.0943 34.2024 59.7344 36.0917 59.7344 38.3437C59.7344 40.5956 58.0943 42.5 55.9547 42.5C54.8466 42.5 53.993 41.9446 53.6237 41.4364V45.6362H51.4209V34.3762ZM55.4724 36.1861C54.2667 36.1861 53.4476 37.1062 53.4476 38.3437C53.4476 39.5811 54.2667 40.5031 55.4724 40.5031C56.678 40.5031 57.4991 39.583 57.4991 38.3437C57.4991 37.1043 56.678 36.1918 55.4724 36.1918V36.1861Z" fill="white"/>
<path d="M63.481 37.7381V42.3178H61.2783V34.3828H63.1481L65.8005 37.6683L68.4339 34.3828H70.2999V42.3178H68.0971V37.7381L65.8005 40.6098L63.481 37.7381Z" fill="white"/>
<path d="M75.6812 34.2168C76.7911 34.2168 77.6428 34.7723 77.9969 35.2805V34.385H80.1997V42.3198H77.9969V41.43C77.6428 41.9382 76.7911 42.4937 75.6812 42.4937C73.5435 42.4937 71.9033 40.6044 71.9033 38.3505C71.9033 36.0967 73.5435 34.2168 75.6812 34.2168ZM76.1481 36.2005C74.9424 36.2005 74.1233 37.1207 74.1233 38.3581C74.1233 39.5956 74.9424 40.5176 76.1481 40.5176C77.3538 40.5176 78.1748 39.5974 78.1748 38.3581C78.1748 37.1187 77.3538 36.2005 76.1577 36.2005H76.1481Z" fill="white"/>
<path d="M82.1484 34.3762H84.3512V35.2661C84.7206 34.7579 85.5741 34.2024 86.6822 34.2024C88.8218 34.2024 90.462 36.0917 90.462 38.3437C90.462 40.5956 88.8218 42.5 86.6861 42.5C85.5779 42.5 84.7244 41.9446 84.3551 41.4364V45.6362H82.1484V34.3762ZM86.2 36.1861C84.9943 36.1861 84.1752 37.1062 84.1752 38.3437C84.1752 39.5811 84.9943 40.5031 86.2 40.5031C87.4057 40.5031 88.2266 39.583 88.2266 38.3437C88.2266 37.1043 87.4057 36.1918 86.2 36.1918V36.1861Z" fill="white"/>
<path d="M92.0713 34.3829H94.2744V37.606L96.9917 34.3829H99.6115L96.2831 38.2938L100.159 42.3179H97.3286L94.266 39.1061V42.3179H92.0713V34.3829Z" fill="white"/>
<path d="M103.889 34.2168C104.999 34.2168 105.851 34.7723 106.205 35.2805V34.385H108.407V42.3198H106.209V41.43C105.855 41.9382 105.003 42.4937 103.893 42.4937C101.755 42.4937 100.115 40.6044 100.115 38.3505C100.115 36.0967 101.751 34.2168 103.889 34.2168ZM104.356 36.2005C103.151 36.2005 102.33 37.1207 102.33 38.3581C102.33 39.5956 103.151 40.5176 104.356 40.5176C105.562 40.5176 106.383 39.5974 106.383 38.3581C106.383 37.1187 105.562 36.2005 104.356 36.2005Z" fill="white"/>
</g>
<defs>
<clipPath id="clip0_946_307">
<rect width="163.8" height="46.2" fill="white"/>
</clipPath>
</defs>
</svg>
