<svg width="93" height="55" viewBox="0 0 93 55" fill="none" xmlns="http://www.w3.org/2000/svg">
<g id="Group 1948754293">
<g id="Group">
<path id="Vector" d="M22.7833 54.554C27.8668 54.554 31.226 51.1729 31.226 46.4205C31.226 41.5144 27.6894 38.2651 22.7833 38.2651C17.7217 38.2651 14.3845 41.6471 14.3845 46.4205C14.3845 51.3275 17.8992 54.554 22.7833 54.554ZM55.2128 54.4882C59.7218 54.4882 61.9759 52.3 61.9759 47.9903V38.5084H58.8372V47.2384C58.8372 50.2664 57.6882 51.5041 55.2128 51.5041C52.7373 51.5041 51.6103 50.2664 51.6103 47.2384V38.5084H48.4496V47.9903C48.4496 52.3 50.7925 54.4882 55.2128 54.4882ZM2.05558 38.5752V54.2448H5.17227V48.8301H12.2666V46.0006H5.17227V41.4696H13.5043V38.5752H2.05558ZM67.2782 54.2448V45.4481L71.8311 51.548H73.003L77.5331 45.4042V54.2448H80.6059V38.5084H78.9483L72.4285 47.4149L65.8639 38.5084H64.2282V54.2448H67.2782ZM33.2078 54.2448H36.3236V49.7806H39.551L42.6668 54.2448H46.4688L42.7775 49.1833C44.8111 48.3654 45.8934 46.6858 45.8934 44.1665C45.8934 40.564 43.6832 38.5752 39.573 38.5752H33.2078V54.2448ZM22.7833 51.6148C19.6894 51.6148 17.6339 49.4485 17.6339 46.4205C17.6339 43.2599 19.7992 41.2052 22.7833 41.2052C25.922 41.2052 27.9547 43.3706 27.9547 46.4205C27.9547 49.5812 25.7893 51.6148 22.7833 51.6148ZM36.3236 41.3598H39.3077C41.5837 41.3598 42.6229 42.3762 42.6229 44.3211C42.6229 45.9787 41.4959 47.1057 39.0643 47.1057H36.3236V41.3598ZM59.4117 19.4427V29.2997L50.0194 19.354H48.4496V35.1124H51.5444V25.2553L60.8928 35.2002H62.5065V19.4427H59.4117ZM1.91237 19.4427V35.1124H13.6475V32.3057H4.9395V28.7252H11.9679V26.0503H4.9395V22.2713H13.2944V19.4427H1.91237ZM65.3368 22.382H70.3316V35.1124H73.5142V22.382H78.509V19.4427H65.3368V22.382ZM83.799 33.8817V34.493C83.7999 34.6872 83.857 34.8383 83.9721 34.9463C84.0863 35.0553 84.2541 35.1106 84.4763 35.1124C84.6951 35.1106 84.8611 35.0553 84.9753 34.9463C85.0895 34.8383 85.1466 34.6872 85.1474 34.493V33.8817C85.1466 33.6875 85.0895 33.5364 84.9753 33.4284C84.8611 33.3195 84.6951 33.2641 84.4763 33.2623C84.2541 33.2641 84.0863 33.3195 83.9721 33.4284C83.857 33.5364 83.7999 33.6875 83.799 33.8817ZM86.2139 33.2975H85.5401C85.5278 33.2975 85.519 33.2992 85.5137 33.3045C85.5093 33.3089 85.5067 33.3177 85.5076 33.33V35.0447C85.5067 35.057 85.5093 35.0649 85.5137 35.0702C85.519 35.0755 85.5278 35.0772 85.5401 35.0772H85.5928C85.6034 35.0772 85.6113 35.0755 85.6157 35.0702C85.6201 35.0649 85.6227 35.057 85.6227 35.0447V34.385H86.2139C86.3861 34.3841 86.5214 34.3358 86.6189 34.2418C86.7164 34.1469 86.7664 34.0143 86.7682 33.8439C86.7664 33.6708 86.7163 33.5373 86.618 33.4416C86.5204 33.3467 86.3852 33.2984 86.2139 33.2975ZM83.0084 33.2975H82.3338C82.3215 33.2975 82.3127 33.2992 82.3083 33.3045C82.3039 33.3089 82.3013 33.3177 82.3013 33.33V35.0447C82.3013 35.057 82.3039 35.0649 82.3083 35.0702C82.3127 35.0755 82.3215 35.0772 82.3338 35.0772H82.3865C82.3979 35.0772 82.405 35.0755 82.4102 35.0702C82.4146 35.0649 82.4164 35.057 82.4164 35.0447V34.385H83.0084C83.1806 34.3841 83.3159 34.3358 83.4134 34.2418C83.5109 34.1469 83.5601 34.0143 83.5628 33.8439C83.5601 33.6708 83.5109 33.5373 83.4125 33.4416C83.3141 33.3467 83.1797 33.2984 83.0084 33.2975ZM80.4943 35.0447L80.1781 34.4201C80.1403 34.3455 80.0964 34.2848 80.0455 34.2392C79.9954 34.1935 79.933 34.1619 79.8575 34.1452L80.4662 33.33C80.4724 33.3212 80.475 33.3133 80.4733 33.3072C80.4706 33.301 80.4644 33.2975 80.4513 33.2975H80.3942C80.3758 33.2975 80.3626 33.2993 80.3538 33.3028C80.345 33.3063 80.3362 33.3142 80.3283 33.3247L79.7371 34.125L79.3629 34.1223V33.33C79.3638 33.3177 79.3612 33.3089 79.3568 33.3045C79.3524 33.2992 79.3445 33.2975 79.3331 33.2975H79.2804C79.2689 33.2975 79.2601 33.2992 79.2548 33.3045C79.2504 33.3089 79.2478 33.3177 79.2487 33.33V35.0447C79.2478 35.057 79.2504 35.0649 79.2548 35.0702C79.2601 35.0746 79.2689 35.0772 79.2804 35.0772H79.3331C79.3445 35.0772 79.3524 35.0746 79.3568 35.0702C79.3612 35.0649 79.3638 35.057 79.3629 35.0447V34.2269H79.6818C79.7846 34.2269 79.8654 34.2453 79.9234 34.284C79.9822 34.3226 80.0314 34.3833 80.0701 34.4658L80.3634 35.05C80.3696 35.0605 80.3766 35.0676 80.3845 35.072C80.3933 35.0755 80.4074 35.0772 80.4258 35.0772H80.4768C80.4882 35.0772 80.4961 35.0737 80.4987 35.0676C80.5005 35.0614 80.4996 35.0535 80.4943 35.0447ZM82.0641 33.2975H82.0017C81.985 33.2966 81.9719 33.2984 81.9649 33.3019C81.9561 33.3045 81.949 33.3124 81.942 33.3247L81.3473 34.2242L80.7535 33.3247C80.7482 33.3124 80.7412 33.3045 80.7333 33.3019C80.7254 33.2984 80.7131 33.2966 80.6964 33.2975H80.6279C80.6173 33.2975 80.6103 33.301 80.6068 33.3072C80.6041 33.3133 80.6059 33.3212 80.6103 33.33L81.2814 34.3305L80.8519 35.0438C80.8431 35.057 80.8439 35.0649 80.8492 35.0693C80.8536 35.0746 80.8624 35.0772 80.8747 35.0772H80.945C80.9564 35.0772 80.9643 35.0746 80.9687 35.0693C80.9731 35.0649 80.9766 35.057 80.9845 35.0438L81.4026 34.3446L82.0817 33.33C82.0869 33.3212 82.0887 33.3133 82.0852 33.3072C82.0826 33.301 82.0755 33.2975 82.0641 33.2975ZM88.1201 33.2975H86.9166C86.9044 33.2966 86.8965 33.2993 86.8912 33.3036C86.8868 33.3089 86.8841 33.3177 86.8841 33.33V33.3748C86.8841 33.3853 86.8868 33.3932 86.8912 33.3976C86.8965 33.402 86.9044 33.4047 86.9166 33.4047H87.4613V35.0438C87.4604 35.0561 87.463 35.0649 87.4674 35.0693C87.4727 35.0746 87.4815 35.0772 87.4938 35.0772H87.5465C87.557 35.0772 87.5649 35.0746 87.5693 35.0693C87.5746 35.0649 87.5763 35.0561 87.5763 35.0438V33.4047H88.1201C88.1324 33.4047 88.1412 33.402 88.1456 33.3976C88.1508 33.3932 88.1535 33.3853 88.1526 33.3748V33.33C88.1535 33.3177 88.1508 33.3089 88.1456 33.3036C88.1412 33.2993 88.1324 33.2966 88.1201 33.2975ZM85.0324 33.8817V34.493C85.0315 34.6547 84.984 34.7803 84.8892 34.869C84.7943 34.9586 84.6564 35.0034 84.4763 35.0043C84.2918 35.0034 84.1531 34.9586 84.0573 34.869C83.9624 34.7803 83.9141 34.6547 83.9141 34.493V33.8817C83.9141 33.72 83.9624 33.5944 84.0573 33.5048C84.1531 33.4161 84.2918 33.3713 84.4763 33.3695C84.6564 33.3713 84.7943 33.4161 84.8892 33.5048C84.984 33.5944 85.0315 33.72 85.0324 33.8817ZM86.2042 34.2778H85.6227V33.4047H86.2042C86.3421 33.4055 86.4502 33.4451 86.5292 33.5206C86.6065 33.597 86.6469 33.7051 86.6478 33.8439C86.6469 33.9809 86.6065 34.0881 86.5292 34.1628C86.4502 34.2383 86.3421 34.2769 86.2042 34.2778ZM82.9988 34.2778H82.4164V33.4047H82.9988C83.1358 33.4055 83.2448 33.4451 83.3229 33.5206C83.4011 33.597 83.4406 33.7051 83.4424 33.8439C83.4406 33.9809 83.4011 34.0881 83.3229 34.1628C83.2448 34.2383 83.1358 34.2769 82.9988 34.2778ZM79.2487 32.3127C79.2487 32.2767 79.2768 32.2486 79.3119 32.2486H92.7109C92.7451 32.2486 92.7741 32.2767 92.7741 32.3127V32.4893C92.7741 32.5245 92.7451 32.5526 92.7109 32.5526H79.3119C79.2768 32.5526 79.2487 32.5245 79.2487 32.4893V32.3127ZM79.6712 29.0871H80.641C80.641 29.0871 80.8659 29.0924 80.8949 29.0924C80.9529 29.0924 80.9959 29.1012 81.0223 29.1179C81.0495 29.1354 81.0636 29.1706 81.0636 29.225V31.1084C81.0636 31.1321 81.0592 31.1515 81.0513 31.1664C81.0434 31.1804 81.032 31.1919 81.017 31.1989C81.003 31.2068 80.9845 31.2112 80.9643 31.213C80.9432 31.2156 80.9204 31.2165 80.8949 31.2165C80.8659 31.2165 80.8361 31.2147 80.8062 31.2103C80.7763 31.2059 80.7491 31.1998 80.7245 31.191C80.7008 31.1822 80.6797 31.169 80.6639 31.1541C80.648 31.1383 80.6402 31.119 80.6402 31.0961V29.4499H79.6712V31.0961C79.6712 31.1207 79.6625 31.14 79.6467 31.1559C79.63 31.1708 79.6089 31.1831 79.5834 31.1919C79.5579 31.2015 79.5307 31.2077 79.5008 31.2112C79.471 31.2147 79.4446 31.2165 79.4191 31.2165C79.3901 31.2165 79.3656 31.2156 79.3445 31.213C79.3234 31.2103 79.3058 31.205 79.2909 31.198C79.2768 31.1901 79.2654 31.1787 79.2592 31.1646C79.2522 31.1497 79.2478 31.1312 79.2478 31.1084V29.225C79.2478 29.1794 79.2619 29.146 79.2891 29.1249C79.3172 29.1038 79.3603 29.0924 79.4191 29.0924C79.4481 29.0924 79.6712 29.0871 79.6712 29.0871ZM83.908 31.003C83.8913 31.0539 83.8728 31.0944 83.8544 31.1225C83.8351 31.1515 83.814 31.1725 83.7903 31.1866C83.7665 31.2007 83.7411 31.2086 83.7121 31.2121C83.684 31.2147 83.6506 31.2165 83.6137 31.2165C83.5856 31.2165 83.5601 31.2112 83.5364 31.2015C83.5118 31.191 83.4933 31.1752 83.4801 31.1523C83.4661 31.1304 83.4591 31.1005 83.4582 31.0645C83.4573 31.0276 83.4661 30.9828 83.4845 30.9283L84.0397 29.3445C84.0634 29.2742 84.0907 29.2206 84.1223 29.1838C84.153 29.1469 84.1855 29.1205 84.2207 29.1038C84.2549 29.0871 84.2901 29.0774 84.3279 29.0757H84.6151C84.6529 29.0774 84.688 29.0871 84.7223 29.1038C84.7574 29.1205 84.7899 29.1469 84.8206 29.1838C84.8514 29.2206 84.8795 29.2742 84.9033 29.3445L85.4584 30.9283C85.4769 30.9828 85.4857 31.0276 85.4848 31.0645C85.4839 31.1005 85.4769 31.1304 85.4637 31.1523C85.4497 31.1752 85.4312 31.191 85.4075 31.2015C85.3829 31.2112 85.3574 31.2165 85.3293 31.2165C85.2924 31.2165 85.2599 31.2147 85.2309 31.2121C85.2019 31.2086 85.1765 31.2007 85.1527 31.1866C85.129 31.1725 85.1079 31.1515 85.0895 31.1225C85.0702 31.0944 85.0526 31.0539 85.035 31.003L84.522 29.4859C84.5176 29.4701 84.5124 29.4587 84.508 29.4499C84.5036 29.442 84.4974 29.4376 84.4895 29.4376H84.4535C84.4456 29.4376 84.4394 29.442 84.435 29.4499C84.4298 29.4587 84.4254 29.4701 84.4201 29.4859L83.908 31.003ZM91.2834 30.779H90.325L90.2495 31.003C90.2328 31.0539 90.2143 31.0944 90.1959 31.1225C90.1765 31.1515 90.1554 31.1725 90.1317 31.1866C90.1089 31.2007 90.0825 31.2086 90.0536 31.2121C90.0254 31.2147 89.9929 31.2165 89.9552 31.2165C89.9279 31.2165 89.9016 31.2121 89.8779 31.2015C89.8533 31.1927 89.8348 31.1769 89.8217 31.1541C89.8076 31.1312 89.8006 31.1023 89.7997 31.0645C89.7988 31.0276 89.8094 30.9766 89.8287 30.9231L90.3812 29.348C90.4049 29.2777 90.4322 29.2242 90.4629 29.1873C90.4945 29.1504 90.527 29.124 90.5613 29.1073C90.5956 29.0906 90.6316 29.081 90.6685 29.0792H90.9417C90.9785 29.081 91.0146 29.0906 91.0488 29.1073C91.0831 29.124 91.1165 29.1504 91.1472 29.1873C91.178 29.2242 91.2061 29.2777 91.2298 29.348L91.7832 30.9283C91.8025 30.9819 91.8113 31.0276 91.8104 31.0645C91.8096 31.1023 91.8016 31.1312 91.7885 31.1541C91.7753 31.1769 91.756 31.1927 91.7323 31.2015C91.7085 31.2121 91.6822 31.2165 91.655 31.2165C91.6172 31.2165 91.5847 31.2147 91.5557 31.2121C91.5267 31.2086 91.5003 31.2007 91.4766 31.1866C91.4529 31.1725 91.4318 31.1515 91.4134 31.1225C91.394 31.0944 91.3782 31.0566 91.3607 31.003L91.2834 30.779ZM88.193 29.9603H89.0908C89.1268 29.9612 89.1505 29.962 89.1611 29.9629V29.2189C89.1611 29.1969 89.169 29.1767 89.1848 29.1591C89.2006 29.1416 89.2199 29.1258 89.2445 29.1135C89.2691 29.1012 89.2972 29.0915 89.3271 29.0845C89.3578 29.0783 89.3877 29.0748 89.4167 29.0748C89.4747 29.0748 89.5168 29.0836 89.544 29.1003C89.5704 29.1179 89.5845 29.153 89.5845 29.2075V31.1084C89.5845 31.1321 89.581 31.1515 89.5722 31.1664C89.5643 31.1804 89.5528 31.1919 89.5388 31.1989C89.5239 31.2068 89.5063 31.2112 89.4852 31.213C89.4641 31.2156 89.4413 31.2165 89.4167 31.2165C89.3877 31.2165 89.3578 31.2147 89.328 31.2103C89.2981 31.2059 89.2709 31.1998 89.2463 31.191C89.2217 31.1822 89.2015 31.1699 89.1857 31.1541C89.1699 31.1383 89.1611 31.119 89.1611 31.0961V30.3257H88.193V31.0961C88.193 31.1198 88.1842 31.14 88.1676 31.1559C88.1517 31.1708 88.1306 31.1831 88.1052 31.1927C88.0797 31.2015 88.0525 31.2077 88.0226 31.2112C87.9927 31.2147 87.9655 31.2165 87.94 31.2165C87.9119 31.2165 87.8864 31.2147 87.8653 31.2121C87.8442 31.2103 87.8267 31.205 87.8118 31.198C87.7977 31.1901 87.7872 31.1796 87.7801 31.1646C87.7731 31.1497 87.7696 31.1312 87.7696 31.1084V29.2075C87.7696 29.1618 87.7837 29.1293 87.8109 29.1073C87.8381 29.0854 87.8812 29.0748 87.94 29.0748C87.9699 29.0748 87.9989 29.0774 88.0296 29.0827C88.0595 29.088 88.0859 29.0959 88.1105 29.1064C88.1342 29.1179 88.1535 29.1319 88.1693 29.1512C88.1851 29.1697 88.193 29.1925 88.193 29.2189V29.9603ZM86.914 30.432V31.1084C86.914 31.1321 86.9202 31.1514 86.9325 31.1655C86.9456 31.1804 86.9614 31.1919 86.9808 31.1989C87.0001 31.2068 87.0229 31.2112 87.0484 31.213L87.2065 31.2121C87.232 31.2103 87.254 31.205 87.2733 31.198C87.2935 31.1901 87.3084 31.1787 87.3207 31.1646C87.3321 31.1497 87.3374 31.1312 87.3374 31.1084V29.2575C87.333 29.2268 87.3277 29.2101 87.3207 29.1917C87.3128 29.1741 87.3005 29.1574 87.2847 29.1416C87.268 29.1258 87.2469 29.1126 87.2215 29.102C87.196 29.0924 87.1635 29.0871 87.1239 29.0871H86.408C86.3588 29.0871 86.2569 29.1003 86.1884 29.1152C86.1207 29.1302 86.054 29.153 85.989 29.1829C85.924 29.2127 85.866 29.2531 85.8151 29.3041C85.765 29.3542 85.7237 29.4165 85.693 29.4903C85.6622 29.565 85.6464 29.6537 85.6464 29.7565C85.6464 29.8505 85.6578 29.9278 85.6806 29.9928C85.7035 30.0587 85.7351 30.1158 85.7729 30.1632C85.8116 30.2115 85.8563 30.2519 85.9073 30.2835C85.9582 30.3161 86.0127 30.3415 86.0681 30.3617L85.6631 31.0513C85.6508 31.0733 85.6464 31.0926 85.6499 31.1093C85.6526 31.1251 85.6613 31.14 85.6754 31.1523C85.6894 31.1646 85.707 31.1752 85.7281 31.1831C85.7492 31.191 85.7711 31.198 85.794 31.2033L85.917 31.2165C85.953 31.2165 85.989 31.2103 86.025 31.1971C86.061 31.184 86.0883 31.1611 86.1067 31.1295L86.5038 30.432H86.914ZM82.3812 31.2077C82.238 31.2077 82.116 31.1945 82.0141 31.169C81.9122 31.1427 81.8261 31.1067 81.7567 31.0601C81.6873 31.0135 81.6319 30.9582 81.5898 30.8932C81.5485 30.8282 81.5169 30.7561 81.4949 30.6771C81.4729 30.598 81.4589 30.5137 81.4519 30.4232L81.4422 30.1342C81.4422 30.0385 81.4457 29.9445 81.4519 29.854C81.4589 29.7635 81.4729 29.6792 81.4949 29.6001C81.5169 29.5211 81.5485 29.449 81.5898 29.384C81.6319 29.319 81.6873 29.2637 81.7567 29.2171C81.8261 29.1706 81.9122 29.1337 82.0141 29.1082C82.116 29.0819 82.238 29.0696 82.3812 29.0696H82.3935C82.5367 29.0696 82.6588 29.0819 82.7607 29.1082C82.8626 29.1337 82.9478 29.1706 83.0172 29.2171C83.0875 29.2637 83.1428 29.319 83.1841 29.384C83.2263 29.449 83.2579 29.5211 83.2799 29.6001C83.3018 29.6792 83.3159 29.7635 83.322 29.854L83.3317 30.143C83.3317 30.2387 83.3291 30.3319 83.322 30.4224C83.3159 30.5128 83.3018 30.598 83.2799 30.6771C83.2579 30.7561 83.2263 30.8282 83.1841 30.8932C83.1428 30.9582 83.0875 31.0135 83.0172 31.0601C82.9478 31.1067 82.8626 31.1427 82.7607 31.169C82.6588 31.1945 82.5367 31.2077 82.3935 31.2077H82.3812ZM82.3786 29.4385C82.267 29.4385 82.1783 29.4508 82.1107 29.4745C82.043 29.4991 81.9912 29.5378 81.9552 29.5905C81.9192 29.6432 81.8954 29.7108 81.8831 29.7934C81.8708 29.8768 81.8656 29.9761 81.8656 30.0921V30.1852C81.8656 30.3011 81.8708 30.4004 81.8831 30.483C81.8954 30.5664 81.9192 30.6341 81.9552 30.6868C81.9912 30.7395 82.043 30.7772 82.1107 30.8018C82.1783 30.8264 82.267 30.8387 82.3786 30.8387H82.3962C82.5069 30.8387 82.5965 30.8264 82.6641 30.8018C82.7318 30.7772 82.7827 30.7395 82.8196 30.6868C82.8547 30.6341 82.8793 30.5664 82.8916 30.483C82.903 30.4004 82.9092 30.3011 82.9092 30.1852V30.0921C82.9092 29.9761 82.903 29.8768 82.8916 29.7934C82.8793 29.7108 82.8547 29.6432 82.8196 29.5905C82.7827 29.5378 82.7318 29.4991 82.6641 29.4745C82.5965 29.4508 82.5069 29.4385 82.3962 29.4385H82.3786ZM90.4392 30.4425H91.1709L90.8485 29.4894C90.8432 29.4736 90.8389 29.4622 90.8345 29.4534C90.8301 29.4455 90.824 29.4411 90.8152 29.4411H90.795C90.787 29.4411 90.78 29.4455 90.7757 29.4534C90.7713 29.4622 90.7668 29.4736 90.7616 29.4894L90.4392 30.4425ZM86.914 29.4534L86.9131 30.0648H86.5372C86.4414 30.0639 86.3641 30.0578 86.3035 30.0446C86.2429 30.0323 86.1954 30.013 86.1611 29.9875C86.1278 29.9629 86.1041 29.9322 86.0909 29.897C86.0777 29.8619 86.0689 29.8066 86.0672 29.7609C86.0672 29.6967 86.0786 29.6599 86.0909 29.6221C86.1032 29.5843 86.1269 29.5553 86.1611 29.5298C86.1963 29.5035 86.2393 29.4868 86.3026 29.4736C86.3658 29.4596 86.4502 29.4534 86.5372 29.4534H86.914ZM84.3182 28.1893H83.3598L83.2869 28.4081C83.2693 28.4599 83.2518 28.4994 83.2324 28.5275C83.214 28.5565 83.1921 28.5776 83.1692 28.5917C83.1455 28.6057 83.1191 28.6136 83.091 28.6171C83.062 28.6198 83.0295 28.6215 82.9926 28.6215C82.9645 28.6215 82.9382 28.6163 82.9144 28.6075C82.8907 28.5978 82.8723 28.582 82.8583 28.5592C82.8451 28.5363 82.838 28.5065 82.8363 28.4704C82.8354 28.4327 82.8451 28.3879 82.8635 28.3334L83.416 26.7592C83.4397 26.689 83.467 26.6354 83.4977 26.5985C83.5294 26.5616 83.5619 26.5353 83.5961 26.5186C83.6304 26.5019 83.6664 26.4922 83.7033 26.4896H83.9765C84.0134 26.4922 84.0494 26.5019 84.0836 26.5186C84.1179 26.5353 84.1513 26.5616 84.182 26.5985C84.2128 26.6354 84.24 26.689 84.2646 26.7592L84.8163 28.3334C84.8356 28.3879 84.8444 28.4327 84.8435 28.4704C84.8426 28.5065 84.8347 28.5363 84.8216 28.5592C84.8084 28.582 84.789 28.5978 84.7653 28.6075C84.7416 28.6163 84.7152 28.6215 84.6871 28.6215C84.6502 28.6215 84.6178 28.6198 84.5879 28.6171C84.5589 28.6136 84.5334 28.6057 84.5097 28.5917C84.486 28.5776 84.4649 28.5565 84.4456 28.5275C84.4272 28.4994 84.4096 28.4599 84.3938 28.4081L84.3182 28.1893ZM90.3812 28.1893H89.4228L89.3499 28.4081C89.3323 28.4599 89.3148 28.4994 89.2955 28.5275C89.277 28.5565 89.2559 28.5776 89.2322 28.5917C89.2085 28.6057 89.1822 28.6136 89.154 28.6171C89.1251 28.6198 89.0926 28.6215 89.0557 28.6215C89.0275 28.6215 89.0021 28.6163 88.9783 28.6075C88.9537 28.5978 88.9353 28.582 88.9212 28.5592C88.9081 28.5363 88.901 28.5065 88.9002 28.4704C88.8984 28.4327 88.9081 28.3879 88.9265 28.3334L89.4791 26.7592C89.5028 26.689 89.53 26.6354 89.5616 26.5985C89.5924 26.5616 89.6249 26.5353 89.6592 26.5186C89.6943 26.5019 89.7294 26.4922 89.7672 26.4896H90.0395C90.0764 26.4922 90.1124 26.5019 90.1467 26.5186C90.1818 26.5353 90.2143 26.5616 90.2451 26.5985C90.2758 26.6354 90.3039 26.689 90.3276 26.7592L90.8793 28.3334C90.8986 28.3879 90.9074 28.4327 90.9065 28.4704C90.9057 28.5065 90.8986 28.5363 90.8845 28.5592C90.8714 28.582 90.8521 28.5978 90.8292 28.6075C90.8046 28.6163 90.7783 28.6215 90.751 28.6215C90.7133 28.6215 90.6807 28.6198 90.6517 28.6171C90.6228 28.6136 90.5964 28.6057 90.5727 28.5917C90.549 28.5776 90.5279 28.5565 90.5095 28.5275C90.4901 28.4994 90.4726 28.4599 90.4567 28.4081L90.3812 28.1893ZM87.2908 27.3706L88.1895 27.3715C88.2246 27.3724 88.2484 27.3733 88.2598 27.3742V26.6301C88.2598 26.6081 88.2677 26.5879 88.2826 26.5704C88.2984 26.5519 88.3178 26.537 88.3424 26.5238C88.3669 26.5115 88.3951 26.5027 88.4249 26.4957C88.4557 26.4896 88.4855 26.486 88.5145 26.486C88.5725 26.486 88.6155 26.4948 88.6419 26.5115C88.6691 26.5282 88.6823 26.5642 88.6823 26.6178V28.5135C88.6823 28.5372 88.6788 28.5565 88.67 28.5715C88.663 28.5855 88.6516 28.597 88.6367 28.604C88.6226 28.6119 88.605 28.6163 88.583 28.6189C88.5628 28.6207 88.5391 28.6215 88.5145 28.6215C88.4855 28.6215 88.4556 28.6189 88.4258 28.6154C88.3959 28.6119 88.3687 28.6049 88.3441 28.5961C88.3195 28.5873 88.2993 28.575 88.2835 28.5592C88.2677 28.5442 88.2598 28.524 88.2598 28.5012V27.737H87.2908V28.5012C87.2908 28.5258 87.2821 28.5451 87.2663 28.5609C87.2496 28.5759 87.2285 28.5882 87.203 28.5978C87.1775 28.6066 87.1503 28.6128 87.1204 28.6163C87.0915 28.6198 87.0633 28.6215 87.0387 28.6215C87.0097 28.6215 86.9851 28.6198 86.9641 28.618C86.943 28.6154 86.9245 28.6101 86.9105 28.6022C86.8956 28.5952 86.885 28.5847 86.878 28.5697C86.871 28.5557 86.8674 28.5363 86.8674 28.5135V26.6178C86.8674 26.573 86.8815 26.5396 86.9087 26.5186C86.9368 26.4966 86.9799 26.486 87.0387 26.486C87.0677 26.486 87.0967 26.4887 87.1275 26.4931C87.1573 26.4983 87.1845 26.5063 87.2083 26.5177C87.232 26.5282 87.2522 26.5431 87.2671 26.5616C87.283 26.58 87.2908 26.6029 87.2908 26.6301V27.3706ZM85.9512 26.486C86.054 26.486 86.1471 26.4939 86.2306 26.508C86.314 26.5238 86.3852 26.5449 86.444 26.573C86.502 26.6011 86.5477 26.6345 86.5784 26.674C86.6101 26.7136 86.6259 26.7584 86.6259 26.8067C86.6259 26.8251 86.6232 26.8436 86.6171 26.8638C86.6109 26.884 86.6021 26.9024 86.589 26.9182C86.5767 26.9349 86.56 26.949 86.5398 26.9586C86.5196 26.9692 86.495 26.9753 86.4669 26.9753C86.4423 26.9753 86.4203 26.9718 86.4001 26.9657L86.1884 26.8831C86.1568 26.8743 86.1181 26.8664 86.0742 26.8611L85.8968 26.8523C85.7861 26.8523 85.6965 26.8647 85.6297 26.8893C85.5621 26.9147 85.5102 26.9534 85.4742 27.0061C85.4382 27.0597 85.4145 27.1273 85.4022 27.2108C85.3899 27.2933 85.3838 27.3926 85.3838 27.5086V27.6017C85.3838 27.7176 85.3899 27.8169 85.4022 27.9004C85.4145 27.9829 85.4382 28.0506 85.4742 28.1033C85.5102 28.156 85.5621 28.1946 85.6297 28.2192C85.6965 28.2429 85.7861 28.2552 85.8968 28.2552L86.0742 28.2464C86.1181 28.2403 86.1568 28.2333 86.1884 28.2245L86.4001 28.1419C86.4203 28.1358 86.4423 28.1322 86.4669 28.1322C86.495 28.1322 86.5196 28.1384 86.5398 28.1489C86.56 28.1604 86.5767 28.1744 86.589 28.1902C86.6021 28.2069 86.6109 28.2245 86.6171 28.2447C86.6232 28.264 86.6259 28.2825 86.6259 28.3009C86.6259 28.3492 86.6101 28.394 86.5784 28.4336C86.5477 28.4731 86.502 28.5065 86.444 28.5346C86.3852 28.5627 86.314 28.5838 86.2306 28.5987L85.9003 28.6215C85.7571 28.6215 85.635 28.6084 85.5322 28.5829C85.4303 28.5574 85.3451 28.5214 85.2748 28.4748C85.2054 28.4292 85.1501 28.3729 85.1088 28.3079C85.0675 28.2429 85.0359 28.1709 85.0139 28.0918C84.992 28.0128 84.977 27.9285 84.9709 27.8397L84.9612 27.5507C84.9612 27.455 84.9647 27.3619 84.9709 27.2714C84.977 27.1809 84.992 27.0957 85.0139 27.0166C85.0359 26.9376 85.0675 26.8655 85.1088 26.8005C85.1501 26.7355 85.2054 26.6802 85.2748 26.6336C85.3451 26.5871 85.4303 26.5511 85.5322 26.5247C85.635 26.4992 85.7571 26.486 85.9003 26.486H85.9512ZM92.3489 27.8459V28.5144C92.3489 28.539 92.355 28.5583 92.3673 28.5723C92.3796 28.5873 92.3964 28.5978 92.4157 28.6057C92.435 28.6127 92.4578 28.618 92.4833 28.6198L92.6414 28.6189C92.6669 28.6163 92.6889 28.6119 92.7082 28.604C92.7284 28.5961 92.7434 28.5855 92.7548 28.5706C92.7662 28.5565 92.7723 28.5372 92.7723 28.5144V26.6714C92.7679 26.6406 92.7627 26.624 92.7548 26.6055C92.7477 26.588 92.7354 26.5713 92.7196 26.5554C92.7029 26.5396 92.6819 26.5264 92.6564 26.5159C92.63 26.5062 92.5984 26.501 92.5589 26.501H91.8438C91.7938 26.501 91.6918 26.5142 91.6233 26.5291C91.5557 26.544 91.4889 26.5669 91.4239 26.5967C91.3589 26.6266 91.3009 26.667 91.25 26.718C91.199 26.768 91.1587 26.8304 91.1279 26.9051C91.0972 26.9788 91.0813 27.0676 91.0813 27.1703C91.0813 27.2643 91.0927 27.3417 91.1156 27.4067C91.1384 27.4725 91.1692 27.5296 91.2078 27.5771C91.2465 27.6254 91.2913 27.6658 91.3422 27.6974C91.3932 27.7299 91.4468 27.7554 91.503 27.7756L91.1042 28.4564C91.0919 28.4784 91.0875 28.4968 91.0901 28.5144C91.0927 28.5302 91.1015 28.5451 91.1156 28.5574C91.1296 28.5697 91.1472 28.5803 91.1683 28.5882C91.1894 28.5961 91.2113 28.6031 91.2342 28.6075C91.257 28.6128 91.2799 28.6163 91.3018 28.618C91.3238 28.6198 91.3422 28.6215 91.3572 28.6215C91.3932 28.6215 91.4292 28.6145 91.4652 28.6013C91.5021 28.589 91.5285 28.5662 91.5469 28.5346L91.9387 27.8459H92.3489ZM79.6721 28.5012C79.6721 28.5249 79.6633 28.5442 79.6467 28.56C79.6308 28.5759 79.6097 28.5882 79.5843 28.597C79.5588 28.6057 79.5307 28.6128 79.5017 28.6154C79.4718 28.6189 79.4446 28.6207 79.4191 28.6207C79.3901 28.6207 79.3656 28.6198 79.3445 28.6171C79.3234 28.6145 79.3058 28.6101 79.2909 28.6022C79.2768 28.5952 79.2654 28.5838 79.2592 28.5688C79.2522 28.5548 79.2478 28.5355 79.2478 28.5126V26.6327C79.2478 26.5879 79.2619 26.5546 79.2891 26.5326C79.3172 26.5115 79.3603 26.501 79.4191 26.501C79.4481 26.501 79.478 26.5036 79.5079 26.508C79.5377 26.5133 79.5649 26.5212 79.5886 26.5326C79.6132 26.5431 79.6334 26.5581 79.6484 26.5765C79.6642 26.595 79.6721 26.6178 79.6721 26.645V27.3443C79.6721 27.3443 79.6703 27.3689 79.68 27.3777C79.687 27.3838 79.6932 27.3847 79.702 27.3847C79.7152 27.3847 79.7231 27.3847 79.7345 27.3803C79.7459 27.3768 79.7617 27.3645 79.7617 27.3645L80.555 26.609C80.5796 26.5862 80.6033 26.5669 80.6243 26.5528C80.6454 26.5379 80.6656 26.5273 80.6867 26.5194C80.7069 26.5124 80.7315 26.5045 80.7535 26.5027C80.7755 26.5001 80.7966 26.501 80.822 26.501C80.8414 26.501 80.8607 26.5036 80.88 26.5107C80.8984 26.5168 80.9151 26.5265 80.9309 26.5396C80.9467 26.5528 80.9599 26.5695 80.9696 26.5897C80.9792 26.6099 80.9845 26.6327 80.9845 26.66C80.9845 26.6758 80.9828 26.6925 80.9801 26.7083C80.9775 26.7241 80.9705 26.7417 80.9599 26.761C80.9494 26.7794 80.9344 26.8005 80.9151 26.8234C80.8967 26.8471 80.8712 26.8734 80.8405 26.9033L80.1974 27.5103C80.1825 27.5253 80.1737 27.5367 80.1711 27.5454C80.1684 27.5533 80.1675 27.5613 80.1675 27.5683C80.1675 27.5762 80.1684 27.5867 80.1711 27.5946C80.1737 27.6034 80.1825 27.6148 80.1974 27.6298L80.8176 28.2183C80.8493 28.2482 80.8738 28.2754 80.8932 28.2983C80.9125 28.3211 80.9265 28.3422 80.9371 28.3615C80.9485 28.38 80.9546 28.3975 80.9582 28.4133C80.9608 28.43 80.9626 28.4458 80.9626 28.4617C80.9626 28.4889 80.9573 28.5126 80.9476 28.5328C80.937 28.5522 80.9248 28.5688 80.909 28.582C80.8932 28.5952 80.8782 28.6031 80.8589 28.6092C80.8405 28.6163 80.8194 28.6207 80.8 28.6207C80.7737 28.6207 80.7499 28.6198 80.728 28.6171C80.706 28.6145 80.6849 28.6101 80.6639 28.6022C80.6437 28.5952 80.6226 28.5838 80.6015 28.5688C80.5804 28.5548 80.5576 28.5355 80.533 28.5126C80.533 28.5126 79.8127 27.8257 79.7617 27.7738C79.7521 27.7651 79.7468 27.7624 79.7354 27.758C79.7231 27.7536 79.7152 27.7545 79.702 27.7545C79.6932 27.7545 79.6871 27.7554 79.6809 27.7615C79.6704 27.7694 79.6721 27.7949 79.6721 27.7949V28.5012ZM82.0422 26.501L82.2301 26.5071C82.296 26.5115 82.3619 26.5212 82.4278 26.5361C82.4937 26.5519 82.5569 26.5739 82.6175 26.6038C82.6781 26.6327 82.7317 26.6723 82.7792 26.7215C82.8257 26.7715 82.8635 26.8321 82.8916 26.9051C82.9197 26.9788 82.9338 27.0658 82.9338 27.1695V27.1756C82.9338 27.2749 82.9206 27.361 82.8951 27.433C82.8697 27.505 82.8354 27.5657 82.7924 27.6157C82.7493 27.6649 82.6992 27.7044 82.6421 27.7352C82.585 27.7651 82.5253 27.7879 82.4612 27.8046C82.3979 27.8213 82.3338 27.8327 82.2679 27.838L82.0729 27.8468H81.6978V28.5126C81.6978 28.5363 81.6917 28.5557 81.6785 28.5706C81.6662 28.5847 81.6504 28.5952 81.631 28.6031C81.6108 28.611 81.5889 28.6154 81.5634 28.6171H81.4062C81.3798 28.6145 81.3578 28.6092 81.3385 28.6013C81.3192 28.5943 81.3034 28.5829 81.292 28.5688C81.2805 28.5539 81.2744 28.5355 81.2744 28.5126V26.6714C81.2744 26.6635 81.2753 26.6582 81.2762 26.6547C81.2788 26.6398 81.2841 26.6231 81.292 26.6055C81.2999 26.588 81.3113 26.5704 81.328 26.5554C81.3438 26.5396 81.3649 26.5265 81.3904 26.5168C81.4167 26.5063 81.4483 26.501 81.487 26.501H82.0422ZM83.474 27.8538H84.2058L83.8834 26.8998C83.8781 26.8849 83.8737 26.8734 83.8693 26.8647C83.8649 26.8559 83.8588 26.8515 83.8509 26.8515H83.8289C83.821 26.8515 83.8149 26.8559 83.8105 26.8647C83.8061 26.8734 83.8017 26.8849 83.7964 26.8998L83.474 27.8538ZM89.537 27.8538H90.2696L89.9464 26.8998C89.942 26.8849 89.9367 26.8734 89.9323 26.8647C89.9279 26.8559 89.9218 26.8515 89.913 26.8515H89.8928C89.8849 26.8515 89.8788 26.8559 89.8744 26.8647C89.87 26.8734 89.8647 26.8849 89.8594 26.8998L89.537 27.8538ZM81.6978 27.4813L82.0456 27.4796V27.4787H82.0571C82.1563 27.4787 82.2354 27.4717 82.2951 27.4585C82.3549 27.4462 82.4006 27.4269 82.4313 27.4023C82.4629 27.3777 82.484 27.3478 82.4937 27.3118C82.5042 27.2758 82.5095 27.2345 82.5104 27.187V27.1589C82.5095 27.1132 82.5042 27.072 82.4946 27.0368C82.4849 27.0017 82.4656 26.971 82.4357 26.9455C82.4058 26.9209 82.3619 26.9016 82.3057 26.8884C82.2495 26.8752 82.1739 26.8673 82.0799 26.8664H81.6978V27.4813ZM92.3489 26.8673L92.348 27.4787L91.9721 27.4796C91.8763 27.4778 91.799 27.4717 91.7384 27.4585C91.6778 27.4462 91.6303 27.4268 91.5961 27.4014C91.5618 27.3768 91.539 27.346 91.5258 27.3109C91.5127 27.2749 91.5039 27.2204 91.503 27.1747C91.503 27.1106 91.5135 27.0737 91.5258 27.036C91.5381 26.9982 91.5618 26.9692 91.5961 26.9437C91.6312 26.9174 91.6743 26.9007 91.7375 26.8875C91.7999 26.8734 91.8851 26.8673 91.9721 26.8673H92.3489ZM7.80234 7.38255V10.1224H12.6197V12.3993C11.5814 13.1732 10.3217 13.4157 8.92938 13.4157C5.43757 13.4157 3.24936 11.4708 3.24936 8.15558C3.24936 4.95102 5.34885 2.94028 8.50948 2.94028C10.3217 2.94028 11.9354 3.53674 12.9957 4.46525L14.9625 2.2551C13.4604 0.862767 11.3161 0.00012207 8.48753 0.00012207C3.40398 0.00012207 0 3.13879 0 8.15558C0 13.1732 3.40397 16.2891 8.81869 16.2891C11.6033 16.2891 13.9901 15.4932 15.5599 13.9682V7.38255H7.80234ZM81.4141 15.9799H92.7741V13.0406H84.5747V0.310209H81.4141V15.9799ZM56.2845 15.9799C60.3956 15.9799 62.1639 14.3442 62.1639 11.383C62.1639 9.32743 60.8155 8.00098 58.8267 7.58109C60.1523 7.09531 60.9701 5.94543 60.9701 4.15516C60.9701 1.67971 59.1798 0.310209 55.8206 0.310209H48.7922V15.9799H56.2845ZM63.1803 15.9799H66.5842L67.9317 12.9958H74.7836L76.154 15.9799H79.5579L72.3749 0.243458H70.3413L63.1803 15.9799ZM51.9089 13.2611V9.32743H55.9972C58.0088 9.32743 58.9374 10.0565 58.9374 11.2723C58.9374 12.5539 58.1195 13.2611 56.3064 13.2611H51.9089ZM68.9929 10.3658L70.1647 7.58109L71.3576 4.37652L72.5734 7.58109L73.7453 10.3658H68.9929ZM55.666 3.00615C57.0803 3.00615 57.9421 3.62546 57.9421 4.84035C57.9421 6.1668 57.1691 6.83001 55.5114 6.83001H51.9089V3.00615H55.666Z" fill="white"/>
</g>
<g id="Group_2">
<path id="Vector_2" d="M14.9922 19.4426L21.866 35.2001H23.6782L30.6179 19.4426H27.1261L23.8996 27.2879L22.7945 30.2052L21.7334 27.266L18.5288 19.4426H14.9922ZM33.4491 19.4426V35.1122H45.1843V32.3056H36.4763V28.7251H43.5047V26.0502H36.4763V22.2711H44.8311V19.4426H33.4491ZM38.74 16.289C43.8235 16.289 47.1827 12.9078 47.1827 8.15546C47.1827 3.24936 43.647 0 38.74 0C33.6793 0 30.3421 3.382 30.3421 8.15546C30.3421 13.0624 33.8559 16.289 38.74 16.289ZM18.2336 15.9798H29.5937V13.0405H21.3943V0.310087H18.2336V15.9798ZM38.74 13.3497C35.6461 13.3497 33.5906 11.1834 33.5906 8.15546C33.5906 4.99482 35.7568 2.94016 38.74 2.94016C41.8787 2.94016 43.9123 5.1055 43.9123 8.15546C43.9123 11.3161 41.746 13.3497 38.74 13.3497Z" fill="white"/>
</g>
</g>
</svg>
