<svg width="262" height="29" viewBox="0 0 262 29" fill="none" xmlns="http://www.w3.org/2000/svg">
<path fill-rule="evenodd" clip-rule="evenodd" d="M65.0723 8.729H69.1548L69.1334 14.1087H69.8737L74.3318 8.729H79.2095L73.0936 15.6383L79.5077 22.9982H74.4649L69.8834 17.5314H69.1452L69.1666 22.9982H65.083V8.729H65.0723Z" fill="white"/>
<path fill-rule="evenodd" clip-rule="evenodd" d="M81.881 22.9865L84.6974 18.1734L79.0237 8.71838H83.6696L86.9485 14.4616L90.0171 8.71838H94.5847L86.4517 22.9865H81.881ZM61.3307 15.4671C62.511 14.8687 63.3168 13.6814 63.3168 12.3016C63.3168 10.333 61.6623 8.72901 59.6301 8.72901H50.8008V22.9982H59.9627C62.1816 22.9982 63.9691 21.255 63.9691 19.1152C63.9691 17.4464 62.8758 16.0241 61.3425 15.4671H61.3307ZM54.7643 11.9062H57.9874C58.7031 11.9062 59.2782 12.4621 59.2782 13.1573C59.2782 13.8525 58.7031 14.4084 57.9874 14.4084H54.7643V11.9062ZM58.5164 19.8104H54.7643V17.1774H58.5164C59.2664 17.1774 59.8747 17.7663 59.8747 18.4934C59.8747 19.2205 59.2664 19.8104 58.5164 19.8104ZM108.547 8.72901H112.632V14.0662H118.259V8.72901H122.344V22.9982H118.259V17.575H112.632V22.9982H108.547V8.72901ZM144.185 14.2054H159.947V17.5112H144.185V14.2054ZM174.493 22.9865V14.857L168.223 22.9865H164.67V8.71838H168.755V16.5471L174.814 8.71838H178.576V22.9865H174.493ZM190.486 12.1943H186.093V8.72901H198.984V12.1943H194.569V22.9982H190.486V12.1943ZM131.603 8.24749C127.266 8.24749 123.745 11.6596 123.745 15.8636C123.745 20.0666 127.265 23.4787 131.603 23.4787C135.939 23.4787 139.462 20.0666 139.462 15.8636C139.462 11.6596 135.939 8.24749 131.603 8.24749ZM131.603 19.5213C129.517 19.5213 127.828 17.8843 127.828 15.8636C127.828 13.8408 129.517 12.2049 131.603 12.2049C133.688 12.2049 135.377 13.8419 135.377 15.8636C135.377 17.8843 133.688 19.5213 131.603 19.5213ZM225.34 18.6868C224.337 18.8686 223.298 18.9972 222.394 18.9972C218.542 18.9972 216.521 17.0828 216.521 13.7132V8.71626H220.606V13.1775C220.606 14.7496 221.368 15.4023 223 15.4023C223.817 15.4023 224.601 15.3173 225.341 15.1344V8.71838H229.423V22.9865H225.341L225.34 18.6868ZM230.869 8.72901H234.953L234.932 14.1087H235.67L240.13 8.72901H245.008L238.892 15.6383L245.306 22.9982H240.261L235.682 17.5314H234.942L234.963 22.9982H230.881V8.72901H230.869ZM207.505 8.24749C203.167 8.24749 199.646 11.6596 199.646 15.8636C199.646 20.0666 203.167 23.4787 207.505 23.4787C211.843 23.4787 215.361 20.0666 215.361 15.8636C215.361 11.6596 211.842 8.24749 207.505 8.24749ZM207.505 19.5213C205.418 19.5213 203.731 17.8843 203.731 15.8636C203.731 13.8408 205.418 12.2049 207.505 12.2049C209.592 12.2049 211.279 13.8419 211.279 15.8636C211.279 17.8843 209.591 19.5213 207.505 19.5213ZM103.901 17.981C103.546 18.4598 103.083 18.8489 102.548 19.1165C102.013 19.3842 101.421 19.5229 100.822 19.5213C98.7349 19.5213 97.046 17.8843 97.046 15.8636C97.046 13.8408 98.7349 12.2049 100.821 12.2049C102.09 12.2049 103.217 12.815 103.901 13.7462L107.123 11.328C106.385 10.3665 105.431 9.58783 104.338 9.05331C103.244 8.51878 102.04 8.24294 100.821 8.24749C96.4838 8.24749 92.9635 11.6596 92.9635 15.8636C92.9635 20.0666 96.4827 23.4787 100.821 23.4787C102.04 23.4819 103.243 23.2055 104.337 22.6711C105.43 22.1367 106.384 21.3587 107.123 20.3982L103.901 17.981Z" fill="white"/>
<path fill-rule="evenodd" clip-rule="evenodd" d="M255.382 8.729H251.366L245.161 22.9982H249.433L250.483 20.4301H256.176L257.226 22.9982H261.596L255.37 8.729H255.382ZM251.674 17.3496L253.34 13.3178L254.985 17.3496H251.686H251.674Z" fill="white"/>
<path fill-rule="evenodd" clip-rule="evenodd" d="M24.2786 0.0955842C21.3452 2.06632 20.4149 5.92062 22.2325 8.96813L33.7882 28.3566C33.9448 28.6202 34.3032 28.6925 34.5607 28.5181C37.4952 26.5464 38.4255 22.6931 36.6068 19.6435L25.0522 0.257155C25.0135 0.194664 24.9624 0.140628 24.902 0.0983393C24.8416 0.0560507 24.7731 0.0263949 24.7007 0.0111788C24.6283 -0.00403731 24.5536 -0.00449512 24.481 0.00983326C24.4084 0.0241616 24.3396 0.0529762 24.2786 0.0945212M12.724 0.0955842C9.79056 2.06632 8.86139 5.92062 10.679 8.96813L22.2346 28.3566C22.3913 28.6202 22.7497 28.6925 23.0072 28.5181C25.9417 26.5464 26.8709 22.6931 25.0522 19.6435L13.4987 0.257155C13.46 0.194512 13.4089 0.140342 13.3483 0.0979546C13.2878 0.0555674 13.2192 0.0258544 13.1467 0.0106321C13.0742 -0.0045902 12.9993 -0.00500199 12.9266 0.00942193C12.8539 0.0238458 12.785 0.0528024 12.724 0.0945212" fill="white"/>
<path fill-rule="evenodd" clip-rule="evenodd" d="M13.8315 21.9203C13.8315 18.2233 10.735 15.2268 6.91526 15.2268C3.09556 15.2268 -0.000976562 18.2244 -0.000976562 21.9203C-0.000976562 25.6162 3.09556 28.6148 6.91526 28.6148C10.735 28.6148 13.8315 25.6173 13.8315 21.9203Z" fill="white"/>
</svg>
