<svg xmlns="http://www.w3.org/2000/svg" width="303" height="339" viewBox="0 0 303 339" fill="none">
  <path d="M230.88 134.267C229.879 133.267 230.264 130.188 227.956 130.188C225.34 130.188 230.033 133.96 215.416 157.512C209.646 166.748 196.721 181.833 186.027 181.833C181.642 181.833 180.026 178.524 180.026 175.445C180.026 172.058 180.949 168.21 182.257 164.516C183.488 167.363 185.95 169.672 190.566 169.672C197.336 169.672 204.491 156.357 204.491 147.814C204.491 143.196 203.029 138.808 200.491 138.808C200.491 137.346 199.567 134.037 194.951 134.037C187.335 134.037 179.411 144.658 175.179 156.126C172.025 163.053 162.793 176.138 157.715 177.523C156.638 177.523 161.87 160.128 167.793 154.279C168.563 153.509 168.332 152.355 167.563 151.277C164.793 154.356 162.177 158.127 160.331 161.668C160.562 158.281 163.947 152.74 166.101 149.738C164.562 148.429 162.562 147.506 161.177 147.506C157.177 147.506 151.791 158.05 148.714 167.902C144.329 168.287 139.789 168.595 134.019 168.133C138.943 156.203 144.175 146.813 147.406 143.58C149.945 141.041 144.252 133.575 140.559 133.575C136.635 133.575 127.788 148.891 121.094 166.209C114.016 163.977 111.939 158.435 111.632 158.435C107.477 158.435 106.477 173.675 117.171 177.369C114.478 186.066 112.709 194.533 112.709 201.152C112.709 205.924 114.093 209.003 115.863 210.85C115.017 206.001 115.094 199.766 117.171 191.685C116.401 199.92 115.863 207.54 118.479 212.62C121.094 213.774 123.633 213.236 124.172 212.389C124.556 211.773 121.941 206.54 125.018 194.764C126.557 188.991 128.326 183.219 130.327 177.754C136.404 177.061 142.405 175.599 147.098 173.906C146.56 176.291 146.329 178.447 146.329 180.14C146.329 186.605 150.252 186.374 150.945 186.374C150.945 187.067 150.56 190.761 154.638 190.761C159.331 190.761 167.255 181.525 172.102 172.443C172.563 190.53 188.258 190.915 190.72 190.915C217.031 190.838 239.727 143.196 230.88 134.267ZM201.183 144.812C202.183 149.507 197.721 161.514 190.489 164.746C196.952 159.436 201.029 149.122 201.183 144.812ZM196.105 141.118C192.335 142.349 187.566 148.814 186.412 151.662C189.027 142.58 198.029 136.499 196.105 141.118ZM196.182 144.196C196.182 148.045 190.412 160.205 186.642 160.205C185.796 160.205 185.027 159.897 184.411 159.513C188.412 151.123 194.028 144.196 196.182 144.196ZM142.713 137.885C140.482 137.269 137.097 139.501 134.866 142.657C138.635 135.037 143.021 135.114 142.713 137.885ZM111.632 161.514C113.863 166.901 120.094 170.057 135.866 170.057C125.095 171.289 111.632 171.212 111.632 161.514ZM190.181 187.529C192.182 188.144 197.644 187.76 202.414 184.604C198.952 188.914 189.258 190.146 190.181 187.529ZM213.415 40.0597C213.185 41.2142 212.954 42.2148 212.954 43.2153C212.954 44.1389 213.646 44.9086 216.801 44.9086C217.416 44.9086 225.34 24.5893 225.34 22.2033C225.34 20.2791 222.955 16.6617 220.955 14.3526C219.57 17.6622 218.032 21.8185 216.724 26.1286C217.185 22.7421 218.57 17.5853 220.109 13.429C219.416 12.7363 218.801 12.2745 218.493 12.2745C216.647 12.2745 212.031 34.8259 212.031 38.4434C212.031 39.367 212.569 40.0597 213.415 40.0597ZM233.034 34.3641C232.264 35.9034 231.957 36.827 231.957 37.5967C231.957 38.7512 234.572 40.2906 236.034 40.2906C236.573 40.2906 254.191 14.7375 254.191 13.7369C254.191 13.0442 253.421 11.9667 252.267 10.5813C253.113 9.58068 254.114 7.73347 253.652 6.9638C252.575 5.34749 248.728 0.575531 248.19 0.575531C246.651 0.575531 231.264 28.2837 231.264 30.5157C231.11 32.4399 232.264 34.4411 233.034 34.3641ZM247.651 15.4302C247.343 16.0459 235.649 34.672 235.188 35.1338C237.111 29.6691 244.958 17.3544 247.651 15.4302ZM178.872 20.587C159.638 20.587 136.174 29.823 115.94 43.1384C139.482 30.0539 162.793 21.9724 176.949 23.2808C155.869 24.6662 133.019 34.3641 113.863 47.3716C112.17 38.2894 105.708 30.7466 89.4745 30.7466C53.9309 30.7466 0 75.2336 0 116.95C0 130.881 8.38583 150.123 27.4655 150.123C31.1583 150.123 34.7743 149.815 38.2363 149.276C33.3894 156.203 30.0813 163.284 30.0813 169.518C30.0813 170.827 30.4659 172.828 31.1583 173.213C29.1581 183.295 37.467 190.607 44.2372 190.607C67.3944 190.607 93.6289 157.896 106.862 132.343C107.708 139.732 110.862 140.656 112.862 140.656C113.17 142.965 115.17 144.966 117.479 144.966C126.326 144.966 141.097 121.183 148.483 107.483C148.098 110.485 147.868 113.64 147.868 116.796C147.868 121.337 151.176 124.724 154.484 124.724C160.485 124.724 170.102 113.101 178.257 102.557C179.026 104.943 179.795 107.175 179.334 108.714C177.333 114.872 164.639 120.952 164.639 136.346C164.639 142.734 171.794 149.815 171.794 145.043C171.794 137.577 190.412 124.416 190.412 113.794C190.412 107.175 185.796 105.405 185.95 98.1699C186.027 94.7063 189.335 89.8574 191.028 86.8557C192.489 85.6242 189.335 76.5421 186.565 76.5421C184.257 76.5421 179.026 84.0079 177.333 91.5507C169.101 101.018 158.869 111.716 157.946 111.716C157.946 104.25 164.947 89.3956 167.178 87.1636C168.178 86.163 168.024 84.3158 167.409 82.4686C165.101 85.0085 162.793 88.549 161.485 90.781C162.408 87.7793 165.101 83.2382 166.716 80.8522C165.485 78.5432 163.562 76.5421 161.946 76.5421C160.408 76.5421 125.864 129.111 118.248 129.111C118.248 113.794 143.405 74.1561 145.098 72.3089C147.329 70.0769 144.175 65.6128 140.559 63.3037C136.789 67.6139 132.481 73.0786 128.249 79.6208C130.48 74.2331 134.712 67.8448 138.943 62.4571C138.097 62.0723 137.328 61.9183 136.558 61.9183C131.019 61.9183 113.863 103.173 113.709 103.019C93.3981 143.503 51.5459 174.521 40.2366 174.521C37.39 174.521 43.9294 159.359 60.4703 142.349C73.3183 136.115 81.7041 128.033 81.7041 125.108C81.7041 122.414 79.9346 118.027 77.2419 118.027C73.0875 118.027 64.4709 123.107 55.7773 130.65C47.2376 133.652 37.3131 136.346 27.0039 136.346C15.6176 136.346 9.92451 132.112 9.92451 123.492C9.92451 87.3175 65.2402 43.985 96.7063 43.985C104.323 43.985 107.708 46.9097 108.323 51.4508C86.0894 67.8448 70.164 88.2411 70.164 103.481C70.164 109.176 72.6259 112.717 76.9342 112.717C87.0895 112.717 107.708 86.7018 113.093 63.4577C131.557 50.912 156.715 38.4434 181.103 38.4434C194.336 38.4434 189.643 51.2199 192.259 51.2199C195.028 51.2199 200.952 20.587 178.872 20.587ZM169.409 134.037C169.024 126.725 182.719 116.411 183.257 110.177C186.719 114.102 172.256 125.108 169.409 134.037ZM172.871 105.867C170.255 109.253 165.101 115.41 160.716 118.951C160.023 119.49 157.946 120.721 157.484 120.49C162.485 116.796 167.563 111.485 172.871 105.867ZM129.249 92.3973C125.249 100.171 120.017 111.023 116.094 123.184C117.325 112.255 125.71 95.553 129.249 92.3973ZM83.6275 152.893C80.704 159.359 65.8557 173.444 56.0081 175.291C59.8548 173.675 75.7032 161.36 83.6275 152.893ZM27.1578 143.657C22.7725 144.504 15.9254 142.58 13.7712 137.962C16.6178 140.656 21.5416 142.58 27.1578 143.657ZM4.84685 126.879C3.3851 123.261 3.23124 113.717 6.38554 108.253C4.84685 112.178 4.15445 121.26 4.84685 126.879ZM14.6175 82.8534C20.6184 69.3841 40.6213 53.298 45.7758 51.4508C38.8518 56.0688 22.7725 70.7696 14.6175 82.8534ZM30.9275 75.5415C49.6995 49.6806 80.8578 36.5192 92.8596 40.0597C78.5498 40.1366 49.084 54.5295 30.9275 75.5415ZM79.7038 98.9395C79.7038 98.9395 87.628 84.8545 101.707 72.2319C93.3981 86.4708 80.5501 100.402 79.7038 98.9395ZM77.8574 96.3226C84.2429 80.8522 104.015 64.1504 104.246 67.383C99.4759 70.8465 88.2435 80.1595 77.8574 96.3226ZM112.555 55.761C146.252 28.3607 182.565 23.6657 186.719 32.286C175.179 26.1286 141.405 34.8259 112.555 55.761ZM256.037 62.9189C256.191 61.8414 255.883 59.1475 253.421 59.1475C252.575 59.1475 253.96 66.9982 249.805 75.7724C241.804 92.7052 224.956 113.948 211.107 113.948C206.107 113.948 199.721 112.486 199.721 103.173C199.721 76.9269 222.417 55.761 231.341 55.761C233.264 57.3773 213.877 90.0113 209.03 90.0113C209.03 87.1636 212.261 83.854 212.261 80.3904C212.261 78.1584 211.492 77.4657 210.338 77.4657C209.184 77.4657 202.414 85.6242 202.414 96.6305C202.414 100.094 204.414 103.096 208.338 103.096C219.262 103.096 239.727 70.5387 239.727 54.3756C239.727 50.2963 237.957 47.0637 236.034 47.0637C236.034 46.217 236.034 42.5996 231.726 42.5996C221.724 42.5996 192.951 62.9189 192.951 101.71C192.951 112.948 199.26 128.957 214.954 128.957C246.805 129.034 268.885 62.9189 256.037 62.9189ZM233.341 46.294C229.033 45.7552 223.955 48.3721 221.878 49.7575C226.11 45.2934 233.418 44.2159 233.341 46.294ZM204.799 115.103C207.261 116.026 213.569 117.489 220.109 113.255C217.955 117.335 207.107 119.105 204.799 115.103ZM245.805 102.095C244.574 103.865 243.881 104.25 242.804 104.25C246.651 100.094 254.344 85.3933 257.268 75.6954C256.652 80.3135 250.729 95.0142 245.805 102.095ZM68.5484 209.849C53.8539 209.849 21.8493 284.892 21.8493 314.14C21.8493 334.613 33.7741 337.692 35.5436 335.306C37.3131 332.92 33.7741 334.921 33.7741 324.453C33.7741 299.901 59.7009 238.327 73.5491 218.008C74.7031 216.391 71.7796 209.849 68.5484 209.849ZM35.6975 271.115C45.0834 240.097 65.2402 206.155 70.7025 215.314C61.8551 215.314 47.8531 240.328 35.6975 271.115ZM88.859 242.406C97.7064 225.935 104.631 208.233 104.631 197.073C104.631 192.993 103.784 185.835 99.4759 185.835C97.7834 181.91 93.552 179.909 89.2437 179.909C60.0856 179.909 5.77006 244.33 5.77006 268.883C5.77006 275.194 7.92422 277.657 11.5401 277.657C15.156 277.657 21.7724 270.499 20.1568 268.96C18.5411 267.344 13.1557 270.73 13.1557 270.268C13.1557 256.414 62.3936 190.684 92.321 190.684C93.6289 190.684 95.7061 191.3 95.7061 192.532C95.7061 206.463 80.7809 232.477 69.0869 252.104C59.0085 260.417 50.4688 272.116 50.4688 279.12C50.4688 281.89 52.0075 283.584 54.7771 283.584C61.3935 283.584 74.0107 268.036 84.9353 249.333C85.5508 249.333 86.0894 249.564 86.474 249.949C91.5517 255.029 72.3951 310.06 63.7785 310.06C58.7008 310.06 59.9317 292.127 56.3158 292.127C50.315 292.127 56.9313 330.611 70.3948 330.611C87.3972 330.611 99.0912 270.422 99.0912 255.414C99.0912 248.718 96.6293 242.021 88.859 242.406ZM79.473 185.374C83.5505 182.603 94.0136 180.217 95.3984 185.912C92.7826 183.372 85.8586 183.603 79.473 185.374ZM68.6253 322.76C74.78 321.528 87.0126 293.435 94.1674 262.726C90.9362 294.128 74.7031 329.764 68.6253 322.76ZM214.416 196.996C212.261 196.149 209.107 197.996 206.491 200.844C210.8 193.378 215.108 194.302 214.416 196.996ZM211.261 201.383C204.183 204.846 196.567 219.47 194.797 226.936C193.874 221.086 204.337 202.075 211.261 201.383ZM212.569 202.691C212.646 204.231 201.491 228.398 196.105 228.398C196.413 227.321 196.798 226.32 197.182 225.243C201.414 213.544 209.03 202.691 212.569 202.691ZM205.414 230.168C198.798 238.327 194.182 235.248 194.182 232.324C195.721 235.941 202.029 233.555 205.414 230.168ZM115.786 261.417C120.017 247.178 126.711 231.939 130.48 231.939C130.557 234.633 121.787 257.8 115.786 261.417ZM103.784 277.426C103.169 244.561 125.941 216.314 129.173 222.318C123.018 223.549 107.323 243.253 103.784 277.426ZM118.94 286.893C125.557 281.352 133.712 267.959 136.789 257.492C134.019 270.73 123.326 286.893 118.94 286.893ZM149.175 204.231C155.946 207.078 170.409 206.847 176.025 206.001C173.179 207.925 155.869 209.387 149.175 204.231ZM181.18 214.005C182.796 218.623 164.485 244.023 164.101 254.644C162.485 244.638 180.872 219.624 181.18 214.005ZM195.259 258.954C198.798 259.878 204.876 257.184 210.723 251.796C207.338 256.183 199.336 263.264 195.259 258.954ZM217.108 235.402C223.725 226.859 230.956 216.622 235.88 205.231C231.187 219.855 218.878 236.403 217.108 235.402ZM237.188 280.736C233.649 280.659 229.879 280.89 226.033 281.352L226.725 279.735C230.803 279.581 234.342 279.889 237.188 280.736ZM226.879 265.727C226.571 265.727 226.34 265.727 226.033 265.804C230.418 253.105 235.573 239.328 240.573 225.32C240.881 225.627 241.266 225.858 241.65 226.089C236.65 239.02 231.572 252.951 226.879 265.727ZM249.728 180.833C252.883 184.912 246.266 202.537 242.958 211.542C242.343 209.31 249.498 192.147 249.728 180.833ZM269.424 183.449C267.192 182.757 264.192 184.835 261.807 187.914C265.577 180.217 269.885 180.756 269.424 183.449ZM269.27 192.762C270.116 192.762 269.577 201.46 267.885 211.004C264.038 213.313 259.807 215.237 255.191 216.545C261.884 202.537 267.346 192.762 269.27 192.762ZM255.883 236.249C252.96 236.249 251.036 232.17 249.575 228.321C254.652 228.321 259.422 227.629 263.807 226.551C261.807 232.17 259.114 236.249 255.883 236.249ZM259.422 245.485C265.346 243.715 269.962 234.556 273.039 226.243C271.193 235.479 264.5 248.41 259.422 245.485ZM271.809 212.158C277.117 209.156 287.58 199.151 291.581 193.147C289.965 198.766 279.887 209.695 271.809 212.158ZM101.707 334.921C102.246 335.536 102.63 335.536 106.862 332.843C105.631 333.92 100.784 336.999 103.092 339C106.785 334.459 115.017 329.148 113.555 327.609C112.939 326.993 108.785 329.456 105.4 331.688C131.942 309.752 179.641 288.202 211.569 281.659L210.877 283.892C179.718 291.049 145.098 307.982 135.789 315.679C161.408 302.287 188.643 293.897 209.107 289.664C208.646 291.28 208.107 292.743 207.645 294.205C206.107 299.054 215.8 303.364 216.339 300.209C216.724 298.053 217.185 295.821 217.724 293.512C218.878 294.282 220.493 294.744 220.801 293.897C221.647 291.819 222.571 289.587 223.571 287.201C227.802 286.662 231.495 286.431 234.419 286.431C248.113 286.431 241.65 293.051 244.958 293.051C248.267 293.051 252.96 284.43 252.96 279.812C252.96 275.579 250.421 267.805 231.88 267.805L232.11 267.267C237.188 266.959 243.497 267.421 248.113 269.191C245.189 267.113 240.419 265.65 232.88 265.496C237.419 255.106 242.42 244.023 247.113 233.786C248.959 241.329 253.113 249.718 261.115 249.718C267.039 249.718 273.809 239.405 276.732 221.394C293.966 211.773 302.89 194.533 302.89 185.758C302.89 166.748 289.426 163.669 288.58 164.439C287.349 165.67 289.426 166.671 289.503 167.594C289.58 168.364 289.196 169.287 289.426 169.98C289.965 171.52 292.888 174.136 292.888 177.446C292.888 183.449 287.503 194.148 278.117 203.153C278.117 202.691 278.117 202.229 278.117 201.845C278.117 189.299 275.271 178.524 268.423 178.524C262.269 178.524 253.652 196.072 244.728 218.316C244.189 218.316 243.574 218.393 243.035 218.393C245.959 210.08 248.805 201.691 251.267 193.455C256.652 175.753 247.959 169.826 246.343 175.137C246.113 175.907 245.728 177.061 245.343 178.447C234.88 209.233 205.799 250.796 195.49 250.796C192.797 250.796 192.489 244.253 194.105 236.095C194.874 237.096 195.874 237.711 197.336 237.711C206.645 237.711 219.878 213.698 219.878 202.922C219.878 199.459 218.185 198.997 217.416 198.997C217.416 198.227 219.262 189.915 211.723 189.915C202.645 189.915 192.643 208.156 189.258 217.161C182.488 233.401 166.101 260.57 164.255 260.57C164.255 250.719 185.027 220.471 185.027 208.695C185.027 205.077 182.565 199.228 178.18 199.843C177.718 198.766 176.872 196.457 171.871 196.457C166.87 196.457 152.099 200.767 147.714 196.38C144.252 192.916 143.636 189.53 141.405 190.684C138.482 192.147 140.559 200.613 147.56 205.924C151.253 232.708 123.479 286.047 113.94 286.047C111.478 286.047 111.324 281.198 112.478 274.348C112.862 274.502 113.247 274.655 113.709 274.655C123.864 274.655 138.866 242.329 138.866 229.861C138.866 223.549 136.943 217.161 131.25 219.932C131.25 218.931 130.865 216.699 128.788 216.699C120.017 216.699 104.477 241.944 101.322 264.804C100.938 267.421 100.784 270.037 100.784 272.577C100.784 283.122 103.476 286.508 104.707 286.508C104.707 294.128 110.17 299.362 116.401 299.362C136.712 299.362 153.715 243.099 153.715 222.78C153.715 219.393 153.099 213.544 152.022 208.541C154.561 209.618 157.561 210.311 160.946 210.311C169.255 210.311 173.179 209.541 175.102 209.079C175.102 215.16 151.945 239.482 151.945 259.493C151.945 265.881 154.869 270.037 157.177 269.96C157.177 273.424 159.1 275.194 162.562 275.194C169.794 275.194 178.641 259.878 184.642 244.638C185.104 249.872 186.335 251.181 187.258 251.181C186.335 257.8 191.643 263.187 197.721 263.187C206.645 263.187 218.108 248.333 227.956 230.784C224.032 242.791 219.878 255.414 216.108 267.113C161.793 276.426 84.4737 326.685 100.553 335.921C101.092 335.536 101.399 335.229 101.707 334.921ZM216.108 169.903C220.801 164.439 226.879 154.279 228.956 146.043C227.571 155.818 220.647 166.671 216.108 169.903Z" fill="white"/>
</svg>