<svg width="169" height="24" viewBox="0 0 169 24" fill="none" xmlns="http://www.w3.org/2000/svg">
<g clip-path="url(#clip0_946_223)">
<path d="M166.281 20.0026H159.693V6.65482H166.317L166.281 20.0026ZM157.618 4.61559V22.0561H168.314V4.61559H157.618ZM118.451 22.0561V4.61559H116.363L105.382 18.8047V4.61559H103.286V22.0561H105.382L116.363 8.0381V22.0561H118.451ZM76.5188 22.0561V4.61559H74.4294V12.2805H67.1852V4.61559H65.0889V22.0561H67.1852V14.3768H74.4294V22.0561H76.5188ZM97.4886 22.0561V4.61559H95.3923L84.4117 18.8047V4.61559H82.323V22.0561H84.4117L95.3923 8.0381V22.0561H97.4886ZM50.0798 13.343L58.1229 22.0561H61.032L52.9176 13.343L61.032 4.62984H58.1229L50.0798 13.343ZM47.8837 22.0561H49.9515V4.61559H47.8837V22.0561ZM107.642 0.330322V2.42661H114.116V0.330322H107.642ZM47.7482 13.3287L39.7053 4.61559H36.789L44.8961 13.3287L36.8033 22.0561H39.7196L47.7482 13.3287ZM151.08 20.0026H144.456V6.65482H151.08V20.0026ZM142.417 4.61559V22.0561H153.112V4.61559H142.417ZM11.7832 22.0561V4.61559H9.69409V12.2805H2.44267V4.61559H0.353516V22.0561H2.44267V14.3768H9.69409V22.0561H11.7832ZM32.7462 22.0561V4.61559H30.6356L19.655 18.8047V4.61559H17.5873V22.0561H19.6764L30.6356 8.02384V22.0561H32.7462ZM128.184 10.3625L131.201 13.3287L128.184 16.2949L132.22 20.3734L136.256 16.2949L133.24 13.3287L136.256 10.3625L132.22 6.28408L128.184 10.3625ZM132.22 3.34641L139.144 10.3625L136.163 13.3287L139.18 16.2949L132.256 23.311L125.332 16.2949L128.349 13.3287L125.332 10.3625L132.22 3.34641Z" fill="white"/>
</g>
<defs>
<clipPath id="clip0_946_223">
<rect width="168.7" height="23.7687" fill="white"/>
</clipPath>
</defs>
</svg>
