<svg width="242" height="54" viewBox="0 0 242 54" fill="none" xmlns="http://www.w3.org/2000/svg">
<path d="M69.0472 20.4556H67.4745V14.2281L64.4178 20.4556H62.7817L59.725 14.2027V20.4556H58.1523V12.1353H60.3846L63.6061 18.6672L66.815 12.1353H69.0472V20.4556ZM72.6023 14.1393V18.5911L76.7751 14.1393H78.1703V20.4556H76.699V16.0037L72.5262 20.4556H71.1311V14.1393H72.6023ZM81.6948 14.1393V16.6125H85.7535V14.1393H87.2755V20.4556H85.7535V17.957H81.6948V20.4556H80.1728V14.1393H81.6948ZM90.7478 14.1393V18.5911L94.9206 14.1393H96.3158V20.4556H94.8445V16.0037L90.6717 20.4556H89.2766V14.1393H90.7478ZM101.641 20.6078C100.872 20.6078 100.204 20.4809 99.6374 20.2273C99.0709 19.9651 98.6312 19.5931 98.3184 19.1111C98.014 18.6292 97.8618 18.0669 97.8618 17.4243V17.2213C97.8618 16.5618 98.014 15.9911 98.3184 15.5091C98.6228 15.0187 99.0582 14.6424 99.6247 14.3803C100.2 14.1182 100.872 13.9871 101.641 13.9871C102.343 13.9871 102.973 14.1055 103.531 14.3422C104.089 14.579 104.525 14.9087 104.838 15.3315C105.15 15.7543 105.307 16.232 105.307 16.7647V16.8028H103.734V16.7647C103.734 16.3589 103.54 16.0291 103.151 15.7754C102.762 15.5133 102.259 15.3823 101.641 15.3823C100.94 15.3823 100.394 15.5429 100.005 15.8642C99.6247 16.1855 99.4345 16.6421 99.4345 17.234V17.4116C99.4345 17.9866 99.6247 18.4305 100.005 18.7433C100.394 19.0562 100.94 19.2126 101.641 19.2126C102.259 19.2126 102.762 19.0858 103.151 18.8321C103.54 18.5784 103.734 18.2487 103.734 17.8428V17.8048H105.307V17.8428C105.307 18.384 105.155 18.8659 104.85 19.2887C104.546 19.703 104.115 20.0286 103.557 20.2653C103.007 20.4936 102.369 20.6078 101.641 20.6078ZM105.743 15.5091V14.1393H113.099V15.5091H110.207V20.4556H108.673V15.5091H105.743ZM120.999 17.8048H115.178C115.237 18.2529 115.453 18.5996 115.825 18.8448C116.205 19.09 116.708 19.2126 117.334 19.2126C117.917 19.2126 118.391 19.128 118.754 18.9589C119.118 18.7898 119.321 18.5615 119.363 18.274H120.999C120.915 19.0181 120.551 19.5931 119.909 19.999C119.274 20.4048 118.416 20.6078 117.334 20.6078C116.564 20.6078 115.896 20.4809 115.33 20.2273C114.772 19.9651 114.341 19.5973 114.036 19.1238C113.732 18.6419 113.58 18.0796 113.58 17.4369V17.1833C113.58 16.5322 113.732 15.9657 114.036 15.4837C114.341 15.0018 114.776 14.6339 115.343 14.3803C115.909 14.1182 116.573 13.9871 117.334 13.9871C118.484 13.9871 119.38 14.2661 120.023 14.8242C120.674 15.3823 120.999 16.1517 120.999 17.1325V17.8048ZM117.321 15.3823C116.763 15.3823 116.302 15.4837 115.939 15.6867C115.575 15.8896 115.338 16.1728 115.228 16.5364H119.351C119.249 16.1728 119.021 15.8896 118.666 15.6867C118.31 15.4837 117.862 15.3823 117.321 15.3823ZM126.224 13.9871C126.985 13.9871 127.648 14.1182 128.215 14.3803C128.79 14.6424 129.229 15.0187 129.534 15.5091C129.847 15.9911 130.003 16.5576 130.003 17.2086V17.3735C130.003 18.0246 129.847 18.5954 129.534 19.0858C129.229 19.5677 128.79 19.944 128.215 20.2146C127.648 20.4767 126.985 20.6078 126.224 20.6078C125.378 20.6078 124.659 20.3837 124.067 19.9356V22.6117H122.545V14.1393H123.966L124.004 14.7227C124.63 14.2323 125.37 13.9871 126.224 13.9871ZM128.43 17.2086C128.43 16.6421 128.232 16.1982 127.834 15.8769C127.437 15.5471 126.892 15.3823 126.198 15.3823C125.742 15.3823 125.323 15.4584 124.943 15.6106C124.571 15.7628 124.279 15.9699 124.067 16.232V18.3375C124.279 18.608 124.575 18.8237 124.955 18.9843C125.336 19.1365 125.75 19.2126 126.198 19.2126C126.9 19.2126 127.445 19.052 127.834 18.7306C128.232 18.4009 128.43 17.9485 128.43 17.3735V17.2086ZM134.873 20.6078C134.104 20.6078 133.436 20.4809 132.869 20.2273C132.303 19.9651 131.863 19.5931 131.55 19.1111C131.246 18.6292 131.093 18.0669 131.093 17.4243V17.2213C131.093 16.5618 131.246 15.9911 131.55 15.5091C131.854 15.0187 132.29 14.6424 132.856 14.3803C133.431 14.1182 134.104 13.9871 134.873 13.9871C135.575 13.9871 136.205 14.1055 136.763 14.3422C137.321 14.579 137.756 14.9087 138.069 15.3315C138.382 15.7543 138.539 16.232 138.539 16.7647V16.8028H136.966V16.7647C136.966 16.3589 136.771 16.0291 136.382 15.7754C135.993 15.5133 135.49 15.3823 134.873 15.3823C134.171 15.3823 133.626 15.5429 133.237 15.8642C132.856 16.1855 132.666 16.6421 132.666 17.234V17.4116C132.666 17.9866 132.856 18.4305 133.237 18.7433C133.626 19.0562 134.171 19.2126 134.873 19.2126C135.49 19.2126 135.993 19.0858 136.382 18.8321C136.771 18.5784 136.966 18.2487 136.966 17.8428V17.8048H138.539V17.8428C138.539 18.384 138.386 18.8659 138.082 19.2887C137.778 19.703 137.346 20.0286 136.788 20.2653C136.239 20.4936 135.6 20.6078 134.873 20.6078ZM138.974 15.5091V14.1393H146.331V15.5091H143.439V20.4556H141.904V15.5091H138.974ZM153.883 17.2467C154.534 17.5088 154.86 17.9358 154.86 18.5277V18.6545C154.86 19.2295 154.64 19.6734 154.2 19.9863C153.76 20.2991 153.13 20.4556 152.31 20.4556H147.503V14.1393H152.133C152.953 14.1393 153.583 14.2915 154.022 14.5959C154.471 14.9003 154.695 15.3357 154.695 15.9023V16.0291C154.695 16.2912 154.623 16.528 154.479 16.7394C154.344 16.9423 154.145 17.1114 153.883 17.2467ZM149.025 15.3188V16.6759H152.082C152.42 16.6759 152.678 16.621 152.856 16.5111C153.033 16.4011 153.122 16.2447 153.122 16.0418V15.915C153.122 15.5175 152.775 15.3188 152.082 15.3188H149.025ZM153.287 18.5023C153.287 18.2994 153.198 18.1472 153.02 18.0457C152.843 17.9358 152.589 17.8809 152.259 17.8809H149.025V19.276H152.259C152.598 19.276 152.851 19.2211 153.02 19.1111C153.198 19.0012 153.287 18.8406 153.287 18.6292V18.5023ZM159.869 20.6078C159.091 20.6078 158.415 20.4809 157.84 20.2273C157.265 19.9651 156.821 19.5931 156.508 19.1111C156.203 18.6292 156.051 18.0627 156.051 17.4116V17.2213C156.051 16.5618 156.203 15.9911 156.508 15.5091C156.812 15.0187 157.252 14.6424 157.827 14.3803C158.402 14.1182 159.083 13.9871 159.869 13.9871C160.647 13.9871 161.319 14.1182 161.886 14.3803C162.452 14.6424 162.888 15.0187 163.192 15.5091C163.496 15.9911 163.649 16.5618 163.649 17.2213V17.4116C163.649 18.0627 163.496 18.6292 163.192 19.1111C162.888 19.5931 162.452 19.9651 161.886 20.2273C161.319 20.4809 160.647 20.6078 159.869 20.6078ZM159.856 19.2126C160.55 19.2126 161.091 19.0562 161.48 18.7433C161.877 18.422 162.076 17.9781 162.076 17.4116V17.2213C162.076 16.6379 161.881 16.1855 161.492 15.8642C161.103 15.5429 160.558 15.3823 159.856 15.3823C159.138 15.3823 158.584 15.5429 158.195 15.8642C157.814 16.1771 157.624 16.6294 157.624 17.2213V17.4116C157.624 17.9781 157.818 18.422 158.207 18.7433C158.605 19.0562 159.154 19.2126 159.856 19.2126ZM177.65 20.24V20.4556H175.913L173.44 17.9189H171.791V20.4556H170.269V14.1393H171.791V16.5998H173.401L175.735 14.1393H177.498V14.3549L174.797 17.234L177.65 20.24ZM186.459 14.1393V14.3549L183.009 21.0644C182.722 21.6224 182.379 22.0198 181.982 22.2566C181.585 22.4933 181.06 22.6117 180.409 22.6117H178.976V21.2673H180.397C180.718 21.2673 180.955 21.2208 181.107 21.1278C181.259 21.0348 181.403 20.8487 181.538 20.5697L178.329 14.3549V14.1393H179.953L182.401 19.035L184.836 14.1393H186.459ZM194.475 20.4556H192.953V15.4837H189.554L189.503 17.4496C189.477 18.4558 189.27 19.2084 188.881 19.7073C188.501 20.2061 187.934 20.4556 187.182 20.4556H186.522V19.0985H186.839C187.245 19.0985 187.541 18.9632 187.727 18.6926C187.922 18.422 188.023 17.9781 188.032 17.3608L188.108 14.1393H194.475V20.4556ZM201.183 15.8642C202.012 15.8642 202.659 16.0629 203.124 16.4603C203.597 16.8493 203.834 17.3947 203.834 18.0965V18.2487C203.834 18.9251 203.597 19.462 203.124 19.8595C202.65 20.2484 202.003 20.4429 201.183 20.4429H196.478V14.1393H198V15.8642H201.183ZM202.261 18.0965C202.261 17.5046 201.864 17.2086 201.069 17.2086H198V19.0985H201.069C201.864 19.0985 202.261 18.8152 202.261 18.2487V18.0965ZM203.914 15.5091V14.1393H211.271V15.5091H208.379V20.4556H206.844V15.5091H203.914ZM219.926 14.1393V14.3549L216.476 21.0644C216.189 21.6224 215.846 22.0198 215.449 22.2566C215.052 22.4933 214.527 22.6117 213.876 22.6117H212.443V21.2673H213.864C214.185 21.2673 214.422 21.2208 214.574 21.1278C214.726 21.0348 214.87 20.8487 215.005 20.5697L211.796 14.3549V14.1393H213.42L215.868 19.035L218.303 14.1393H219.926ZM224.965 13.9871C225.726 13.9871 226.39 14.1182 226.956 14.3803C227.531 14.6424 227.971 15.0187 228.275 15.5091C228.588 15.9911 228.744 16.5576 228.744 17.2086V17.3735C228.744 18.0246 228.588 18.5954 228.275 19.0858C227.971 19.5677 227.531 19.944 226.956 20.2146C226.39 20.4767 225.726 20.6078 224.965 20.6078C224.119 20.6078 223.401 20.3837 222.809 19.9356V22.6117H221.287V14.1393H222.707L222.745 14.7227C223.371 14.2323 224.111 13.9871 224.965 13.9871ZM227.172 17.2086C227.172 16.6421 226.973 16.1982 226.576 15.8769C226.178 15.5471 225.633 15.3823 224.939 15.3823C224.483 15.3823 224.064 15.4584 223.684 15.6106C223.312 15.7628 223.02 15.9699 222.809 16.232V18.3375C223.02 18.608 223.316 18.8237 223.697 18.9843C224.077 19.1365 224.491 19.2126 224.939 19.2126C225.641 19.2126 226.187 19.052 226.576 18.7306C226.973 18.4009 227.172 17.9485 227.172 17.3735V17.2086ZM234.718 15.8642C235.555 15.8642 236.206 16.0672 236.671 16.473C237.136 16.8704 237.369 17.4158 237.369 18.1092V18.2614C237.369 18.9378 237.132 19.4747 236.658 19.8721C236.193 20.2611 235.546 20.4556 234.718 20.4556H230.342V14.1393H231.864V15.8642H234.718ZM239.677 14.1393V20.4556H238.155V14.1393H239.677ZM235.796 18.1092C235.796 17.5088 235.398 17.2086 234.604 17.2086H231.864V19.1111H234.604C235.398 19.1111 235.796 18.8279 235.796 18.2614V18.1092ZM59.7377 27.1353V30.5852H64.7983V27.1353H66.3837V35.4556H64.7983V32.0057H59.7377V35.4556H58.1523V27.1353H59.7377ZM69.9393 29.1393V33.5911L74.1121 29.1393H75.5073V35.4556H74.036V31.0037L69.8632 35.4556H68.4681V29.1393H69.9393ZM89.0897 35.24V35.4556H87.3901L85.1706 32.9443H83.7247V35.4556H82.2027V32.9443H80.7441L78.5372 35.4556H76.8376V35.24L79.4504 32.234L76.9898 29.3549V29.1393H78.7021L80.8075 31.5998H82.2027V29.1393H83.7247V31.5998H85.1071L87.2252 29.1393H88.9375V29.3549L86.4643 32.234L89.0897 35.24ZM96.8838 32.8048H91.0621C91.1213 33.2529 91.3369 33.5996 91.709 33.8448C92.0895 34.09 92.5926 34.2126 93.2183 34.2126C93.8017 34.2126 94.2752 34.128 94.6388 33.9589C95.0024 33.7898 95.2053 33.5615 95.2476 33.274H96.8838C96.7992 34.0181 96.4356 34.5931 95.793 34.999C95.1588 35.4048 94.3006 35.6078 93.2183 35.6078C92.4488 35.6078 91.7809 35.4809 91.2143 35.2273C90.6563 34.9651 90.225 34.5973 89.9206 34.1238C89.6162 33.6419 89.464 33.0796 89.464 32.4369V32.1833C89.464 31.5322 89.6162 30.9657 89.9206 30.4837C90.225 30.0018 90.6605 29.6339 91.227 29.3803C91.7935 29.1182 92.4573 28.9871 93.2183 28.9871C94.3682 28.9871 95.2645 29.2661 95.9071 29.8242C96.5582 30.3823 96.8838 31.1517 96.8838 32.1325V32.8048ZM93.2056 30.3823C92.6475 30.3823 92.1867 30.4837 91.8231 30.6867C91.4595 30.8896 91.2228 31.1728 91.1129 31.5364H95.2349C95.1335 31.1728 94.9052 30.8896 94.55 30.6867C94.1949 30.4837 93.7468 30.3823 93.2056 30.3823ZM103.769 29.1393V30.4837H99.9518V35.4556H98.4298V29.1393H103.769ZM107.996 35.6078C107.218 35.6078 106.542 35.4809 105.967 35.2273C105.392 34.9651 104.948 34.5931 104.635 34.1111C104.331 33.6292 104.179 33.0627 104.179 32.4116V32.2213C104.179 31.5618 104.331 30.9911 104.635 30.5091C104.94 30.0187 105.379 29.6424 105.954 29.3803C106.529 29.1182 107.21 28.9871 107.996 28.9871C108.774 28.9871 109.446 29.1182 110.013 29.3803C110.579 29.6424 111.015 30.0187 111.319 30.5091C111.624 30.9911 111.776 31.5618 111.776 32.2213V32.4116C111.776 33.0627 111.624 33.6292 111.319 34.1111C111.015 34.5931 110.579 34.9651 110.013 35.2273C109.446 35.4809 108.774 35.6078 107.996 35.6078ZM107.984 34.2126C108.677 34.2126 109.218 34.0562 109.607 33.7433C110.004 33.422 110.203 32.9781 110.203 32.4116V32.2213C110.203 31.6379 110.009 31.1855 109.62 30.8642C109.231 30.5429 108.685 30.3823 107.984 30.3823C107.265 30.3823 106.711 30.5429 106.322 30.8642C105.942 31.1771 105.751 31.6294 105.751 32.2213V32.4116C105.751 32.9781 105.946 33.422 106.335 33.7433C106.732 34.0562 107.282 34.2126 107.984 34.2126ZM116.996 28.9871C117.757 28.9871 118.421 29.1182 118.987 29.3803C119.562 29.6424 120.002 30.0187 120.306 30.5091C120.619 30.9911 120.776 31.5576 120.776 32.2086V32.3735C120.776 33.0246 120.619 33.5954 120.306 34.0858C120.002 34.5677 119.562 34.944 118.987 35.2146C118.421 35.4767 117.757 35.6078 116.996 35.6078C116.15 35.6078 115.432 35.3837 114.84 34.9356V37.6117H113.318V29.1393H114.738L114.776 29.7227C115.402 29.2323 116.142 28.9871 116.996 28.9871ZM119.203 32.2086C119.203 31.6421 119.004 31.1982 118.607 30.8769C118.209 30.5471 117.664 30.3823 116.971 30.3823C116.514 30.3823 116.095 30.4584 115.715 30.6106C115.343 30.7628 115.051 30.9699 114.84 31.232V33.3375C115.051 33.608 115.347 33.8237 115.728 33.9843C116.108 34.1365 116.522 34.2126 116.971 34.2126C117.672 34.2126 118.218 34.052 118.607 33.7306C119.004 33.4009 119.203 32.9485 119.203 32.3735V32.2086ZM125.684 35.6078C124.906 35.6078 124.229 35.4809 123.654 35.2273C123.079 34.9651 122.635 34.5931 122.322 34.1111C122.018 33.6292 121.866 33.0627 121.866 32.4116V32.2213C121.866 31.5618 122.018 30.9911 122.322 30.5091C122.627 30.0187 123.067 29.6424 123.642 29.3803C124.216 29.1182 124.897 28.9871 125.684 28.9871C126.461 28.9871 127.134 29.1182 127.7 29.3803C128.267 29.6424 128.702 30.0187 129.007 30.5091C129.311 30.9911 129.463 31.5618 129.463 32.2213V32.4116C129.463 33.0627 129.311 33.6292 129.007 34.1111C128.702 34.5931 128.267 34.9651 127.7 35.2273C127.134 35.4809 126.461 35.6078 125.684 35.6078ZM125.671 34.2126C126.364 34.2126 126.905 34.0562 127.294 33.7433C127.692 33.422 127.89 32.9781 127.89 32.4116V32.2213C127.89 31.6379 127.696 31.1855 127.307 30.8642C126.918 30.5429 126.373 30.3823 125.671 30.3823C124.952 30.3823 124.398 30.5429 124.009 30.8642C123.629 31.1771 123.439 31.6294 123.439 32.2213V32.4116C123.439 32.9781 123.633 33.422 124.022 33.7433C124.419 34.0562 124.969 34.2126 125.671 34.2126ZM139.119 34.1111V37.079H137.597V35.4556H131.394V37.079H129.872L129.86 34.1111H130.862C131.251 33.4939 131.449 32.7244 131.458 31.8028L131.496 29.1393H137.888V34.1111H139.119ZM136.366 34.1111V30.4837H132.891L132.866 31.8155C132.849 32.3143 132.798 32.7498 132.714 33.1218C132.637 33.4854 132.519 33.8152 132.358 34.1111H136.366ZM143.382 35.6078C142.613 35.6078 141.945 35.4809 141.378 35.2273C140.812 34.9651 140.372 34.5931 140.059 34.1111C139.755 33.6292 139.603 33.0669 139.603 32.4243V32.2213C139.603 31.5618 139.755 30.9911 140.059 30.5091C140.364 30.0187 140.799 29.6424 141.366 29.3803C141.941 29.1182 142.613 28.9871 143.382 28.9871C144.084 28.9871 144.714 29.1055 145.272 29.3422C145.83 29.579 146.266 29.9087 146.578 30.3315C146.891 30.7543 147.048 31.232 147.048 31.7647V31.8028H145.475V31.7647C145.475 31.3589 145.281 31.0291 144.892 30.7754C144.503 30.5133 144 30.3823 143.382 30.3823C142.68 30.3823 142.135 30.5429 141.746 30.8642C141.366 31.1855 141.175 31.6421 141.175 32.234V32.4116C141.175 32.9866 141.366 33.4305 141.746 33.7433C142.135 34.0562 142.68 34.2126 143.382 34.2126C144 34.2126 144.503 34.0858 144.892 33.8321C145.281 33.5784 145.475 33.2487 145.475 32.8428V32.8048H147.048V32.8428C147.048 33.384 146.896 33.8659 146.591 34.2887C146.287 34.703 145.855 35.0286 145.297 35.2653C144.748 35.4936 144.109 35.6078 143.382 35.6078ZM155.938 35.24V35.4556H154.2L151.727 32.9189H150.078V35.4556H148.556V29.1393H150.078V31.5998H151.689L154.023 29.1393H155.786V29.3549L153.084 32.234L155.938 35.24ZM160.129 35.6078C159.351 35.6078 158.675 35.4809 158.1 35.2273C157.525 34.9651 157.081 34.5931 156.768 34.1111C156.464 33.6292 156.311 33.0627 156.311 32.4116V32.2213C156.311 31.5618 156.464 30.9911 156.768 30.5091C157.072 30.0187 157.512 29.6424 158.087 29.3803C158.662 29.1182 159.343 28.9871 160.129 28.9871C160.907 28.9871 161.579 29.1182 162.146 29.3803C162.712 29.6424 163.148 30.0187 163.452 30.5091C163.756 30.9911 163.909 31.5618 163.909 32.2213V32.4116C163.909 33.0627 163.756 33.6292 163.452 34.1111C163.148 34.5931 162.712 34.9651 162.146 35.2273C161.579 35.4809 160.907 35.6078 160.129 35.6078ZM160.116 34.2126C160.81 34.2126 161.351 34.0562 161.74 33.7433C162.137 33.422 162.336 32.9781 162.336 32.4116V32.2213C162.336 31.6379 162.141 31.1855 161.752 30.8642C161.364 30.5429 160.818 30.3823 160.116 30.3823C159.398 30.3823 158.844 30.5429 158.455 30.8642C158.074 31.1771 157.884 31.6294 157.884 32.2213V32.4116C157.884 32.9781 158.079 33.422 158.468 33.7433C158.865 34.0562 159.415 34.2126 160.116 34.2126ZM166.922 29.1393V33.5911L171.095 29.1393H172.49V35.4556H171.019V31.0037L166.846 35.4556H165.451V29.1393H166.922ZM168.977 28.3529C168.08 28.3529 167.4 28.1923 166.935 27.871C166.469 27.5497 166.237 27.0804 166.237 26.4631V26.3743H167.645V26.4631C167.645 26.6576 167.759 26.8098 167.987 26.9197C168.224 27.0212 168.554 27.0719 168.977 27.0719C169.374 27.0719 169.683 27.0212 169.902 26.9197C170.122 26.8098 170.232 26.6576 170.232 26.4631V26.3743H171.716V26.4631C171.716 27.0804 171.484 27.5497 171.019 27.871C170.562 28.1923 169.881 28.3529 168.977 28.3529ZM182.932 35.6078C182.154 35.6078 181.477 35.4809 180.902 35.2273C180.327 34.9651 179.883 34.5931 179.571 34.1111C179.266 33.6292 179.114 33.0627 179.114 32.4116V32.2213C179.114 31.5618 179.266 30.9911 179.571 30.5091C179.875 30.0187 180.315 29.6424 180.89 29.3803C181.465 29.1182 182.145 28.9871 182.932 28.9871C183.71 28.9871 184.382 29.1182 184.948 29.3803C185.515 29.6424 185.95 30.0187 186.255 30.5091C186.559 30.9911 186.711 31.5618 186.711 32.2213V32.4116C186.711 33.0627 186.559 33.6292 186.255 34.1111C185.95 34.5931 185.515 34.9651 184.948 35.2273C184.382 35.4809 183.71 35.6078 182.932 35.6078ZM182.919 34.2126C183.612 34.2126 184.154 34.0562 184.542 33.7433C184.94 33.422 185.139 32.9781 185.139 32.4116V32.2213C185.139 31.6379 184.944 31.1855 184.555 30.8642C184.166 30.5429 183.621 30.3823 182.919 30.3823C182.2 30.3823 181.646 30.5429 181.257 30.8642C180.877 31.1771 180.687 31.6294 180.687 32.2213V32.4116C180.687 32.9781 180.881 33.422 181.27 33.7433C181.668 34.0562 182.217 34.2126 182.919 34.2126ZM192.172 29.5071C192.866 29.5071 193.474 29.6297 193.999 29.8749C194.523 30.1117 194.925 30.4499 195.204 30.8896C195.491 31.3293 195.635 31.8408 195.635 32.4243V32.7413C195.635 33.3079 195.478 33.811 195.166 34.2507C194.853 34.6819 194.413 35.0159 193.847 35.2526C193.28 35.4894 192.62 35.6078 191.868 35.6078C190.625 35.6078 189.665 35.2822 188.989 34.6312C188.321 33.9801 187.987 33.0542 187.987 31.8535V30.953C187.987 28.5939 189.226 27.3214 191.703 27.1353L193.212 27.0212C193.474 26.9958 193.606 26.9028 193.606 26.7422V26.628H195.242V26.7929C195.242 27.7653 194.696 28.298 193.606 28.391L191.728 28.5432C190.951 28.6108 190.376 28.7926 190.004 29.0886C189.631 29.3845 189.445 29.8073 189.445 30.3569V30.3696C189.792 30.0905 190.198 29.8792 190.663 29.7354C191.128 29.5832 191.631 29.5071 192.172 29.5071ZM194.062 32.4496C194.062 31.9508 193.868 31.566 193.479 31.2955C193.09 31.0249 192.544 30.8896 191.843 30.8896C190.853 30.8896 190.08 31.1813 189.522 31.7647V32.2467C189.522 32.8978 189.716 33.3924 190.105 33.7306C190.494 34.0604 191.069 34.2253 191.83 34.2253C192.532 34.2253 193.077 34.0942 193.466 33.8321C193.863 33.5615 194.062 33.1937 194.062 32.7287V32.4496ZM204.21 35.4556H202.688V30.4837H199.289L199.238 32.4496C199.213 33.4558 199.006 34.2084 198.617 34.7073C198.236 35.2061 197.67 35.4556 196.917 35.4556H196.258V34.0985H196.575C196.981 34.0985 197.277 33.9632 197.463 33.6926C197.657 33.422 197.759 32.9781 197.767 32.3608L197.843 29.1393H204.21V35.4556ZM214.043 34.1111V35.4556H213.117C212.711 35.4556 212.364 35.3879 212.077 35.2526C211.798 35.1089 211.591 34.9017 211.455 34.6312C211.126 34.9694 210.737 35.2188 210.288 35.3795C209.84 35.5317 209.312 35.6078 208.703 35.6078C207.781 35.6078 207.067 35.4429 206.56 35.1131C206.052 34.7749 205.799 34.3014 205.799 33.6926C205.799 33.1853 205.989 32.7752 206.369 32.4623C206.758 32.141 207.308 31.9423 208.018 31.8662L211.265 31.5111C211.164 30.7923 210.517 30.433 209.325 30.433C208.707 30.433 208.225 30.5218 207.879 30.6993C207.532 30.8769 207.359 31.1221 207.359 31.435V31.473H205.837V31.435C205.837 30.953 205.98 30.526 206.268 30.154C206.555 29.7819 206.961 29.4944 207.485 29.2915C208.018 29.0886 208.635 28.9871 209.337 28.9871C210.428 28.9871 211.278 29.2323 211.887 29.7227C212.495 30.2047 212.8 30.8811 212.8 31.752V33.5023C212.8 33.6968 212.859 33.849 212.977 33.9589C213.096 34.0604 213.265 34.1111 213.485 34.1111H214.043ZM208.665 34.2633C209.308 34.2633 209.853 34.1661 210.301 33.9716C210.758 33.7771 211.083 33.5023 211.278 33.1472V32.754L208.348 33.0711C207.663 33.1472 207.321 33.3544 207.321 33.6926C207.321 34.0731 207.769 34.2633 208.665 34.2633ZM218.441 35.6078C217.672 35.6078 217.004 35.4809 216.438 35.2273C215.871 34.9651 215.431 34.5931 215.118 34.1111C214.814 33.6292 214.662 33.0669 214.662 32.4243V32.2213C214.662 31.5618 214.814 30.9911 215.118 30.5091C215.423 30.0187 215.858 29.6424 216.425 29.3803C217 29.1182 217.672 28.9871 218.441 28.9871C219.143 28.9871 219.773 29.1055 220.331 29.3422C220.889 29.579 221.325 29.9087 221.638 30.3315C221.951 30.7543 222.107 31.232 222.107 31.7647V31.8028H220.534V31.7647C220.534 31.3589 220.34 31.0291 219.951 30.7754C219.562 30.5133 219.059 30.3823 218.441 30.3823C217.74 30.3823 217.194 30.5429 216.805 30.8642C216.425 31.1855 216.235 31.6421 216.235 32.234V32.4116C216.235 32.9866 216.425 33.4305 216.805 33.7433C217.194 34.0562 217.74 34.2126 218.441 34.2126C219.059 34.2126 219.562 34.0858 219.951 33.8321C220.34 33.5784 220.534 33.2487 220.534 32.8428V32.8048H222.107V32.8428C222.107 33.384 221.955 33.8659 221.65 34.2887C221.346 34.703 220.915 35.0286 220.357 35.2653C219.807 35.4936 219.169 35.6078 218.441 35.6078ZM222.543 30.5091V29.1393H229.899V30.5091H227.007V35.4556H225.473V30.5091H222.543ZM232.543 29.1393V33.5911L236.716 29.1393H238.111V35.4556H236.64V31.0037L232.467 35.4556H231.072V29.1393H232.543Z" fill="white"/>
<g clip-path="url(#clip0_946_2241)">
<path d="M13.106 29.1909C12.8639 28.7794 12.6549 28.349 12.4809 27.9039C12.2479 28.2081 11.9271 28.4322 11.5627 28.5455C11.1962 28.6193 8.06345 28.907 8.03646 28.907C7.48479 28.9498 6.91376 29.0392 6.53568 29.6302C6.32262 30.0054 6.13571 30.3952 5.97627 30.7965C5.6754 31.5251 5.32741 32.2329 4.9346 32.9155C4.9346 32.9155 3.84663 34.5406 3.71546 34.7117C3.58428 34.8828 3.64987 35.0578 3.71546 35.2716L3.77333 35.501C3.74138 35.7893 3.65909 36.0696 3.53027 36.3291V36.3952L4.36361 37.4877L4.41762 37.5111L4.46778 37.4877L5.50558 36.158V36.0803L5.16994 35.6098L4.94232 35.326L4.99633 35.1822C5.27025 35.1394 5.42841 35.0772 5.45928 35.0072C5.50461 34.831 5.52026 34.6483 5.50558 34.4668C5.46767 33.997 5.54726 33.5251 5.73708 33.0943C6.11334 32.5474 6.52718 32.0278 6.9755 31.5392C7.1067 31.3953 7.23012 31.2553 7.39601 31.057C7.72011 30.6488 7.87444 30.6682 8.05964 30.641C8.84382 30.6563 9.62247 30.7779 10.3745 31.0026C11.0766 31.2592 13.0519 31.4575 14.734 31.2437C14.572 30.9637 13.7695 30.2172 13.106 29.1909Z" fill="white"/>
<path d="M30.3438 33.9341C29.3831 33.2965 28.2064 32.5578 27.6663 32.4061C27.2226 32.2778 26.5089 32.4489 25.8144 32.6549C26.1735 32.9646 26.4405 33.3682 26.586 33.8213C26.6697 34.0326 26.7651 34.239 26.8715 34.4395C27.0961 34.8285 27.3543 35.1967 27.6431 35.5398C28.029 36.0102 28.3338 36.3835 28.353 36.9278C28.3723 37.4721 27.8129 39.1595 27.2959 40.1159C26.8445 40.9518 26.2543 41.8849 25.8993 42.4487C25.772 42.647 25.6794 42.7986 25.6331 42.8763C25.563 42.9995 25.506 43.1298 25.4633 43.2652C25.4247 43.4236 25.3508 43.5712 25.2473 43.6967C25.0659 43.8678 24.7535 44.0855 24.6879 44.1555L24.3715 44.2021H24.333L23.4688 45.1508V45.2208L23.5266 45.2596H25.3631L25.417 45.2286L25.7643 44.6843V44.4859L25.9186 44.2993C25.9803 44.2993 26.1347 44.2993 26.3044 44.2993L26.3507 44.2721C26.8564 43.3989 27.2974 42.4893 27.6701 41.5506C27.8399 41.1618 27.9711 40.8507 28.056 40.7108C28.7403 39.4565 29.5412 38.2706 30.4479 37.1688C30.6961 36.8888 30.9134 36.5824 31.0961 36.2552C31.1424 36.0958 31.0382 35.9441 30.8916 35.7381C30.5014 35.2218 30.3071 34.582 30.3438 33.9341Z" fill="white"/>
<path d="M20.4361 53.7741L20.193 53.6031C20.1737 53.5603 18.3682 49.1941 7.7161 49.1941C2.59649 49.1941 3.05621e-05 46.5581 3.05621e-05 41.3561V0.26441C-0.00101308 0.195979 0.0247083 0.129883 0.0716347 0.0804111C0.118561 0.0309389 0.182921 0.00206432 0.250804 2.94597e-05H40.606C40.6406 -0.000494896 40.6749 0.00598533 40.707 0.019086C40.739 0.0321867 40.7682 0.0516412 40.7926 0.0762964C40.8171 0.100951 40.8364 0.130305 40.8494 0.162618C40.8624 0.194931 40.8688 0.229546 40.8683 0.26441V41.3561C40.8683 46.5581 38.2719 49.1941 33.1522 49.1941C22.45 49.1941 20.6985 53.5603 20.6792 53.6031L20.4322 53.7741M1.08414 1.2675V40.9245C1.08414 45.7028 3.37196 47.6234 8.07107 47.6234C16.9446 47.6234 19.6954 50.0262 20.4168 51.1847C21.1499 50.0184 23.9122 47.6234 32.7625 47.6234C37.4655 47.6234 39.7495 45.7028 39.7495 40.9245V1.2675H1.08414Z" fill="white"/>
<path d="M36.2541 40.1937C36.011 38.8524 35.8991 37.5421 35.8181 36.5895C35.8031 36.0839 35.7372 35.5811 35.6213 35.0888C35.3828 34.7871 35.099 34.5248 34.7803 34.3112C34.2093 33.8563 33.4994 33.2926 33.4068 32.9154C33.0905 31.6208 33.2332 30.3105 33.3605 29.1558C33.4499 28.5237 33.4848 27.885 33.4647 27.2468C33.2244 27.0625 32.9963 26.8625 32.7818 26.6481C32.9867 26.7882 33.2119 26.8957 33.4493 26.9669C33.698 27.0514 33.9584 27.096 34.2209 27.0991C34.4193 27.1011 34.6168 27.0736 34.8073 27.0174C34.9112 26.9979 35.0099 26.9572 35.0975 26.8977C35.1851 26.8382 35.2597 26.7611 35.3166 26.6714L35.2779 26.5859C34.7271 26.3076 34.2448 25.9092 33.8659 25.4195C33.5972 25.0758 33.2755 24.7778 32.913 24.5369C32.6367 24.4171 32.3462 24.3334 32.0488 24.2881L31.8404 24.2454C31.8057 24.2454 31.7054 24.187 31.5781 24.1287C31.0611 23.8799 29.8497 23.3005 28.7 23.3161C27.7371 23.3553 26.78 23.4855 25.8412 23.7049C25.1802 23.8719 24.501 23.9542 23.8196 23.9499C23.2624 23.9086 22.7035 23.8969 22.1452 23.9149C21.0803 23.9149 20.3049 23.9421 19.5487 23.2773C18.2563 22.1459 18.6961 20.4468 19.2053 18.4795C19.565 17.3169 19.7586 16.1086 19.7802 14.891C19.4844 14.8148 19.2056 14.6829 18.9584 14.5021C19.2768 14.5987 19.6061 14.6536 19.9384 14.6654C20.3545 14.6817 20.7705 14.6278 21.1691 14.5061C21.5168 14.3803 21.8202 14.1545 22.0417 13.8567C22.2633 13.5588 22.3931 13.2019 22.4152 12.8303C22.4152 12.671 22.3342 12.6321 22.2918 12.6204C21.7722 12.6056 21.2531 12.6618 20.7486 12.7876L20.0965 12.9042C21.007 12.5892 21.8742 12.1595 22.6776 11.6251C22.8148 11.5208 22.9653 11.4359 23.1251 11.3724H23.2717C23.7771 11.4074 25.1159 11.5045 25.4901 10.4081L25.44 10.2643L25.2933 10.2915L25.2625 10.3265C25.0966 10.5373 24.8793 10.7012 24.6318 10.802C24.3843 10.9029 24.1151 10.9373 23.8505 10.9019L24.1051 10.6842C24.5569 10.3179 24.9602 9.8945 25.3049 9.42451C25.5596 9.10568 26.3968 7.86931 26.6128 5.45883C26.6128 5.34217 26.6128 5.22942 26.6128 5.11667C26.6128 5.00392 26.6128 4.89117 26.6128 4.7862C26.6784 4.23411 26.6977 3.19602 26.1421 2.52341L25.9685 2.49231L25.9107 2.6556L25.9685 2.79168C26.2032 3.23725 26.2923 3.74614 26.2231 4.24577C26.212 4.32951 26.174 4.4073 26.1151 4.46738L26.0688 4.42461L26.0225 4.34686C25.8295 3.98994 25.5054 3.72338 25.1197 3.60426L24.9732 3.66647L25.0156 3.83753C25.3131 4.06489 25.5541 4.35888 25.7195 4.69627C25.8849 5.03366 25.9701 5.40522 25.9685 5.78153C25.9609 6.73166 25.6838 7.6598 25.1699 8.45641L24.9924 8.60026C24.9269 8.60026 24.8458 8.56918 24.7147 8.46421C24.4793 8.27756 23.8042 7.07232 24.4214 5.57154L24.3597 5.38882L24.1745 5.47044C23.8512 5.98689 23.6897 6.58948 23.711 7.19977C23.7324 7.81 23.9355 8.39963 24.2941 8.89188L24.4137 9.10181C24.4674 9.21415 24.4836 9.341 24.46 9.46339C24.4137 9.64998 23.3026 10.5637 22.9168 10.7464C22.6865 10.8672 22.4203 10.899 22.1683 10.8358C21.8481 10.7153 20.2393 9.4906 20.872 6.98677L20.8218 6.81958L20.6676 6.90514C20.0619 8.5303 20.3087 9.90272 21.4121 10.9875L21.497 11.0808L21.5395 11.2713L21.3813 11.4385C20.8155 11.7565 20.1727 11.9087 19.5256 11.8778C19.328 11.7993 19.1576 11.6641 19.0356 11.489C18.7891 11.1697 18.6141 10.8003 18.5229 10.4063C18.4317 10.0123 18.4263 9.60309 18.507 9.20678L18.4029 9.05906L18.2447 9.1601C18.088 9.60965 18.0378 10.0899 18.0981 10.5624C18.1584 11.0349 18.3275 11.4867 18.5919 11.8817L18.7077 12.0917C18.5958 12.22 17.068 12.286 16.8558 12.1538C15.2161 11.1468 14.4291 8.79465 14.4831 7.72159C14.5757 5.7776 15.0965 4.30409 16.0263 3.33988V3.18047H15.8411C14.6413 4.13691 14.3596 5.29162 14.1706 6.39192C14.1666 6.45725 14.1487 6.52092 14.1181 6.57862C14.0874 6.63632 14.0449 6.68671 13.9931 6.72629L13.7539 6.69908C13.7539 6.69908 12.9515 6.22086 13.1637 4.77842L13.0787 4.63845L12.9437 4.71621C12.7809 5.12606 12.7537 5.57794 12.8664 6.00458C12.979 6.43123 13.2253 6.80985 13.5687 7.08399L13.5957 7.1112C13.7134 7.22278 13.7999 7.36356 13.8465 7.5194C13.949 7.99218 14.0046 8.47411 14.0124 8.95797L13.8272 9.21065L13.642 9.1679C13.4749 9.05352 13.3333 8.90521 13.2264 8.73249C13.1194 8.55971 13.0494 8.3664 13.0209 8.1648L12.8897 8.0637L12.7933 8.23868C12.8274 8.536 12.9354 8.81987 13.1074 9.06385C13.2793 9.30787 13.5097 9.50415 13.7771 9.63444L13.8542 9.68112C14.0133 9.79082 14.1452 9.93579 14.2401 10.1049C14.5294 10.6609 14.8033 11.108 14.9538 11.349L15.0348 11.4851C15.071 11.5311 15.0964 11.5847 15.109 11.6419C15.1217 11.6991 15.1214 11.7585 15.1081 11.8156L14.9692 11.905C14.7377 11.9478 14.1281 12.0644 13.426 11.2402L13.2755 11.2091L13.2369 11.3685C13.6999 12.391 14.6374 12.3949 15.1351 12.3988C15.2315 12.4026 15.3273 12.417 15.4206 12.4416C15.6679 12.4955 15.8897 12.6326 16.0494 12.8303C15.8435 12.8212 15.6373 12.8395 15.436 12.8848C15.2971 12.9275 15.2393 13.0481 15.1776 13.1608C15.1521 13.2372 15.1096 13.3066 15.0534 13.3638C14.9973 13.4211 14.9289 13.4647 14.8535 13.4913C14.4677 13.6157 12.4885 14.1095 12.2917 14.1561C12.0217 14.2183 12.1799 15.5324 12.1837 15.5441C12.4004 15.8594 12.7317 16.0759 13.1058 16.1468C13.6956 16.1594 14.2769 16.2916 14.8149 16.5355L14.9576 16.5978L15.0656 16.6444C15.2464 16.7225 15.432 16.7888 15.6212 16.8427C15.8566 16.8971 16.1961 16.9555 16.1961 16.9555C15.9393 16.9764 15.6813 16.9764 15.4245 16.9555L15.1467 16.9205C15.3358 18.118 14.3982 19.5409 13.4067 20.9056C12.3689 22.3325 11.3041 24.498 12.1181 26.6986C12.2262 27.0057 12.3457 27.278 12.4653 27.5384C12.7233 28.1678 13.0521 28.7653 13.4453 29.3191C13.7539 29.6768 14.4136 30.3883 14.7339 30.7304C14.7339 30.4621 14.6258 29.7429 14.6258 29.7429L15.1197 31.3797C15.166 31.4924 15.2084 31.613 15.2547 31.7374C15.3511 32.0095 15.4553 32.2895 15.5749 32.55C15.7424 32.9073 15.9358 33.2517 16.1537 33.5803C16.3583 33.8638 16.5028 34.1867 16.578 34.5289C16.6282 34.8283 16.6127 36.1852 16.6089 36.7684V37.0095C16.6428 37.2284 16.7064 37.4416 16.7979 37.6432C16.8992 37.8699 16.9706 38.1092 17.0101 38.3547V42.2115C16.9883 42.3761 16.9373 42.5354 16.8597 42.6819L16.8056 42.8336C16.8056 42.8608 16.8056 43.3001 16.7709 43.5023C16.7477 43.6494 16.6938 43.7898 16.6127 43.9144L16.1883 44.0894L16.1575 44.1127L15.436 45.178V45.248L15.4939 45.283H17.3496L17.4152 45.2246L17.4769 44.4471V44.4004L17.3651 44.2527L17.5194 44.0116C17.6814 44.0116 18.0518 44.0116 18.1444 43.9144C18.237 43.8172 18.2022 43.65 18.1444 43.1369C18.1174 42.8997 18.0865 42.6547 18.0865 42.4798V41.9899C18.0865 40.9557 18.0865 38.8018 18.0865 38.4558C18.1047 38.3015 18.137 38.1492 18.183 38.0009C18.264 37.7254 18.3094 37.4405 18.318 37.1533C18.318 36.7917 18.4569 35.7031 18.507 34.8205C18.5367 34.3159 18.6434 33.8189 18.8234 33.347C19.0009 32.861 19.1359 32.3867 19.5603 32.3089C20.1058 32.3048 20.6491 32.3807 21.1729 32.5344C21.8379 32.7044 22.5174 32.8099 23.2023 32.8493C23.6363 32.8366 24.0692 32.7976 24.4986 32.7327C24.923 32.6316 25.4091 32.4605 25.5673 32.41C26.2347 32.1845 27.3111 31.683 27.9901 31.9124C28.4338 32.0601 29.8883 33.277 30.8644 34.1246C31.3045 34.4156 31.7283 34.7309 32.1337 35.0693C32.8165 35.6486 33.9585 36.6245 34.2479 37.2233C34.7765 38.3508 35.0195 39.556 35.4053 41.4183C35.5087 41.9683 35.5616 42.5266 35.5635 43.0863C35.5646 43.2274 35.612 43.3641 35.6985 43.4751L35.8065 43.6967C35.8297 43.8211 35.8065 44.1282 35.7255 44.1788L35.2548 44.5365V44.5598L34.9346 45.2246V45.2869L34.9886 45.318H36.5627L36.6283 45.2635L36.7749 44.4277V44.3926L36.6823 44.1632L36.7363 43.8367C36.8957 43.7194 37.0275 43.568 37.1221 43.3934V43.3429C36.7346 42.3232 36.4439 41.2687 36.2541 40.1937ZM16.4083 14.2611C16.268 14.2785 16.1256 14.2584 15.9955 14.2028C16.0291 14.1183 16.0812 14.0425 16.1481 13.9813C16.2149 13.92 16.2946 13.8747 16.3813 13.849C16.5896 13.814 16.7671 14.0551 16.7902 14.0978C16.6828 14.1908 16.5493 14.2479 16.4083 14.2611Z" fill="white"/>
</g>
<defs>
<clipPath id="clip0_946_2241">
<rect width="40.6" height="53.9" fill="white"/>
</clipPath>
</defs>
</svg>
