<svg width="206" height="45" viewBox="0 0 206 45" fill="none" xmlns="http://www.w3.org/2000/svg">
<g id="&#208;&#157;&#208;&#184;&#208;&#182;&#208;&#181;&#208;&#179;&#208;&#190;&#209;&#128;&#208;&#190;&#208;&#180;&#208;&#181;&#209;&#134; 1" clip-path="url(#clip0_946_330)">
<g id="Clip path group">
<mask id="mask0_946_330" style="mask-type:luminance" maskUnits="userSpaceOnUse" x="0" y="0" width="206" height="45">
<g id="clip0">
<path id="Vector" d="M205.8 0H0V44.015H205.8V0Z" fill="white"/>
</g>
</mask>
<g mask="url(#mask0_946_330)">
<g id="Group">
<path id="Vector_2" d="M0 44.0135H7.89153L13.3065 13.304H5.41495L0 44.0135Z" fill="white"/>
<path id="Vector_3" d="M39.3358 0L33.9209 30.705H41.817L47.2274 0H39.3358Z" fill="white"/>
<path id="Vector_4" d="M20.3652 18.0577H28.2568L30.2671 6.6543H22.3755L20.3652 18.0577Z" fill="white"/>
<path id="Vector_5" d="M16.96 37.3584H24.856L26.8662 25.9551H18.9701L16.96 37.3584Z" fill="white"/>
<path id="Vector_6" d="M68.0678 37.1405L70.4628 23.5632H67.6377L66.6009 29.4325H61.3172L62.3496 23.5632H59.5288L57.1338 37.1405H59.959L60.8826 31.8916H66.1663L65.2427 37.1405H68.0678ZM81.3653 37.1405L83.7603 23.5632H81.5916L74.0306 31.7285L75.4703 23.5632H72.6452L70.2502 37.1405H72.4414L79.9934 28.9207L78.5446 37.1405H81.3653ZM98.8642 28.5721L103.922 23.5586H100.68L95.4822 28.7034L96.3877 23.5586H96.3469H93.567H93.5263L92.6207 28.7034L89.2342 23.5586H85.9924L89.2794 28.5721L82.8684 37.1359H86.0377L90.7101 30.7729L91.9235 32.6343L91.1312 37.1313H91.1719H93.9519H93.9926L94.785 32.6343L96.6548 30.7729L99.0861 37.1359H102.255L98.8642 28.5721ZM114.892 26.0223L115.326 23.5632H106.199L103.804 37.1405H112.913L113.366 34.6814H107.064L107.612 31.5656H113.552L113.986 29.1064H108.046L108.589 26.0268H114.892V26.0223ZM123.658 26.0223L124.092 23.5632H117.862L117.427 26.0223C117.287 26.8148 117.16 27.544 117.038 28.2233C115.467 37.1313 115.467 37.1359 115.467 37.1359H118.292L120.253 26.0178H123.658V26.0223ZM134.749 30.3428C134.288 32.9649 132.064 34.8082 129.588 34.8082C127.112 34.8082 125.541 32.9694 126.002 30.3428C126.464 27.7206 128.682 25.8955 131.159 25.8955C133.641 25.8955 135.211 27.716 134.749 30.3428ZM137.575 30.3428C138.277 26.3529 135.727 23.3458 131.612 23.3458C127.492 23.3458 123.888 26.3529 123.182 30.3428C122.48 34.3326 125.042 37.3578 129.14 37.3578C133.242 37.3578 136.868 34.3326 137.575 30.3428ZM147.254 27.8972C147.061 29.0068 146.146 29.7541 144.96 29.7541H142.188L142.849 26.0178H145.616C146.802 26.0223 147.454 26.7696 147.254 27.8972ZM150.08 27.8972C150.583 25.0531 148.839 23.5586 146.036 23.5586H140.459L138.064 37.1359H140.889L141.759 32.2177H144.506C147.277 32.2177 149.586 30.6869 150.08 27.8972ZM162.494 30.3428C162.033 32.9649 159.814 34.8082 157.333 34.8082C154.856 34.8082 153.286 32.9694 153.747 30.3428C154.209 27.7206 156.427 25.8955 158.904 25.8955C161.381 25.8955 162.956 27.716 162.494 30.3428ZM165.315 30.3428C166.017 26.3529 163.467 23.3458 159.353 23.3458C155.237 23.3458 151.624 26.3529 150.922 30.3428C150.22 34.3326 152.782 37.3578 156.881 37.3578C160.982 37.3578 164.613 34.3326 165.315 30.3428ZM176.603 26.0223L175.077 34.6768H169.793L171.319 26.0223H176.603ZM177.897 34.6768C179.858 23.5632 179.858 23.5586 179.858 23.5586H168.928L166.967 34.6768H165.342L164.962 36.828L164.668 38.5036H167.493L167.733 37.1359H169.358H171.337H174.642H176.267L176.027 38.5036H178.852L179.093 37.1359L179.527 34.6768H177.897ZM192.232 26.0223L192.666 23.5632H183.538L181.148 37.1405H190.257L190.71 34.6814H184.408L184.956 31.5656H190.896L191.33 29.1064H185.39L185.934 26.0268H192.232V26.0223ZM205.8 23.5632H202.975L201.015 34.6814H195.732L197.692 23.5632H194.867L192.471 37.1405H201.992L201.753 38.5082H204.579L205.253 34.6814H203.84L205.8 23.5632Z" fill="white"/>
</g>
</g>
</g>
</g>
<defs>
<clipPath id="clip0_946_330">
<rect width="205.8" height="44.015" fill="white"/>
</clipPath>
</defs>
</svg>
