<svg width="129" height="39" viewBox="0 0 129 39" fill="none" xmlns="http://www.w3.org/2000/svg">
<g clip-path="url(#clip0_946_278)">
<path d="M16.472 19.3784C16.472 17.1803 17.0472 15.0205 18.1405 13.1136C19.2338 11.2067 20.8071 9.61907 22.7041 8.50855C24.601 7.39802 26.7555 6.80325 28.9535 6.78333C31.1515 6.76341 33.3165 7.31905 35.2332 8.39502V0L0 15.2659V38.7569L21.4945 29.4424C19.9348 28.2688 18.6691 26.7487 17.7975 25.0022C16.9259 23.2556 16.4721 21.3304 16.472 19.3784ZM36.6408 9.30191C39.1866 11.2256 40.9074 14.0438 41.4556 17.1872C42.0038 20.3306 41.3386 23.565 39.5943 26.2368C37.8499 28.9087 35.1565 30.819 32.0582 31.5817C28.9598 32.3445 25.6874 31.9029 22.9021 30.3461V38.7443L58.1353 23.4752V0L36.6408 9.30191Z" fill="white"/>
<path d="M35.8507 19.3785C35.8507 20.72 35.4529 22.0314 34.7076 23.1468C33.9623 24.2622 32.903 25.1316 31.6636 25.6449C30.4242 26.1583 29.0604 26.2926 27.7447 26.0309C26.429 25.7692 25.2204 25.1232 24.2718 24.1746C23.3232 23.226 22.6772 22.0175 22.4155 20.7017C22.1538 19.386 22.2881 18.0222 22.8015 16.7828C23.3148 15.5434 24.1842 14.4841 25.2996 13.7388C26.415 12.9935 27.7264 12.5957 29.0679 12.5957C30.8668 12.5957 32.5921 13.3103 33.8641 14.5823C35.1361 15.8543 35.8507 17.5796 35.8507 19.3785Z" fill="white"/>
<path d="M78.1459 11.2385C76.5365 11.241 74.964 11.7205 73.627 12.6165C72.2901 13.5124 71.2487 14.7846 70.6346 16.2722C70.0204 17.7598 69.861 19.3961 70.1765 20.9742C70.492 22.5524 71.2683 24.0016 72.4072 25.1387C73.546 26.2759 74.9965 27.0499 76.5751 27.3629C78.1538 27.676 79.7898 27.5141 81.2764 26.8976C82.7631 26.2811 84.0336 25.2378 84.9275 23.8995C85.8214 22.5612 86.2985 20.9879 86.2985 19.3785C86.2985 18.3085 86.0875 17.249 85.6777 16.2605C85.2678 15.2721 84.6671 14.3742 83.9099 13.6182C83.1527 12.8622 82.2539 12.2629 81.2648 11.8545C80.2758 11.4462 79.2159 11.2369 78.1459 11.2385ZM78.1459 23.6421C77.3026 23.6421 76.4783 23.3921 75.7772 22.9236C75.076 22.4551 74.5295 21.7892 74.2068 21.0101C73.8841 20.231 73.7997 19.3738 73.9642 18.5467C74.1287 17.7196 74.5348 16.9599 75.1311 16.3636C75.7274 15.7674 76.4871 15.3613 77.3141 15.1968C78.1412 15.0323 78.9985 15.1167 79.7775 15.4394C80.5566 15.7621 81.2225 16.3086 81.691 17.0097C82.1595 17.7109 82.4096 18.5352 82.4096 19.3785C82.4079 20.5088 81.9581 21.5923 81.1589 22.3915C80.3597 23.1907 79.2762 23.6405 78.1459 23.6421ZM99.4798 17.9741L95.021 11.6762H91.1478V27.1784H95.021V18.3929L97.1056 21.3403L99.4798 24.697L101.851 21.3403L103.936 18.3929V27.1784H107.812V11.6605H103.932L99.4798 17.9741ZM128.135 11.6762H123.396L117.917 19.2084V11.6605H114.04V27.1626H117.917V19.6052L123.396 27.1626H128.141L122.473 19.4131L128.135 11.6762Z" fill="white"/>
</g>
<defs>
<clipPath id="clip0_946_278">
<rect width="128.142" height="38.7569" fill="white"/>
</clipPath>
</defs>
</svg>
