<svg width="133" height="48" viewBox="0 0 133 48" fill="none" xmlns="http://www.w3.org/2000/svg">
<g clip-path="url(#clip0_946_225)">
<path d="M27.6697 27.1909C27.0441 27.8802 26.2283 28.3687 25.3253 28.5946C24.4222 28.8206 23.4725 28.7737 22.596 28.4601C21.7196 28.1465 20.9558 27.5802 20.401 26.8326C19.8463 26.0851 19.5256 25.1899 19.4794 24.2602C19.4333 23.3305 19.6637 22.4079 20.1416 21.6091C20.6195 20.8103 21.3234 20.171 22.1645 19.7721C23.0055 19.3731 23.946 19.2325 24.867 19.3678C25.788 19.5031 26.6481 19.9083 27.3389 20.5323C27.7995 20.9468 28.1735 21.4482 28.4395 22.0078C28.7056 22.5673 28.8584 23.174 28.8891 23.7928C28.9199 24.4116 28.8279 25.0304 28.6187 25.6136C28.4094 26.1967 28.0869 26.7328 27.6697 27.1909Z" fill="white"/>
<path d="M13.2907 24.1881C13.2907 24.1881 15.9019 22.8564 17.4251 16.9203C18.9483 10.9842 24.5971 8.21633 24.5971 8.21633C24.5971 8.21633 12.4725 -3.81252 3.27246 15.1012C3.27246 15.1012 10.7666 16.5721 13.2907 24.2055" fill="white"/>
<path d="M14.3965 3.59463C14.3965 3.59463 23.7445 1.7494 29.289 13.4736C29.289 13.4736 35.7473 15.5713 41.4223 9.56555C41.4223 9.56555 31.9262 -3.42075 14.3965 3.59463Z" fill="white"/>
<path d="M29.654 33.0661C29.654 33.0661 27.1908 31.4645 21.2983 33.1183C15.4057 34.772 10.1833 31.2556 10.1833 31.2556C10.1833 31.2556 5.83133 47.7931 26.7904 46.296C26.7904 46.296 24.3098 39.0718 29.654 33.0661Z" fill="white"/>
<path d="M11.271 42.4142C11.271 42.4142 4.99551 35.2335 12.3765 24.5711C12.3765 24.5711 10.9577 17.9387 2.92396 16.0151C2.92396 16.0151 -3.56919 30.7335 11.271 42.4142Z" fill="white"/>
<path d="M29.1931 14.5266C29.1931 14.5266 29.0364 17.4598 33.4145 21.7422C37.7926 26.0245 37.3574 32.2913 37.3574 32.2913C37.3574 32.2913 53.8949 27.7914 42.0836 10.3922C42.0836 10.3922 37.0614 16.1455 29.1931 14.5266Z" fill="white"/>
<path d="M46.4791 25.7722C46.4791 25.7722 43.3979 34.7895 30.4813 33.7363C30.4813 33.7363 25.4417 38.2885 27.8004 46.2004C27.8004 46.2004 43.7896 44.4596 46.4791 25.7722Z" fill="white"/>
<path d="M57.0374 29.4541H54.6699V18.4175H58.4735C61.2501 18.4175 62.9996 19.5664 62.9996 22.1079C62.9996 24.6495 61.2066 26.0073 58.2559 26.0073H57.0374V29.4541ZM56.9939 23.9184H58.2821C59.7008 23.9184 60.5538 23.37 60.5538 22.1776C60.5538 20.9852 59.753 20.4368 58.2995 20.4368H56.9939V23.9184Z" fill="white"/>
<path d="M64.6963 23.9357C64.6963 20.2279 66.9506 18.226 69.997 18.226C73.4002 18.226 75.376 20.3845 75.376 23.9357C75.376 27.8612 73.0869 29.6455 70.0579 29.6455C66.8549 29.6455 64.6963 27.6436 64.6963 23.9357ZM72.8693 23.9357C72.8693 21.429 71.7117 20.3062 69.997 20.3062C68.4303 20.3062 67.203 21.4725 67.203 23.9357C67.203 26.399 68.4825 27.5653 70.1363 27.5653C71.79 27.5653 72.8693 26.4164 72.8693 23.9357Z" fill="white"/>
<path d="M85.9434 29.0276C85.0199 29.493 83.9907 29.709 82.958 29.6543C79.5809 29.6543 77.3613 27.7133 77.3613 24.0837C77.3613 20.2888 79.5808 18.2347 83.193 18.2347C84.1445 18.2172 85.0894 18.395 85.9695 18.7569L85.4473 20.7414C84.8255 20.5386 84.1776 20.4272 83.5237 20.4107C81.3478 20.4107 79.8681 21.4987 79.8681 23.9445C79.8681 26.3903 81.2868 27.4261 83.5063 27.4261C84.1797 27.405 84.8435 27.2605 85.4647 26.9996L85.9434 29.0276Z" fill="white"/>
<path d="M94.6032 26.5121H89.8856L88.8151 29.4541H87.3789L91.5916 18.4175H93.0104L97.1447 29.4541H95.6651L94.6032 26.5121ZM90.347 25.2153H94.1506L92.3053 19.9929H92.2444L90.347 25.2153Z" fill="white"/>
<path d="M102.071 29.454H100.653V19.7404H97.3887V18.4087H105.335V19.7404H102.071V29.454Z" fill="white"/>
<path d="M106.841 23.9357C106.841 20.4019 108.878 18.2607 111.802 18.2607C115.083 18.2607 116.85 20.5934 116.85 23.9357C116.85 27.6871 114.735 29.6194 111.846 29.6194C108.791 29.6194 106.841 27.4347 106.841 23.9357ZM115.336 23.9357C115.336 20.9067 113.978 19.5837 111.802 19.5837C109.861 19.5837 108.364 20.9851 108.364 23.9357C108.364 26.8863 109.809 28.2877 111.985 28.2877C114.161 28.2877 115.336 26.7906 115.336 23.9357Z" fill="white"/>
<path d="M130.559 29.454H129.14L128.461 20.8284L125.667 29.454H124.188L121.411 20.8545L120.715 29.454H119.296L120.245 18.4087H121.977L124.962 27.9047L127.878 18.4087H129.619L130.559 29.454Z" fill="white"/>
</g>
<defs>
<clipPath id="clip0_946_225">
<rect width="132.3" height="47.8717" fill="white"/>
</clipPath>
</defs>
</svg>
