<svg width="192" height="52" viewBox="0 0 192 52" fill="none" xmlns="http://www.w3.org/2000/svg">
<g clip-path="url(#clip0_946_303)">
<path d="M43.9504 36.4535L48.8092 44.9719H53.3391L48.2656 36.0928C51.1147 35.0736 53.0648 33.1534 53.0648 29.9138C53.0648 26.2839 50.2147 23.9742 45.5953 23.9742H36.6289V44.9719H40.5886V36.4535H43.9504ZM40.5907 32.9736V27.4542H45.5943C48.0242 27.4542 49.104 28.534 49.104 30.2139C49.104 31.8937 48.0273 32.9736 45.5943 32.9736H40.5907ZM70.0175 37.5333C70.0175 32.3139 65.9673 29.6734 61.8884 29.6734C57.8095 29.6734 53.7593 32.3139 53.7593 37.5333C53.7593 42.7527 57.8085 45.3922 61.8884 45.3922C65.9684 45.3922 70.0175 42.7527 70.0175 37.5333ZM61.8884 41.8485C59.6681 41.8485 57.5989 40.2591 57.5989 37.5333C57.5989 34.8075 59.6681 33.2181 61.8884 33.2181C64.1087 33.2181 66.178 34.8075 66.178 37.5333C66.178 40.2591 64.1077 41.8485 61.8884 41.8485ZM75.129 33.8695C75.129 33.0599 76.028 32.6098 77.2578 32.6098C78.6962 32.6098 79.6877 33.2397 80.4079 34.3195L82.8676 32.6098C81.8176 30.78 80.1963 29.6693 77.1982 29.6693C74.2885 29.6693 71.7693 31.2002 71.7693 33.9845C71.7693 36.6836 73.9269 38.0645 76.8386 38.6337C78.9685 39.0539 79.9579 39.6241 79.9579 40.554C79.9579 41.6934 78.9079 42.203 77.6185 42.203C75.878 42.203 74.8279 41.1838 74.1087 40.0135L71.0747 41.9431C72.095 43.8027 74.045 45.3922 77.5547 45.3922C81.2432 45.3922 83.4337 43.2345 83.4337 40.443C83.4337 37.9535 81.9953 36.5737 78.5144 35.8535C76.1739 35.3736 75.1238 34.8332 75.1238 33.8736M84.5639 30.0936V33.1534H86.8767V40.6536C86.8767 44.3134 89.0661 45.3932 91.646 45.3932C92.5028 45.3884 93.3533 45.2465 94.1653 44.973L93.8057 41.8537C93.3975 41.9778 92.9727 42.0385 92.5461 42.0335C91.4056 42.0335 90.6556 41.4643 90.6556 39.9344V33.1534H93.8951V30.0936H90.6556V26.0743H86.8767V30.0936H84.5639ZM98.8843 38.4333H110.343V37.1131C110.343 32.764 107.344 29.6734 103.084 29.6734C98.7692 29.6734 95.2554 32.8235 95.2554 37.5333C95.2554 42.2431 98.7641 45.3922 102.905 45.3922C106.174 45.3922 108.247 44.1592 109.743 41.6122L106.747 40.1132C105.823 41.2824 104.977 42.1527 102.967 42.1527C100.748 42.1527 99.1278 40.7142 98.8874 38.4333M102.967 32.5533C105.067 32.5533 106.477 33.6938 106.837 35.5534H98.948C99.4874 33.8736 100.987 32.5533 102.967 32.5533ZM112.48 44.9719H116.26V23.9742H112.48V44.9719ZM122.219 38.4087H133.678V37.0884C133.678 32.7393 130.678 29.6488 126.419 29.6488C122.103 29.6488 118.589 32.7989 118.589 37.5086C118.589 42.2184 122.101 45.3634 126.241 45.3634C129.51 45.3634 131.583 44.1305 133.08 41.5835L130.08 40.0844C129.156 41.2537 128.311 42.1239 126.3 42.1239C124.081 42.1239 122.461 40.6855 122.221 38.4046M126.3 32.5246C128.4 32.5246 129.81 33.665 130.171 35.5247H122.281C122.822 33.8448 124.321 32.5246 126.3 32.5246ZM150.178 41.3739L147.059 39.6642C146.159 40.9238 145.199 41.8218 143.338 41.8218C141.058 41.8218 139.38 40.1718 139.38 37.5066C139.38 34.8661 141.119 33.1914 143.338 33.1914C144.688 33.1914 145.859 33.8212 146.788 35.2308L150.028 33.3712C148.948 31.0615 146.609 29.6508 143.369 29.6508C139.139 29.6508 135.539 32.7711 135.539 37.5107C135.539 42.2503 138.959 45.3634 143.369 45.3634C146.548 45.3634 148.678 43.925 150.178 41.3739ZM167.727 37.5045C167.727 32.2852 163.676 29.6447 159.597 29.6447C155.517 29.6447 151.467 32.2852 151.467 37.5045C151.467 42.7239 155.518 45.3634 159.597 45.3634C163.675 45.3634 167.727 42.7239 167.727 37.5045ZM159.597 41.8198C157.377 41.8198 155.307 40.2303 155.307 37.5045C155.307 34.7788 157.377 33.1893 159.597 33.1893C161.816 33.1893 163.886 34.7788 163.886 37.5045C163.886 40.2303 161.817 41.8198 159.597 41.8198ZM191.387 44.9524V34.5383C191.387 31.5988 189.677 29.6488 186.587 29.6488C184.757 29.6488 182.928 30.4594 181.848 32.1989C181.218 30.6094 179.896 29.6488 177.708 29.6488C176.148 29.6488 174.498 30.3392 173.393 32.0489V30.069H169.606V44.9524H173.386V36.6086C173.386 34.2085 174.736 32.9489 176.205 32.9489C177.855 32.9489 178.605 33.9989 178.605 35.799V44.9432H182.385V36.6682C182.385 34.2085 183.585 32.9489 185.262 32.9489C186.912 32.9489 187.602 33.9989 187.602 35.7384V44.9524H191.387Z" fill="white"/>
<path d="M11.2301 37.6309L30.963 18.0212L12.8925 0L2.66229 10.2096C-0.394334 13.257 0.0186956 15.2523 0.0186956 19.3456V47.3555C0.0186956 49.5203 1.81465 51.3718 4.07707 51.3718H24.9782L24.3905 50.7841L11.2301 37.6309ZM4.07912 51.0266C1.12833 51.0266 0.652624 48.1497 1.90918 46.8963L10.9783 37.8815L24.1449 51.0266H4.07912Z" fill="white"/>
</g>
<defs>
<clipPath id="clip0_946_303">
<rect width="191.387" height="51.3718" fill="white"/>
</clipPath>
</defs>
</svg>
